STARTFONT 2.1
FONT -QiuYeYuanTi 16-Book-R-Book--16-16-75-75-c-80-iso10646-1
SIZE 16 75 75
FONTBOUNDINGBOX 16 16 0 -2
STARTPROPERTIES 10
FAMILY_NAME "QiuYeYuanTi 16"
WEIGHT_NAME "Book"
FONT_VERSION "Version 1.0"
COPYRIGHT "Copyright (c) yzdnn 2026, Copyright (c) Keitarou Hiraki, Font Silo. 1990-2015"
FOUNDRY "Made with Bits'n'Picas by Kreative Software"
FONT_ASCENT 14
FONT_DESCENT 2
POINT_SIZE 16
X_HEIGHT 9
CAP_HEIGHT 12
ENDPROPERTIES
CHARS 10754
STARTCHAR U+0020
ENCODING 32
SWIDTH 500 0
DWIDTH 8 0
BBX 0 0 0 0
BITMAP
ENDCHAR
STARTCHAR U+0021
ENCODING 33
SWIDTH 500 0
DWIDTH 8 0
BBX 1 12 3 0
BITMAP
80
80
80
80
80
80
80
00
00
80
80
80
ENDCHAR
STARTCHAR U+0022
ENCODING 34
SWIDTH 500 0
DWIDTH 8 0
BBX 5 5 1 8
BITMAP
D8
D8
48
48
90
ENDCHAR
STARTCHAR U+0023
ENCODING 35
SWIDTH 500 0
DWIDTH 8 0
BBX 7 11 0 1
BITMAP
44
44
44
FE
44
44
44
FE
44
44
44
ENDCHAR
STARTCHAR U+0024
ENCODING 36
SWIDTH 500 0
DWIDTH 8 0
BBX 7 16 0 -2
BITMAP
10
10
38
54
92
90
50
38
14
12
92
92
54
38
10
10
ENDCHAR
STARTCHAR U+0025
ENCODING 37
SWIDTH 500 0
DWIDTH 8 0
BBX 7 11 0 1
BITMAP
60
92
92
94
68
10
2C
52
92
92
0C
ENDCHAR
STARTCHAR U+0026
ENCODING 38
SWIDTH 500 0
DWIDTH 8 0
BBX 7 12 0 0
BITMAP
70
88
88
88
90
64
A4
94
94
88
88
76
ENDCHAR
STARTCHAR U+0027
ENCODING 39
SWIDTH 500 0
DWIDTH 8 0
BBX 2 5 2 8
BITMAP
C0
C0
40
40
80
ENDCHAR
STARTCHAR U+0028
ENCODING 40
SWIDTH 500 0
DWIDTH 8 0
BBX 4 15 3 -1
BITMAP
10
20
40
40
80
80
80
80
80
80
80
40
40
20
10
ENDCHAR
STARTCHAR U+0029
ENCODING 41
SWIDTH 500 0
DWIDTH 8 0
BBX 4 15 1 -1
BITMAP
80
40
20
20
10
10
10
10
10
10
10
20
20
40
80
ENDCHAR
STARTCHAR U+002A
ENCODING 42
SWIDTH 500 0
DWIDTH 8 0
BBX 7 8 0 2
BITMAP
10
92
54
38
38
54
92
10
ENDCHAR
STARTCHAR U+002B
ENCODING 43
SWIDTH 500 0
DWIDTH 8 0
BBX 7 9 0 2
BITMAP
10
10
10
10
FE
10
10
10
10
ENDCHAR
STARTCHAR U+002C
ENCODING 44
SWIDTH 500 0
DWIDTH 8 0
BBX 2 5 3 -2
BITMAP
C0
C0
40
40
80
ENDCHAR
STARTCHAR U+002D
ENCODING 45
SWIDTH 500 0
DWIDTH 8 0
BBX 7 1 0 6
BITMAP
FE
ENDCHAR
STARTCHAR U+002E
ENCODING 46
SWIDTH 500 0
DWIDTH 8 0
BBX 2 2 3 1
BITMAP
C0
C0
ENDCHAR
STARTCHAR U+002F
ENCODING 47
SWIDTH 500 0
DWIDTH 8 0
BBX 7 16 0 -2
BITMAP
02
02
04
04
08
08
08
10
10
20
20
20
40
40
80
80
ENDCHAR
STARTCHAR U+0030
ENCODING 48
SWIDTH 500 0
DWIDTH 8 0
BBX 6 12 1 0
BITMAP
30
48
84
84
84
84
84
84
84
84
48
30
ENDCHAR
STARTCHAR U+0031
ENCODING 49
SWIDTH 500 0
DWIDTH 8 0
BBX 4 12 1 0
BITMAP
E0
10
10
10
10
10
10
10
10
10
10
10
ENDCHAR
STARTCHAR U+0032
ENCODING 50
SWIDTH 500 0
DWIDTH 8 0
BBX 6 12 1 0
BITMAP
78
84
84
04
08
10
20
40
40
80
80
7C
ENDCHAR
STARTCHAR U+0033
ENCODING 51
SWIDTH 500 0
DWIDTH 8 0
BBX 6 12 1 0
BITMAP
70
88
84
04
08
70
08
04
04
84
88
70
ENDCHAR
STARTCHAR U+0034
ENCODING 52
SWIDTH 500 0
DWIDTH 8 0
BBX 6 12 1 0
BITMAP
10
28
28
48
48
88
88
88
7C
08
08
08
ENDCHAR
STARTCHAR U+0035
ENCODING 53
SWIDTH 500 0
DWIDTH 8 0
BBX 6 12 1 0
BITMAP
7C
80
80
80
B0
C8
04
04
04
84
88
70
ENDCHAR
STARTCHAR U+0036
ENCODING 54
SWIDTH 500 0
DWIDTH 8 0
BBX 6 12 1 0
BITMAP
38
44
84
80
B0
C8
84
84
84
84
48
30
ENDCHAR
STARTCHAR U+0037
ENCODING 55
SWIDTH 500 0
DWIDTH 8 0
BBX 6 12 1 0
BITMAP
F8
04
04
04
08
08
10
10
20
20
20
20
ENDCHAR
STARTCHAR U+0038
ENCODING 56
SWIDTH 500 0
DWIDTH 8 0
BBX 6 12 1 0
BITMAP
30
48
84
84
48
30
48
84
84
84
48
30
ENDCHAR
STARTCHAR U+0039
ENCODING 57
SWIDTH 500 0
DWIDTH 8 0
BBX 6 12 1 0
BITMAP
30
48
84
84
84
84
4C
34
04
84
88
70
ENDCHAR
STARTCHAR U+003A
ENCODING 58
SWIDTH 500 0
DWIDTH 8 0
BBX 2 8 3 1
BITMAP
C0
C0
00
00
00
00
C0
C0
ENDCHAR
STARTCHAR U+003B
ENCODING 59
SWIDTH 500 0
DWIDTH 8 0
BBX 2 11 3 -2
BITMAP
C0
C0
00
00
00
00
C0
C0
40
40
80
ENDCHAR
STARTCHAR U+003C
ENCODING 60
SWIDTH 500 0
DWIDTH 8 0
BBX 7 13 0 0
BITMAP
02
04
08
10
20
40
80
40
20
10
08
04
02
ENDCHAR
STARTCHAR U+003D
ENCODING 61
SWIDTH 500 0
DWIDTH 8 0
BBX 7 4 0 4
BITMAP
FE
00
00
FE
ENDCHAR
STARTCHAR U+003E
ENCODING 62
SWIDTH 500 0
DWIDTH 8 0
BBX 7 13 0 0
BITMAP
80
40
20
10
08
04
02
04
08
10
20
40
80
ENDCHAR
STARTCHAR U+003F
ENCODING 63
SWIDTH 500 0
DWIDTH 8 0
BBX 7 12 0 0
BITMAP
38
44
82
82
04
08
10
10
00
10
10
10
ENDCHAR
STARTCHAR U+0040
ENCODING 64
SWIDTH 500 0
DWIDTH 8 0
BBX 7 12 0 0
BITMAP
38
44
82
9A
AA
AA
AA
AA
9C
40
42
3C
ENDCHAR
STARTCHAR U+0041
ENCODING 65
SWIDTH 500 0
DWIDTH 8 0
BBX 7 12 0 0
BITMAP
38
44
82
82
82
82
82
FE
82
82
82
82
ENDCHAR
STARTCHAR U+0042
ENCODING 66
SWIDTH 500 0
DWIDTH 8 0
BBX 7 12 0 0
BITMAP
78
84
82
82
84
F8
84
82
82
82
84
78
ENDCHAR
STARTCHAR U+0043
ENCODING 67
SWIDTH 500 0
DWIDTH 8 0
BBX 7 12 0 0
BITMAP
3C
42
42
80
80
80
80
80
82
42
42
3C
ENDCHAR
STARTCHAR U+0044
ENCODING 68
SWIDTH 500 0
DWIDTH 8 0
BBX 7 12 0 0
BITMAP
70
88
84
82
82
82
82
82
82
84
88
70
ENDCHAR
STARTCHAR U+0045
ENCODING 69
SWIDTH 500 0
DWIDTH 8 0
BBX 7 12 0 0
BITMAP
7E
80
80
80
80
FE
80
80
80
80
80
7E
ENDCHAR
STARTCHAR U+0046
ENCODING 70
SWIDTH 500 0
DWIDTH 8 0
BBX 7 12 0 0
BITMAP
7E
80
80
80
80
FE
80
80
80
80
80
80
ENDCHAR
STARTCHAR U+0047
ENCODING 71
SWIDTH 500 0
DWIDTH 8 0
BBX 7 12 0 0
BITMAP
38
44
82
82
80
80
9C
82
82
82
44
38
ENDCHAR
STARTCHAR U+0048
ENCODING 72
SWIDTH 500 0
DWIDTH 8 0
BBX 7 12 0 0
BITMAP
82
82
82
82
82
FE
82
82
82
82
82
82
ENDCHAR
STARTCHAR U+0049
ENCODING 73
SWIDTH 500 0
DWIDTH 8 0
BBX 1 12 3 0
BITMAP
80
80
80
80
80
80
80
80
80
80
80
80
ENDCHAR
STARTCHAR U+004A
ENCODING 74
SWIDTH 500 0
DWIDTH 8 0
BBX 6 14 0 -2
BITMAP
04
04
04
04
04
04
04
04
04
04
84
84
48
30
ENDCHAR
STARTCHAR U+004B
ENCODING 75
SWIDTH 500 0
DWIDTH 8 0
BBX 7 12 0 0
BITMAP
82
82
82
84
88
F0
88
84
82
82
82
82
ENDCHAR
STARTCHAR U+004C
ENCODING 76
SWIDTH 500 0
DWIDTH 8 0
BBX 7 12 0 0
BITMAP
80
80
80
80
80
80
80
80
80
80
80
7E
ENDCHAR
STARTCHAR U+004D
ENCODING 77
SWIDTH 500 0
DWIDTH 8 0
BBX 7 12 0 0
BITMAP
6C
92
92
92
92
92
92
92
92
92
92
92
ENDCHAR
STARTCHAR U+004E
ENCODING 78
SWIDTH 500 0
DWIDTH 8 0
BBX 7 12 0 0
BITMAP
38
44
82
82
82
82
82
82
82
82
82
82
ENDCHAR
STARTCHAR U+004F
ENCODING 79
SWIDTH 500 0
DWIDTH 8 0
BBX 7 12 0 0
BITMAP
38
44
82
82
82
82
82
82
82
82
44
38
ENDCHAR
STARTCHAR U+0050
ENCODING 80
SWIDTH 500 0
DWIDTH 8 0
BBX 7 12 0 0
BITMAP
78
84
82
82
82
84
F8
80
80
80
80
80
ENDCHAR
STARTCHAR U+0051
ENCODING 81
SWIDTH 500 0
DWIDTH 8 0
BBX 7 13 0 -1
BITMAP
38
44
82
82
82
82
82
82
B2
8A
44
3A
02
ENDCHAR
STARTCHAR U+0052
ENCODING 82
SWIDTH 500 0
DWIDTH 8 0
BBX 7 12 0 0
BITMAP
78
84
82
82
84
F8
84
84
82
82
82
82
ENDCHAR
STARTCHAR U+0053
ENCODING 83
SWIDTH 500 0
DWIDTH 8 0
BBX 7 12 0 0
BITMAP
3C
40
80
80
40
38
04
02
02
02
04
F8
ENDCHAR
STARTCHAR U+0054
ENCODING 84
SWIDTH 500 0
DWIDTH 8 0
BBX 7 12 0 0
BITMAP
FE
10
10
10
10
10
10
10
10
10
10
10
ENDCHAR
STARTCHAR U+0055
ENCODING 85
SWIDTH 500 0
DWIDTH 8 0
BBX 7 12 0 0
BITMAP
82
82
82
82
82
82
82
82
82
82
44
38
ENDCHAR
STARTCHAR U+0056
ENCODING 86
SWIDTH 500 0
DWIDTH 8 0
BBX 7 12 0 0
BITMAP
82
82
82
82
82
84
84
84
88
88
90
60
ENDCHAR
STARTCHAR U+0057
ENCODING 87
SWIDTH 500 0
DWIDTH 8 0
BBX 7 12 0 0
BITMAP
92
92
92
92
92
92
92
92
92
92
92
6C
ENDCHAR
STARTCHAR U+0058
ENCODING 88
SWIDTH 500 0
DWIDTH 8 0
BBX 7 12 0 0
BITMAP
C6
28
28
10
10
10
10
10
10
28
28
C6
ENDCHAR
STARTCHAR U+0059
ENCODING 89
SWIDTH 500 0
DWIDTH 8 0
BBX 7 12 0 0
BITMAP
82
82
82
82
82
44
38
10
10
10
10
10
ENDCHAR
STARTCHAR U+005A
ENCODING 90
SWIDTH 500 0
DWIDTH 8 0
BBX 7 12 0 0
BITMAP
FC
02
02
04
08
10
20
40
80
80
80
7E
ENDCHAR
STARTCHAR U+005B
ENCODING 91
SWIDTH 500 0
DWIDTH 8 0
BBX 5 14 2 0
BITMAP
78
80
80
80
80
80
80
80
80
80
80
80
80
78
ENDCHAR
STARTCHAR U+005C
ENCODING 92
SWIDTH 500 0
DWIDTH 8 0
BBX 7 16 0 -2
BITMAP
80
80
40
40
20
20
20
10
10
08
08
08
04
04
02
02
ENDCHAR
STARTCHAR U+005D
ENCODING 93
SWIDTH 500 0
DWIDTH 8 0
BBX 5 14 1 0
BITMAP
F0
08
08
08
08
08
08
08
08
08
08
08
08
F0
ENDCHAR
STARTCHAR U+005E
ENCODING 94
SWIDTH 500 0
DWIDTH 8 0
BBX 7 4 0 9
BITMAP
10
28
44
82
ENDCHAR
STARTCHAR U+005F
ENCODING 95
SWIDTH 500 0
DWIDTH 8 0
BBX 7 1 0 0
BITMAP
FE
ENDCHAR
STARTCHAR U+0060
ENCODING 96
SWIDTH 500 0
DWIDTH 8 0
BBX 2 5 3 8
BITMAP
40
80
80
C0
C0
ENDCHAR
STARTCHAR U+0061
ENCODING 97
SWIDTH 500 0
DWIDTH 8 0
BBX 7 9 0 0
BITMAP
3A
46
82
82
82
82
82
46
3A
ENDCHAR
STARTCHAR U+0062
ENCODING 98
SWIDTH 500 0
DWIDTH 8 0
BBX 7 14 0 0
BITMAP
80
80
80
80
80
B8
C4
82
82
82
82
82
44
38
ENDCHAR
STARTCHAR U+0063
ENCODING 99
SWIDTH 500 0
DWIDTH 8 0
BBX 7 9 0 0
BITMAP
38
44
82
80
80
80
82
44
38
ENDCHAR
STARTCHAR U+0064
ENCODING 100
SWIDTH 500 0
DWIDTH 8 0
BBX 7 14 0 0
BITMAP
02
02
02
02
02
3A
46
82
82
82
82
82
44
38
ENDCHAR
STARTCHAR U+0065
ENCODING 101
SWIDTH 500 0
DWIDTH 8 0
BBX 7 9 0 0
BITMAP
38
44
82
82
FE
80
80
42
3C
ENDCHAR
STARTCHAR U+0066
ENCODING 102
SWIDTH 500 0
DWIDTH 8 0
BBX 7 14 0 0
BITMAP
0E
10
20
20
20
FC
20
20
20
20
20
20
20
20
ENDCHAR
STARTCHAR U+0067
ENCODING 103
SWIDTH 500 0
DWIDTH 8 0
BBX 7 11 0 -2
BITMAP
38
44
82
82
82
82
46
3A
02
84
78
ENDCHAR
STARTCHAR U+0068
ENCODING 104
SWIDTH 500 0
DWIDTH 8 0
BBX 7 14 0 0
BITMAP
80
80
80
80
80
B8
C4
82
82
82
82
82
82
82
ENDCHAR
STARTCHAR U+0069
ENCODING 105
SWIDTH 500 0
DWIDTH 8 0
BBX 1 14 3 0
BITMAP
80
80
80
00
00
80
80
80
80
80
80
80
80
80
ENDCHAR
STARTCHAR U+006A
ENCODING 106
SWIDTH 500 0
DWIDTH 8 0
BBX 6 16 0 -2
BITMAP
04
04
04
00
00
04
04
04
04
04
04
84
84
84
48
30
ENDCHAR
STARTCHAR U+006B
ENCODING 107
SWIDTH 500 0
DWIDTH 8 0
BBX 7 14 0 0
BITMAP
80
80
80
80
80
82
82
84
F8
84
84
82
82
82
ENDCHAR
STARTCHAR U+006C
ENCODING 108
SWIDTH 500 0
DWIDTH 8 0
BBX 1 14 3 0
BITMAP
80
80
80
80
80
80
80
80
80
80
80
80
80
80
ENDCHAR
STARTCHAR U+006D
ENCODING 109
SWIDTH 500 0
DWIDTH 8 0
BBX 7 9 0 0
BITMAP
6C
92
92
92
92
92
92
92
92
ENDCHAR
STARTCHAR U+006E
ENCODING 110
SWIDTH 500 0
DWIDTH 8 0
BBX 7 9 0 0
BITMAP
38
44
82
82
82
82
82
82
82
ENDCHAR
STARTCHAR U+006F
ENCODING 111
SWIDTH 500 0
DWIDTH 8 0
BBX 7 9 0 0
BITMAP
38
44
82
82
82
82
82
44
38
ENDCHAR
STARTCHAR U+0070
ENCODING 112
SWIDTH 500 0
DWIDTH 8 0
BBX 7 11 0 -2
BITMAP
38
44
82
82
82
82
82
C4
B8
80
80
ENDCHAR
STARTCHAR U+0071
ENCODING 113
SWIDTH 500 0
DWIDTH 8 0
BBX 7 11 0 -2
BITMAP
38
44
82
82
82
82
82
46
3A
02
02
ENDCHAR
STARTCHAR U+0072
ENCODING 114
SWIDTH 500 0
DWIDTH 8 0
BBX 7 9 0 0
BITMAP
BC
C2
80
80
80
80
80
80
80
ENDCHAR
STARTCHAR U+0073
ENCODING 115
SWIDTH 500 0
DWIDTH 8 0
BBX 7 9 0 0
BITMAP
7C
80
80
80
7C
02
02
02
FC
ENDCHAR
STARTCHAR U+0074
ENCODING 116
SWIDTH 500 0
DWIDTH 8 0
BBX 6 12 0 0
BITMAP
20
20
20
FC
20
20
20
20
20
20
10
0C
ENDCHAR
STARTCHAR U+0075
ENCODING 117
SWIDTH 500 0
DWIDTH 8 0
BBX 7 9 0 0
BITMAP
82
82
82
82
82
82
82
44
38
ENDCHAR
STARTCHAR U+0076
ENCODING 118
SWIDTH 500 0
DWIDTH 8 0
BBX 7 9 0 0
BITMAP
82
82
82
82
84
84
88
90
60
ENDCHAR
STARTCHAR U+0077
ENCODING 119
SWIDTH 500 0
DWIDTH 8 0
BBX 7 9 0 0
BITMAP
92
92
92
92
92
92
92
92
6C
ENDCHAR
STARTCHAR U+0078
ENCODING 120
SWIDTH 500 0
DWIDTH 8 0
BBX 7 9 0 0
BITMAP
C6
28
28
10
10
10
28
28
C6
ENDCHAR
STARTCHAR U+0079
ENCODING 121
SWIDTH 500 0
DWIDTH 8 0
BBX 7 11 0 -2
BITMAP
82
82
82
82
82
82
46
3A
02
84
78
ENDCHAR
STARTCHAR U+007A
ENCODING 122
SWIDTH 500 0
DWIDTH 8 0
BBX 7 9 0 0
BITMAP
FC
02
04
18
20
40
80
80
7E
ENDCHAR
STARTCHAR U+007B
ENCODING 123
SWIDTH 500 0
DWIDTH 8 0
BBX 6 15 1 -1
BITMAP
04
08
10
20
20
20
20
C0
20
20
20
20
10
08
04
ENDCHAR
STARTCHAR U+007C
ENCODING 124
SWIDTH 500 0
DWIDTH 8 0
BBX 1 16 3 -2
BITMAP
80
80
80
80
80
80
80
80
80
80
80
80
80
80
80
80
ENDCHAR
STARTCHAR U+007D
ENCODING 125
SWIDTH 500 0
DWIDTH 8 0
BBX 6 15 1 -1
BITMAP
80
40
20
10
10
10
10
0C
10
10
10
10
20
40
80
ENDCHAR
STARTCHAR U+007E
ENCODING 126
SWIDTH 500 0
DWIDTH 8 0
BBX 7 2 0 11
BITMAP
72
8C
ENDCHAR
STARTCHAR U+00A0
ENCODING 160
SWIDTH 500 0
DWIDTH 8 0
BBX 0 0 0 0
BITMAP
ENDCHAR
STARTCHAR U+00A1
ENCODING 161
SWIDTH 500 0
DWIDTH 8 0
BBX 1 12 3 -2
BITMAP
80
80
80
00
00
80
80
80
80
80
80
80
ENDCHAR
STARTCHAR U+00A2
ENCODING 162
SWIDTH 1000 0
DWIDTH 16 0
BBX 7 14 4 -2
BITMAP
04
04
04
04
3C
4A
8A
88
90
90
52
3C
20
20
ENDCHAR
STARTCHAR U+00A3
ENCODING 163
SWIDTH 1000 0
DWIDTH 16 0
BBX 11 13 2 -1
BITMAP
0F00
1080
2000
2000
1000
FF80
1000
0800
0820
6820
9820
9640
6180
ENDCHAR
STARTCHAR U+00A4
ENCODING 164
SWIDTH 500 0
DWIDTH 8 0
BBX 7 7 0 2
BITMAP
BA
44
82
82
82
44
BA
ENDCHAR
STARTCHAR U+00A5
ENCODING 165
SWIDTH 500 0
DWIDTH 8 0
BBX 7 12 0 0
BITMAP
82
82
82
44
38
10
FE
10
FE
10
10
10
ENDCHAR
STARTCHAR U+00A6
ENCODING 166
SWIDTH 500 0
DWIDTH 8 0
BBX 1 12 3 0
BITMAP
80
80
80
80
80
00
00
80
80
80
80
80
ENDCHAR
STARTCHAR U+00A7
ENCODING 167
SWIDTH 1000 0
DWIDTH 16 0
BBX 7 15 4 -1
BITMAP
38
44
82
82
40
30
4C
82
64
18
04
82
82
44
38
ENDCHAR
STARTCHAR U+00A8
ENCODING 168
SWIDTH 1000 0
DWIDTH 16 0
BBX 6 2 4 12
BITMAP
CC
CC
ENDCHAR
STARTCHAR U+00A9
ENCODING 169
SWIDTH 1000 0
DWIDTH 16 0
BBX 15 16 0 -2
BITMAP
07C0
1830
2008
47C4
4824
8822
9002
9002
9002
9002
8822
4824
47C4
2008
1830
07C0
ENDCHAR
STARTCHAR U+00AA
ENCODING 170
SWIDTH 500 0
DWIDTH 8 0
BBX 5 8 1 6
BITMAP
28
58
88
88
58
28
00
F8
ENDCHAR
STARTCHAR U+00AB
ENCODING 171
SWIDTH 500 0
DWIDTH 8 0
BBX 7 7 0 3
BITMAP
12
24
48
90
48
24
12
ENDCHAR
STARTCHAR U+00AC
ENCODING 172
SWIDTH 1000 0
DWIDTH 16 0
BBX 11 5 2 3
BITMAP
FFE0
0020
0020
0020
0020
ENDCHAR
STARTCHAR U+00AD
ENCODING 173
SWIDTH 500 0
DWIDTH 8 0
BBX 7 1 0 6
BITMAP
FE
ENDCHAR
STARTCHAR U+00AE
ENCODING 174
SWIDTH 1000 0
DWIDTH 16 0
BBX 15 16 0 -2
BITMAP
07C0
1830
2008
4784
4844
8822
8822
8842
8F82
8842
8842
4824
4824
2008
1830
07C0
ENDCHAR
STARTCHAR U+00AF
ENCODING 175
SWIDTH 500 0
DWIDTH 8 0
BBX 7 1 0 12
BITMAP
FE
ENDCHAR
STARTCHAR U+00B0
ENCODING 176
SWIDTH 1000 0
DWIDTH 16 0
BBX 5 5 0 9
BITMAP
70
88
88
88
70
ENDCHAR
STARTCHAR U+00B1
ENCODING 177
SWIDTH 1000 0
DWIDTH 16 0
BBX 11 12 2 1
BITMAP
0400
0400
0400
0400
FFE0
0400
0400
0400
0400
0000
0000
FFE0
ENDCHAR
STARTCHAR U+00B2
ENCODING 178
SWIDTH 500 0
DWIDTH 8 0
BBX 6 6 1 8
BITMAP
78
84
18
60
80
7C
ENDCHAR
STARTCHAR U+00B3
ENCODING 179
SWIDTH 500 0
DWIDTH 8 0
BBX 6 6 1 8
BITMAP
78
84
38
04
84
78
ENDCHAR
STARTCHAR U+00B4
ENCODING 180
SWIDTH 1000 0
DWIDTH 16 0
BBX 3 3 6 11
BITMAP
60
40
80
ENDCHAR
STARTCHAR U+00B5
ENCODING 181
SWIDTH 500 0
DWIDTH 8 0
BBX 7 11 0 -2
BITMAP
82
82
82
82
82
82
82
C4
B8
80
80
ENDCHAR
STARTCHAR U+00B6
ENCODING 182
SWIDTH 1000 0
DWIDTH 16 0
BBX 9 14 2 -1
BITMAP
3F80
7880
F880
F880
7880
3880
0880
0880
0880
0880
0880
0880
0880
0880
ENDCHAR
STARTCHAR U+00B7
ENCODING 183
SWIDTH 500 0
DWIDTH 8 0
BBX 2 2 3 5
BITMAP
C0
C0
ENDCHAR
STARTCHAR U+00B8
ENCODING 184
SWIDTH 500 0
DWIDTH 8 0
BBX 4 2 0 -2
BITMAP
10
E0
ENDCHAR
STARTCHAR U+00B9
ENCODING 185
SWIDTH 500 0
DWIDTH 8 0
BBX 3 6 2 8
BITMAP
C0
20
20
20
20
20
ENDCHAR
STARTCHAR U+00BA
ENCODING 186
SWIDTH 500 0
DWIDTH 8 0
BBX 6 8 1 6
BITMAP
30
48
84
84
48
30
00
FC
ENDCHAR
STARTCHAR U+00BB
ENCODING 187
SWIDTH 500 0
DWIDTH 8 0
BBX 7 7 0 3
BITMAP
90
48
24
12
24
48
90
ENDCHAR
STARTCHAR U+00BC
ENCODING 188
SWIDTH 500 0
DWIDTH 8 0
BBX 8 16 0 -2
BITMAP
30
08
08
08
08
08
03
0C
30
C0
08
14
24
44
3E
04
ENDCHAR
STARTCHAR U+00BD
ENCODING 189
SWIDTH 500 0
DWIDTH 8 0
BBX 8 16 0 -2
BITMAP
30
08
08
08
08
08
03
0C
30
C0
3C
42
0C
30
40
3E
ENDCHAR
STARTCHAR U+00BE
ENCODING 190
SWIDTH 500 0
DWIDTH 8 0
BBX 8 16 0 -2
BITMAP
3C
42
1C
02
42
3C
03
0C
30
C0
08
14
24
44
3E
04
ENDCHAR
STARTCHAR U+00BF
ENCODING 191
SWIDTH 500 0
DWIDTH 8 0
BBX 7 12 0 -2
BITMAP
10
10
10
00
10
10
20
40
82
82
44
38
ENDCHAR
STARTCHAR U+00C0
ENCODING 192
SWIDTH 500 0
DWIDTH 8 0
BBX 7 14 0 0
BITMAP
60
1C
00
38
44
82
82
82
FE
82
82
82
82
82
ENDCHAR
STARTCHAR U+00C1
ENCODING 193
SWIDTH 500 0
DWIDTH 8 0
BBX 7 14 0 0
BITMAP
0C
70
00
38
44
82
82
82
82
FE
82
82
82
82
ENDCHAR
STARTCHAR U+00C2
ENCODING 194
SWIDTH 500 0
DWIDTH 8 0
BBX 7 14 0 0
BITMAP
38
44
00
38
44
82
82
82
82
FE
82
82
82
82
ENDCHAR
STARTCHAR U+00C3
ENCODING 195
SWIDTH 500 0
DWIDTH 8 0
BBX 7 14 0 0
BITMAP
72
8C
00
38
44
82
82
82
82
FE
82
82
82
82
ENDCHAR
STARTCHAR U+00C4
ENCODING 196
SWIDTH 500 0
DWIDTH 8 0
BBX 7 14 0 0
BITMAP
44
44
00
38
44
82
82
82
82
FE
82
82
82
82
ENDCHAR
STARTCHAR U+00C5
ENCODING 197
SWIDTH 500 0
DWIDTH 8 0
BBX 7 14 0 0
BITMAP
38
44
44
38
44
82
82
82
82
FE
82
82
82
82
ENDCHAR
STARTCHAR U+00C6
ENCODING 198
SWIDTH 500 0
DWIDTH 8 0
BBX 7 12 0 0
BITMAP
3E
50
90
90
90
FE
90
90
90
90
90
8E
ENDCHAR
STARTCHAR U+00C7
ENCODING 199
SWIDTH 500 0
DWIDTH 8 0
BBX 7 14 0 -2
BITMAP
3C
42
42
80
80
80
80
80
82
42
42
3C
10
E0
ENDCHAR
STARTCHAR U+00C8
ENCODING 200
SWIDTH 500 0
DWIDTH 8 0
BBX 7 14 0 0
BITMAP
60
1C
00
7E
80
80
80
80
FE
80
80
80
80
7E
ENDCHAR
STARTCHAR U+00C9
ENCODING 201
SWIDTH 500 0
DWIDTH 8 0
BBX 7 14 0 0
BITMAP
0C
70
00
7E
80
80
80
80
FE
80
80
80
80
7E
ENDCHAR
STARTCHAR U+00CA
ENCODING 202
SWIDTH 500 0
DWIDTH 8 0
BBX 7 14 0 0
BITMAP
38
44
00
7E
80
80
80
80
FE
80
80
80
80
7E
ENDCHAR
STARTCHAR U+00CB
ENCODING 203
SWIDTH 500 0
DWIDTH 8 0
BBX 7 14 0 0
BITMAP
44
44
00
7E
80
80
80
80
FE
80
80
80
80
7E
ENDCHAR
STARTCHAR U+00CC
ENCODING 204
SWIDTH 500 0
DWIDTH 8 0
BBX 5 14 1 0
BITMAP
C0
38
00
20
20
20
20
20
20
20
20
20
20
20
ENDCHAR
STARTCHAR U+00CD
ENCODING 205
SWIDTH 500 0
DWIDTH 8 0
BBX 5 14 1 0
BITMAP
18
E0
00
20
20
20
20
20
20
20
20
20
20
20
ENDCHAR
STARTCHAR U+00CE
ENCODING 206
SWIDTH 500 0
DWIDTH 8 0
BBX 5 14 1 0
BITMAP
70
88
00
20
20
20
20
20
20
20
20
20
20
20
ENDCHAR
STARTCHAR U+00CF
ENCODING 207
SWIDTH 500 0
DWIDTH 8 0
BBX 5 14 1 0
BITMAP
88
88
00
20
20
20
20
20
20
20
20
20
20
20
ENDCHAR
STARTCHAR U+00D0
ENCODING 208
SWIDTH 500 0
DWIDTH 8 0
BBX 7 12 0 0
BITMAP
70
88
84
82
82
E2
82
82
82
84
88
70
ENDCHAR
STARTCHAR U+00D1
ENCODING 209
SWIDTH 500 0
DWIDTH 8 0
BBX 7 14 0 0
BITMAP
72
8C
00
38
44
82
82
82
82
82
82
82
82
82
ENDCHAR
STARTCHAR U+00D2
ENCODING 210
SWIDTH 500 0
DWIDTH 8 0
BBX 7 14 0 0
BITMAP
60
1C
00
38
44
82
82
82
82
82
82
82
44
38
ENDCHAR
STARTCHAR U+00D3
ENCODING 211
SWIDTH 500 0
DWIDTH 8 0
BBX 7 14 0 0
BITMAP
0C
70
00
38
44
82
82
82
82
82
82
82
44
38
ENDCHAR
STARTCHAR U+00D4
ENCODING 212
SWIDTH 500 0
DWIDTH 8 0
BBX 7 14 0 0
BITMAP
38
44
00
38
44
82
82
82
82
82
82
82
44
38
ENDCHAR
STARTCHAR U+00D5
ENCODING 213
SWIDTH 500 0
DWIDTH 8 0
BBX 7 14 0 0
BITMAP
72
8C
00
38
44
82
82
82
82
82
82
82
44
38
ENDCHAR
STARTCHAR U+00D6
ENCODING 214
SWIDTH 500 0
DWIDTH 8 0
BBX 7 14 0 0
BITMAP
44
44
00
38
44
82
82
82
82
82
82
82
44
38
ENDCHAR
STARTCHAR U+00D7
ENCODING 215
SWIDTH 1000 0
DWIDTH 16 0
BBX 9 10 3 1
BITMAP
8080
4100
2200
1400
0800
0800
1400
2200
4100
8080
ENDCHAR
STARTCHAR U+00D8
ENCODING 216
SWIDTH 500 0
DWIDTH 8 0
BBX 7 16 0 -2
BITMAP
02
02
3C
44
8A
8A
8A
92
92
A2
A2
A2
44
78
80
80
ENDCHAR
STARTCHAR U+00D9
ENCODING 217
SWIDTH 500 0
DWIDTH 8 0
BBX 7 14 0 0
BITMAP
60
1C
00
82
82
82
82
82
82
82
82
82
44
38
ENDCHAR
STARTCHAR U+00DA
ENCODING 218
SWIDTH 500 0
DWIDTH 8 0
BBX 7 14 0 0
BITMAP
0C
70
00
82
82
82
82
82
82
82
82
82
44
38
ENDCHAR
STARTCHAR U+00DB
ENCODING 219
SWIDTH 500 0
DWIDTH 8 0
BBX 7 14 0 0
BITMAP
38
44
00
82
82
82
82
82
82
82
82
82
44
38
ENDCHAR
STARTCHAR U+00DC
ENCODING 220
SWIDTH 500 0
DWIDTH 8 0
BBX 7 14 0 0
BITMAP
44
44
00
82
82
82
82
82
82
82
82
82
44
38
ENDCHAR
STARTCHAR U+00DD
ENCODING 221
SWIDTH 500 0
DWIDTH 8 0
BBX 7 14 0 0
BITMAP
0C
70
00
82
82
82
82
44
38
10
10
10
10
10
ENDCHAR
STARTCHAR U+00DE
ENCODING 222
SWIDTH 500 0
DWIDTH 8 0
BBX 7 12 0 0
BITMAP
80
80
F8
84
82
82
82
84
F8
80
80
80
ENDCHAR
STARTCHAR U+00DF
ENCODING 223
SWIDTH 500 0
DWIDTH 8 0
BBX 7 12 0 0
BITMAP
38
44
82
82
84
B8
84
82
82
82
A4
98
ENDCHAR
STARTCHAR U+00E0
ENCODING 224
SWIDTH 500 0
DWIDTH 8 0
BBX 7 13 0 0
BITMAP
60
1C
00
00
3A
46
82
82
82
82
82
46
3A
ENDCHAR
STARTCHAR U+00E1
ENCODING 225
SWIDTH 500 0
DWIDTH 8 0
BBX 7 13 0 0
BITMAP
0C
70
00
00
3A
46
82
82
82
82
82
46
3A
ENDCHAR
STARTCHAR U+00E2
ENCODING 226
SWIDTH 500 0
DWIDTH 8 0
BBX 7 13 0 0
BITMAP
38
44
00
00
3A
46
82
82
82
82
82
46
3A
ENDCHAR
STARTCHAR U+00E3
ENCODING 227
SWIDTH 500 0
DWIDTH 8 0
BBX 7 13 0 0
BITMAP
72
8C
00
00
3A
46
82
82
82
82
82
46
3A
ENDCHAR
STARTCHAR U+00E4
ENCODING 228
SWIDTH 500 0
DWIDTH 8 0
BBX 7 13 0 0
BITMAP
44
44
00
00
3A
46
82
82
82
82
82
46
3A
ENDCHAR
STARTCHAR U+00E5
ENCODING 229
SWIDTH 500 0
DWIDTH 8 0
BBX 7 14 0 0
BITMAP
38
44
44
38
00
3A
46
82
82
82
82
82
46
3A
ENDCHAR
STARTCHAR U+00E6
ENCODING 230
SWIDTH 500 0
DWIDTH 8 0
BBX 7 9 0 0
BITMAP
6C
92
12
12
7C
90
92
92
6C
ENDCHAR
STARTCHAR U+00E7
ENCODING 231
SWIDTH 500 0
DWIDTH 8 0
BBX 7 11 0 -2
BITMAP
38
44
82
80
80
80
82
44
38
10
E0
ENDCHAR
STARTCHAR U+00E8
ENCODING 232
SWIDTH 500 0
DWIDTH 8 0
BBX 7 13 0 0
BITMAP
60
1C
00
00
38
44
82
82
FE
80
80
42
3C
ENDCHAR
STARTCHAR U+00E9
ENCODING 233
SWIDTH 500 0
DWIDTH 8 0
BBX 7 13 0 0
BITMAP
0C
70
00
00
38
44
82
82
FE
80
80
42
3C
ENDCHAR
STARTCHAR U+00EA
ENCODING 234
SWIDTH 500 0
DWIDTH 8 0
BBX 7 13 0 0
BITMAP
38
44
00
00
38
44
82
82
FE
80
80
42
3C
ENDCHAR
STARTCHAR U+00EB
ENCODING 235
SWIDTH 500 0
DWIDTH 8 0
BBX 7 13 0 0
BITMAP
44
44
00
00
38
44
82
82
FE
80
80
42
3C
ENDCHAR
STARTCHAR U+00EC
ENCODING 236
SWIDTH 500 0
DWIDTH 8 0
BBX 5 13 1 0
BITMAP
C0
38
00
00
20
20
20
20
20
20
20
20
20
ENDCHAR
STARTCHAR U+00ED
ENCODING 237
SWIDTH 500 0
DWIDTH 8 0
BBX 5 13 1 0
BITMAP
18
E0
00
00
20
20
20
20
20
20
20
20
20
ENDCHAR
STARTCHAR U+00EE
ENCODING 238
SWIDTH 500 0
DWIDTH 8 0
BBX 5 13 1 0
BITMAP
70
88
00
00
20
20
20
20
20
20
20
20
20
ENDCHAR
STARTCHAR U+00EF
ENCODING 239
SWIDTH 500 0
DWIDTH 8 0
BBX 5 13 1 0
BITMAP
88
88
00
00
20
20
20
20
20
20
20
20
20
ENDCHAR
STARTCHAR U+00F0
ENCODING 240
SWIDTH 500 0
DWIDTH 8 0
BBX 7 14 0 0
BITMAP
72
0C
34
C2
02
3A
46
82
82
82
82
82
44
38
ENDCHAR
STARTCHAR U+00F1
ENCODING 241
SWIDTH 500 0
DWIDTH 8 0
BBX 7 13 0 0
BITMAP
72
8C
00
00
38
44
82
82
82
82
82
82
82
ENDCHAR
STARTCHAR U+00F2
ENCODING 242
SWIDTH 500 0
DWIDTH 8 0
BBX 7 13 0 0
BITMAP
60
1C
00
00
38
44
82
82
82
82
82
44
38
ENDCHAR
STARTCHAR U+00F3
ENCODING 243
SWIDTH 500 0
DWIDTH 8 0
BBX 7 13 0 0
BITMAP
0C
70
00
00
38
44
82
82
82
82
82
44
38
ENDCHAR
STARTCHAR U+00F4
ENCODING 244
SWIDTH 500 0
DWIDTH 8 0
BBX 7 13 0 0
BITMAP
38
44
00
00
38
44
82
82
82
82
82
44
38
ENDCHAR
STARTCHAR U+00F5
ENCODING 245
SWIDTH 500 0
DWIDTH 8 0
BBX 7 13 0 0
BITMAP
72
8C
00
00
38
44
82
82
82
82
82
44
38
ENDCHAR
STARTCHAR U+00F6
ENCODING 246
SWIDTH 500 0
DWIDTH 8 0
BBX 7 13 0 0
BITMAP
44
44
00
00
38
44
82
82
82
82
82
44
38
ENDCHAR
STARTCHAR U+00F7
ENCODING 247
SWIDTH 1000 0
DWIDTH 16 0
BBX 11 11 2 1
BITMAP
0400
0E00
0400
0000
0000
FFE0
0000
0000
0400
0E00
0400
ENDCHAR
STARTCHAR U+00F8
ENCODING 248
SWIDTH 500 0
DWIDTH 8 0
BBX 7 11 0 -1
BITMAP
02
3A
44
8A
8A
92
A2
A2
44
B8
80
ENDCHAR
STARTCHAR U+00F9
ENCODING 249
SWIDTH 500 0
DWIDTH 8 0
BBX 7 13 0 0
BITMAP
60
1C
00
00
82
82
82
82
82
82
82
44
38
ENDCHAR
STARTCHAR U+00FA
ENCODING 250
SWIDTH 500 0
DWIDTH 8 0
BBX 7 13 0 0
BITMAP
0C
70
00
00
82
82
82
82
82
82
82
44
38
ENDCHAR
STARTCHAR U+00FB
ENCODING 251
SWIDTH 500 0
DWIDTH 8 0
BBX 7 13 0 0
BITMAP
38
44
00
00
82
82
82
82
82
82
82
44
38
ENDCHAR
STARTCHAR U+00FC
ENCODING 252
SWIDTH 500 0
DWIDTH 8 0
BBX 7 13 0 0
BITMAP
44
44
00
00
82
82
82
82
82
82
82
44
38
ENDCHAR
STARTCHAR U+00FD
ENCODING 253
SWIDTH 500 0
DWIDTH 8 0
BBX 7 15 0 -2
BITMAP
0C
70
00
00
82
82
82
82
82
82
46
3A
02
84
78
ENDCHAR
STARTCHAR U+00FE
ENCODING 254
SWIDTH 500 0
DWIDTH 8 0
BBX 7 16 0 -2
BITMAP
80
80
80
80
80
B8
C4
82
82
82
82
82
C4
B8
80
80
ENDCHAR
STARTCHAR U+00FF
ENCODING 255
SWIDTH 500 0
DWIDTH 8 0
BBX 7 15 0 -2
BITMAP
44
44
00
00
82
82
82
82
82
82
46
3A
02
84
78
ENDCHAR
STARTCHAR U+0101
ENCODING 257
SWIDTH 500 0
DWIDTH 8 0
BBX 7 12 0 0
BITMAP
7C
00
00
3A
46
82
82
82
82
82
46
3A
ENDCHAR
STARTCHAR U+0113
ENCODING 275
SWIDTH 500 0
DWIDTH 8 0
BBX 7 12 0 0
BITMAP
7C
00
00
38
44
82
82
FE
80
80
42
3C
ENDCHAR
STARTCHAR U+011B
ENCODING 283
SWIDTH 500 0
DWIDTH 8 0
BBX 7 13 0 0
BITMAP
44
28
10
00
38
44
82
82
FE
80
80
42
3C
ENDCHAR
STARTCHAR U+012B
ENCODING 299
SWIDTH 500 0
DWIDTH 8 0
BBX 5 12 1 0
BITMAP
F8
00
00
20
20
20
20
20
20
20
20
20
ENDCHAR
STARTCHAR U+014D
ENCODING 333
SWIDTH 500 0
DWIDTH 8 0
BBX 7 12 0 0
BITMAP
7C
00
00
38
44
82
82
82
82
82
44
38
ENDCHAR
STARTCHAR U+016B
ENCODING 363
SWIDTH 500 0
DWIDTH 8 0
BBX 7 12 0 0
BITMAP
7C
00
00
82
82
82
82
82
82
82
44
38
ENDCHAR
STARTCHAR U+01CE
ENCODING 462
SWIDTH 500 0
DWIDTH 8 0
BBX 7 13 0 0
BITMAP
44
28
10
00
3A
46
82
82
82
82
82
46
3A
ENDCHAR
STARTCHAR U+01D0
ENCODING 464
SWIDTH 500 0
DWIDTH 8 0
BBX 5 13 1 0
BITMAP
88
50
20
00
20
20
20
20
20
20
20
20
20
ENDCHAR
STARTCHAR U+01D2
ENCODING 466
SWIDTH 500 0
DWIDTH 8 0
BBX 7 13 0 0
BITMAP
44
28
10
00
38
44
82
82
82
82
82
44
38
ENDCHAR
STARTCHAR U+01D4
ENCODING 468
SWIDTH 500 0
DWIDTH 8 0
BBX 7 13 0 0
BITMAP
44
28
10
00
82
82
82
82
82
82
82
44
38
ENDCHAR
STARTCHAR U+01D6
ENCODING 470
SWIDTH 500 0
DWIDTH 8 0
BBX 7 13 0 0
BITMAP
7C
00
44
00
82
82
82
82
82
82
82
44
38
ENDCHAR
STARTCHAR U+01D8
ENCODING 472
SWIDTH 500 0
DWIDTH 8 0
BBX 7 14 0 0
BITMAP
0C
70
00
44
00
82
82
82
82
82
82
82
44
38
ENDCHAR
STARTCHAR U+01DA
ENCODING 474
SWIDTH 500 0
DWIDTH 8 0
BBX 7 14 0 0
BITMAP
44
28
10
44
00
82
82
82
82
82
82
82
44
38
ENDCHAR
STARTCHAR U+01DC
ENCODING 476
SWIDTH 500 0
DWIDTH 8 0
BBX 7 14 0 0
BITMAP
60
1C
00
44
00
82
82
82
82
82
82
82
44
38
ENDCHAR
STARTCHAR U+02C7
ENCODING 711
SWIDTH 500 0
DWIDTH 8 0
BBX 5 3 1 11
BITMAP
88
50
20
ENDCHAR
STARTCHAR U+02C9
ENCODING 713
SWIDTH 500 0
DWIDTH 8 0
BBX 5 1 1 12
BITMAP
F8
ENDCHAR
STARTCHAR U+02CA
ENCODING 714
SWIDTH 500 0
DWIDTH 8 0
BBX 5 2 1 12
BITMAP
18
E0
ENDCHAR
STARTCHAR U+02CB
ENCODING 715
SWIDTH 500 0
DWIDTH 8 0
BBX 5 2 1 12
BITMAP
C0
38
ENDCHAR
STARTCHAR U+0391
ENCODING 913
SWIDTH 1000 0
DWIDTH 16 0
BBX 9 12 3 0
BITMAP
1C00
2200
4100
8080
8080
8080
8080
FF80
8080
8080
8080
8080
ENDCHAR
STARTCHAR U+0392
ENCODING 914
SWIDTH 1000 0
DWIDTH 16 0
BBX 9 12 3 0
BITMAP
7C00
8200
8100
8100
8200
FE00
8100
8080
8080
8080
8100
7E00
ENDCHAR
STARTCHAR U+0393
ENCODING 915
SWIDTH 1000 0
DWIDTH 16 0
BBX 8 12 4 0
BITMAP
7F
80
80
80
80
80
80
80
80
80
80
80
ENDCHAR
STARTCHAR U+0394
ENCODING 916
SWIDTH 1000 0
DWIDTH 16 0
BBX 11 12 2 0
BITMAP
0400
0400
0A00
0A00
1100
1100
2080
2080
4040
4040
8020
FFE0
ENDCHAR
STARTCHAR U+0395
ENCODING 917
SWIDTH 1000 0
DWIDTH 16 0
BBX 8 12 4 0
BITMAP
7F
80
80
80
80
FF
80
80
80
80
80
7F
ENDCHAR
STARTCHAR U+0396
ENCODING 918
SWIDTH 1000 0
DWIDTH 16 0
BBX 9 12 4 0
BITMAP
FE00
0100
0200
0400
0800
1000
2000
4000
4000
8000
8000
7F80
ENDCHAR
STARTCHAR U+0397
ENCODING 919
SWIDTH 1000 0
DWIDTH 16 0
BBX 8 12 4 0
BITMAP
81
81
81
81
81
FF
81
81
81
81
81
81
ENDCHAR
STARTCHAR U+0398
ENCODING 920
SWIDTH 1000 0
DWIDTH 16 0
BBX 11 12 2 0
BITMAP
1F00
2080
4040
8020
8020
9F20
8020
8020
8020
4040
2080
1F00
ENDCHAR
STARTCHAR U+0399
ENCODING 921
SWIDTH 1000 0
DWIDTH 16 0
BBX 1 12 7 0
BITMAP
80
80
80
80
80
80
80
80
80
80
80
80
ENDCHAR
STARTCHAR U+039A
ENCODING 922
SWIDTH 1000 0
DWIDTH 16 0
BBX 8 12 3 0
BITMAP
81
81
81
82
84
F8
84
82
82
81
81
81
ENDCHAR
STARTCHAR U+039B
ENCODING 923
SWIDTH 1000 0
DWIDTH 16 0
BBX 9 12 3 0
BITMAP
1C00
2200
4100
8080
8080
8080
8080
8080
8080
8080
8080
8080
ENDCHAR
STARTCHAR U+039C
ENCODING 924
SWIDTH 1000 0
DWIDTH 16 0
BBX 11 12 2 0
BITMAP
3180
4A40
8420
8420
8420
8420
8420
8420
8420
8420
8420
8420
ENDCHAR
STARTCHAR U+039D
ENCODING 925
SWIDTH 1000 0
DWIDTH 16 0
BBX 9 12 3 0
BITMAP
6080
9080
9080
9080
8880
8880
8880
8880
8480
8480
8480
8300
ENDCHAR
STARTCHAR U+039E
ENCODING 926
SWIDTH 1000 0
DWIDTH 16 0
BBX 11 12 2 0
BITMAP
FFE0
0000
0000
0000
0000
7FC0
0000
0000
0000
0000
0000
FFE0
ENDCHAR
STARTCHAR U+039F
ENCODING 927
SWIDTH 1000 0
DWIDTH 16 0
BBX 11 12 2 0
BITMAP
1F00
2080
4040
8020
8020
8020
8020
8020
8020
4040
2080
1F00
ENDCHAR
STARTCHAR U+03A0
ENCODING 928
SWIDTH 1000 0
DWIDTH 16 0
BBX 8 12 4 0
BITMAP
3C
42
81
81
81
81
81
81
81
81
81
81
ENDCHAR
STARTCHAR U+03A1
ENCODING 929
SWIDTH 1000 0
DWIDTH 16 0
BBX 8 12 4 0
BITMAP
7C
82
81
81
81
82
FC
80
80
80
80
80
ENDCHAR
STARTCHAR U+03A3
ENCODING 931
SWIDTH 1000 0
DWIDTH 16 0
BBX 10 12 3 0
BITMAP
7FC0
8000
4000
2000
1000
0800
1000
2000
4000
8000
8000
7FC0
ENDCHAR
STARTCHAR U+03A4
ENCODING 932
SWIDTH 1000 0
DWIDTH 16 0
BBX 11 12 2 0
BITMAP
FFE0
0400
0400
0400
0400
0400
0400
0400
0400
0400
0400
0400
ENDCHAR
STARTCHAR U+03A5
ENCODING 933
SWIDTH 1000 0
DWIDTH 16 0
BBX 11 12 2 0
BITMAP
71C0
8A20
8420
0400
0400
0400
0400
0400
0400
0400
0400
0400
ENDCHAR
STARTCHAR U+03A6
ENCODING 934
SWIDTH 1000 0
DWIDTH 16 0
BBX 11 12 2 0
BITMAP
0400
0400
1F00
2480
4440
8420
8420
4440
2480
1F00
0400
0400
ENDCHAR
STARTCHAR U+03A7
ENCODING 935
SWIDTH 1000 0
DWIDTH 16 0
BBX 11 12 2 0
BITMAP
C060
3180
0A00
0A00
0400
0400
0400
0400
0A00
0A00
3180
C060
ENDCHAR
STARTCHAR U+03A8
ENCODING 936
SWIDTH 1000 0
DWIDTH 16 0
BBX 11 12 2 0
BITMAP
0400
0400
8420
8420
8420
4440
2480
1F00
0400
0400
0400
0400
ENDCHAR
STARTCHAR U+03A9
ENCODING 937
SWIDTH 1000 0
DWIDTH 16 0
BBX 11 12 2 0
BITMAP
1F00
2080
4040
4040
8020
8020
4040
4040
2080
1100
1100
E0E0
ENDCHAR
STARTCHAR U+03B1
ENCODING 945
SWIDTH 1000 0
DWIDTH 16 0
BBX 9 8 3 0
BITMAP
3880
4480
8300
8200
8200
8200
4600
3980
ENDCHAR
STARTCHAR U+03B2
ENCODING 946
SWIDTH 1000 0
DWIDTH 16 0
BBX 7 14 4 -2
BITMAP
38
44
42
82
84
98
84
82
82
84
B8
80
80
80
ENDCHAR
STARTCHAR U+03B3
ENCODING 947
SWIDTH 1000 0
DWIDTH 16 0
BBX 9 10 4 -2
BITMAP
C380
2400
2800
1000
1000
1000
1000
1000
1000
1000
ENDCHAR
STARTCHAR U+03B4
ENCODING 948
SWIDTH 1000 0
DWIDTH 16 0
BBX 8 12 4 0
BITMAP
3F
40
40
20
18
44
82
82
82
82
44
38
ENDCHAR
STARTCHAR U+03B5
ENCODING 949
SWIDTH 1000 0
DWIDTH 16 0
BBX 7 8 4 0
BITMAP
7E
80
80
7C
40
80
80
7E
ENDCHAR
STARTCHAR U+03B6
ENCODING 950
SWIDTH 1000 0
DWIDTH 16 0
BBX 9 14 3 -2
BITMAP
8000
8000
7F80
0400
0800
1000
2000
4000
8000
8000
7C00
0200
0200
0200
ENDCHAR
STARTCHAR U+03B7
ENCODING 951
SWIDTH 1000 0
DWIDTH 16 0
BBX 8 10 3 -2
BITMAP
DC
22
21
21
21
21
21
01
01
01
ENDCHAR
STARTCHAR U+03B8
ENCODING 952
SWIDTH 1000 0
DWIDTH 16 0
BBX 7 12 4 0
BITMAP
38
44
82
82
82
FE
82
82
82
82
44
38
ENDCHAR
STARTCHAR U+03B9
ENCODING 953
SWIDTH 1000 0
DWIDTH 16 0
BBX 6 8 5 0
BITMAP
80
80
80
80
84
84
48
30
ENDCHAR
STARTCHAR U+03BA
ENCODING 954
SWIDTH 1000 0
DWIDTH 16 0
BBX 7 8 4 0
BITMAP
86
88
90
A0
D0
88
88
86
ENDCHAR
STARTCHAR U+03BB
ENCODING 955
SWIDTH 1000 0
DWIDTH 16 0
BBX 9 12 3 0
BITMAP
1800
0400
0400
0400
0400
0400
0400
0C00
1400
2400
4200
8180
ENDCHAR
STARTCHAR U+03BC
ENCODING 956
SWIDTH 1000 0
DWIDTH 16 0
BBX 8 10 4 -2
BITMAP
84
84
84
84
84
CC
B3
80
80
80
ENDCHAR
STARTCHAR U+03BD
ENCODING 957
SWIDTH 1000 0
DWIDTH 16 0
BBX 7 8 4 0
BITMAP
82
82
82
84
84
88
90
60
ENDCHAR
STARTCHAR U+03BE
ENCODING 958
SWIDTH 1000 0
DWIDTH 16 0
BBX 7 14 4 -2
BITMAP
3C
40
7E
80
80
80
7E
80
80
80
7C
02
02
02
ENDCHAR
STARTCHAR U+03BF
ENCODING 959
SWIDTH 1000 0
DWIDTH 16 0
BBX 7 8 4 0
BITMAP
38
44
82
82
82
82
44
38
ENDCHAR
STARTCHAR U+03C0
ENCODING 960
SWIDTH 1000 0
DWIDTH 16 0
BBX 10 8 3 0
BITMAP
FF80
2200
2200
2200
2200
2200
2200
21C0
ENDCHAR
STARTCHAR U+03C1
ENCODING 961
SWIDTH 1000 0
DWIDTH 16 0
BBX 7 10 4 -2
BITMAP
38
44
82
82
82
C4
B8
80
80
80
ENDCHAR
STARTCHAR U+03C2
ENCODING 962
SWIDTH 1000 0
DWIDTH 16 0
BBX 9 10 3 -2
BITMAP
1F80
2000
4000
8000
8000
8000
7C00
0200
0200
0200
ENDCHAR
STARTCHAR U+03C3
ENCODING 963
SWIDTH 1000 0
DWIDTH 16 0
BBX 9 8 4 0
BITMAP
3F80
4400
8200
8200
8200
8200
4400
3800
ENDCHAR
STARTCHAR U+03C4
ENCODING 964
SWIDTH 1000 0
DWIDTH 16 0
BBX 9 8 3 0
BITMAP
FF80
1000
1000
1000
1000
1080
0900
0600
ENDCHAR
STARTCHAR U+03C5
ENCODING 965
SWIDTH 1000 0
DWIDTH 16 0
BBX 7 8 4 0
BITMAP
82
82
82
82
82
84
44
38
ENDCHAR
STARTCHAR U+03C6
ENCODING 966
SWIDTH 1000 0
DWIDTH 16 0
BBX 9 14 3 -2
BITMAP
0800
0800
0800
0800
3E00
4900
8880
8880
8880
4900
3E00
0800
0800
0800
ENDCHAR
STARTCHAR U+03C7
ENCODING 967
SWIDTH 1000 0
DWIDTH 16 0
BBX 8 10 3 -2
BITMAP
E3
14
08
08
08
08
14
14
22
C1
ENDCHAR
STARTCHAR U+03C8
ENCODING 968
SWIDTH 1000 0
DWIDTH 16 0
BBX 9 14 3 -2
BITMAP
0800
0800
0800
0800
8880
8880
8880
8880
8880
4900
3E00
0800
0800
0800
ENDCHAR
STARTCHAR U+03C9
ENCODING 969
SWIDTH 1000 0
DWIDTH 16 0
BBX 11 7 2 0
BITMAP
8020
8420
8420
8420
8420
4A40
3180
ENDCHAR
STARTCHAR U+0401
ENCODING 1025
SWIDTH 1000 0
DWIDTH 16 0
BBX 8 14 4 0
BITMAP
44
44
00
7F
80
80
80
FE
80
80
80
80
80
7F
ENDCHAR
STARTCHAR U+0410
ENCODING 1040
SWIDTH 1000 0
DWIDTH 16 0
BBX 9 12 3 0
BITMAP
1C00
2200
4100
8080
8080
8080
8080
FF80
8080
8080
8080
8080
ENDCHAR
STARTCHAR U+0411
ENCODING 1041
SWIDTH 1000 0
DWIDTH 16 0
BBX 8 12 4 0
BITMAP
7E
80
80
80
80
FC
82
81
81
81
82
7C
ENDCHAR
STARTCHAR U+0412
ENCODING 1042
SWIDTH 1000 0
DWIDTH 16 0
BBX 8 12 4 0
BITMAP
7C
82
81
81
82
FC
82
81
81
81
82
7C
ENDCHAR
STARTCHAR U+0413
ENCODING 1043
SWIDTH 1000 0
DWIDTH 16 0
BBX 7 12 4 0
BITMAP
7E
80
80
80
80
80
80
80
80
80
80
80
ENDCHAR
STARTCHAR U+0414
ENCODING 1044
SWIDTH 1000 0
DWIDTH 16 0
BBX 10 14 2 -2
BITMAP
0F00
1080
1080
1080
1080
1080
1080
2080
2080
2080
4080
7F80
8040
8040
ENDCHAR
STARTCHAR U+0415
ENCODING 1045
SWIDTH 1000 0
DWIDTH 16 0
BBX 8 12 4 0
BITMAP
7F
80
80
80
FE
80
80
80
80
80
80
7F
ENDCHAR
STARTCHAR U+0416
ENCODING 1046
SWIDTH 1000 0
DWIDTH 16 0
BBX 11 12 2 0
BITMAP
8420
8420
8420
4440
2480
1F00
2480
4440
8420
8420
8420
8420
ENDCHAR
STARTCHAR U+0417
ENCODING 1047
SWIDTH 1000 0
DWIDTH 16 0
BBX 9 12 3 0
BITMAP
FE00
0100
0080
0080
0100
3E00
0100
0080
0080
0080
0100
FE00
ENDCHAR
STARTCHAR U+0418
ENCODING 1048
SWIDTH 1000 0
DWIDTH 16 0
BBX 9 12 3 0
BITMAP
8300
8480
8480
8480
8880
8880
8880
8880
9080
9080
9080
6080
ENDCHAR
STARTCHAR U+0419
ENCODING 1049
SWIDTH 1000 0
DWIDTH 16 0
BBX 9 14 3 0
BITMAP
2200
1C00
8300
8480
8480
8480
8880
8880
8880
8880
9080
9080
9080
6080
ENDCHAR
STARTCHAR U+041A
ENCODING 1050
SWIDTH 1000 0
DWIDTH 16 0
BBX 9 12 3 0
BITMAP
8380
8400
8800
8800
9000
F800
8400
8200
8100
8100
8080
8080
ENDCHAR
STARTCHAR U+041B
ENCODING 1051
SWIDTH 1000 0
DWIDTH 16 0
BBX 9 12 2 0
BITMAP
0F00
1080
1080
1080
1080
1080
1080
1080
1080
1080
2080
C080
ENDCHAR
STARTCHAR U+041C
ENCODING 1052
SWIDTH 1000 0
DWIDTH 16 0
BBX 11 12 2 0
BITMAP
3180
4A40
8420
8420
8420
8420
8420
8420
8420
8420
8020
8020
ENDCHAR
STARTCHAR U+041D
ENCODING 1053
SWIDTH 1000 0
DWIDTH 16 0
BBX 9 12 3 0
BITMAP
8080
8080
8080
8080
FF80
8080
8080
8080
8080
8080
8080
8080
ENDCHAR
STARTCHAR U+041E
ENCODING 1054
SWIDTH 1000 0
DWIDTH 16 0
BBX 11 12 2 0
BITMAP
1F00
2080
4040
8020
8020
8020
8020
8020
8020
4040
2080
1F00
ENDCHAR
STARTCHAR U+041F
ENCODING 1055
SWIDTH 1000 0
DWIDTH 16 0
BBX 9 12 3 0
BITMAP
7F00
8080
8080
8080
8080
8080
8080
8080
8080
8080
8080
8080
ENDCHAR
STARTCHAR U+0420
ENCODING 1056
SWIDTH 1000 0
DWIDTH 16 0
BBX 8 12 4 0
BITMAP
7C
82
81
81
81
82
FC
80
80
80
80
80
ENDCHAR
STARTCHAR U+0421
ENCODING 1057
SWIDTH 1000 0
DWIDTH 16 0
BBX 10 12 2 0
BITMAP
1F00
2080
4040
8040
8000
8000
8000
8000
8040
4040
2080
1F00
ENDCHAR
STARTCHAR U+0422
ENCODING 1058
SWIDTH 1000 0
DWIDTH 16 0
BBX 11 12 2 0
BITMAP
FFE0
0400
0400
0400
0400
0400
0400
0400
0400
0400
0400
0400
ENDCHAR
STARTCHAR U+0423
ENCODING 1059
SWIDTH 1000 0
DWIDTH 16 0
BBX 9 12 3 0
BITMAP
8080
8080
8080
8080
8080
4180
2280
1C80
0080
0100
0200
7C00
ENDCHAR
STARTCHAR U+0424
ENCODING 1060
SWIDTH 1000 0
DWIDTH 16 0
BBX 11 14 2 -1
BITMAP
0400
0400
1F00
2480
4440
8420
8420
8420
8420
4440
2480
1F00
0400
0400
ENDCHAR
STARTCHAR U+0425
ENCODING 1061
SWIDTH 1000 0
DWIDTH 16 0
BBX 11 12 2 0
BITMAP
C060
3180
0A00
0A00
0400
0400
0400
0400
0A00
0A00
3180
C060
ENDCHAR
STARTCHAR U+0426
ENCODING 1062
SWIDTH 1000 0
DWIDTH 16 0
BBX 10 14 3 -2
BITMAP
8100
8100
8100
8100
8100
8100
8100
8100
8100
8100
4100
3F80
0040
0040
ENDCHAR
STARTCHAR U+0427
ENCODING 1063
SWIDTH 1000 0
DWIDTH 16 0
BBX 8 12 3 0
BITMAP
81
81
81
81
81
81
43
3D
01
01
01
01
ENDCHAR
STARTCHAR U+0428
ENCODING 1064
SWIDTH 1000 0
DWIDTH 16 0
BBX 11 12 2 0
BITMAP
8420
8420
8420
8420
8420
8420
8420
8420
8420
8420
4440
3F80
ENDCHAR
STARTCHAR U+0429
ENCODING 1065
SWIDTH 1000 0
DWIDTH 16 0
BBX 13 14 2 -2
BITMAP
8420
8420
8420
8420
8420
8420
8420
8420
8420
8420
4420
3FF0
0008
0008
ENDCHAR
STARTCHAR U+042A
ENCODING 1066
SWIDTH 1000 0
DWIDTH 16 0
BBX 11 12 2 0
BITMAP
F000
0800
0800
0800
0F80
0840
0820
0820
0820
0820
0440
0380
ENDCHAR
STARTCHAR U+042B
ENCODING 1067
SWIDTH 1000 0
DWIDTH 16 0
BBX 11 12 2 0
BITMAP
8020
8020
8020
8020
F820
8420
8220
8220
8220
8220
4420
3820
ENDCHAR
STARTCHAR U+042C
ENCODING 1068
SWIDTH 1000 0
DWIDTH 16 0
BBX 8 12 4 0
BITMAP
80
80
80
80
FC
82
81
81
81
81
42
3C
ENDCHAR
STARTCHAR U+042D
ENCODING 1069
SWIDTH 1000 0
DWIDTH 16 0
BBX 10 12 3 0
BITMAP
FE00
0100
0080
0080
3040
4940
8640
0040
0080
0080
0100
FE00
ENDCHAR
STARTCHAR U+042E
ENCODING 1070
SWIDTH 1000 0
DWIDTH 16 0
BBX 11 12 2 0
BITMAP
8780
8840
9020
9020
F020
9020
9020
9020
9020
9020
8840
8780
ENDCHAR
STARTCHAR U+042F
ENCODING 1071
SWIDTH 1000 0
DWIDTH 16 0
BBX 9 12 2 0
BITMAP
1F00
2080
4080
4080
2080
1F80
1080
1080
1080
1080
2080
C080
ENDCHAR
STARTCHAR U+0430
ENCODING 1072
SWIDTH 1000 0
DWIDTH 16 0
BBX 7 8 3 0
BITMAP
7C
02
02
7E
82
82
86
7A
ENDCHAR
STARTCHAR U+0431
ENCODING 1073
SWIDTH 1000 0
DWIDTH 16 0
BBX 8 12 3 0
BITMAP
3E
40
80
80
BC
C2
81
81
81
81
42
3C
ENDCHAR
STARTCHAR U+0432
ENCODING 1074
SWIDTH 1000 0
DWIDTH 16 0
BBX 7 8 4 0
BITMAP
7C
82
82
FC
82
82
82
7C
ENDCHAR
STARTCHAR U+0433
ENCODING 1075
SWIDTH 1000 0
DWIDTH 16 0
BBX 7 8 4 0
BITMAP
7E
80
80
80
80
80
80
80
ENDCHAR
STARTCHAR U+0434
ENCODING 1076
SWIDTH 1000 0
DWIDTH 16 0
BBX 9 10 3 -2
BITMAP
0E00
1100
1100
1100
1100
2100
2100
7F00
8080
8080
ENDCHAR
STARTCHAR U+0435
ENCODING 1077
SWIDTH 1000 0
DWIDTH 16 0
BBX 8 8 3 0
BITMAP
3C
42
81
FF
80
80
40
3E
ENDCHAR
STARTCHAR U+0436
ENCODING 1078
SWIDTH 1000 0
DWIDTH 16 0
BBX 9 8 3 0
BITMAP
8880
8880
4900
3E00
2A00
4900
8880
8880
ENDCHAR
STARTCHAR U+0437
ENCODING 1079
SWIDTH 1000 0
DWIDTH 16 0
BBX 7 8 4 0
BITMAP
F8
04
04
78
04
02
02
FC
ENDCHAR
STARTCHAR U+0438
ENCODING 1080
SWIDTH 1000 0
DWIDTH 16 0
BBX 7 8 4 0
BITMAP
8C
92
92
92
92
92
92
62
ENDCHAR
STARTCHAR U+0439
ENCODING 1081
SWIDTH 1000 0
DWIDTH 16 0
BBX 7 12 4 0
BITMAP
44
38
00
00
8C
92
92
92
92
92
92
62
ENDCHAR
STARTCHAR U+043A
ENCODING 1082
SWIDTH 1000 0
DWIDTH 16 0
BBX 7 8 4 0
BITMAP
86
88
90
F0
88
84
82
82
ENDCHAR
STARTCHAR U+043B
ENCODING 1083
SWIDTH 1000 0
DWIDTH 16 0
BBX 8 8 3 0
BITMAP
0E
11
11
11
11
11
21
C1
ENDCHAR
STARTCHAR U+043C
ENCODING 1084
SWIDTH 1000 0
DWIDTH 16 0
BBX 9 8 3 0
BITMAP
7700
8880
8880
8880
8880
8880
8880
8080
ENDCHAR
STARTCHAR U+043D
ENCODING 1085
SWIDTH 1000 0
DWIDTH 16 0
BBX 7 8 4 0
BITMAP
82
82
82
FE
82
82
82
82
ENDCHAR
STARTCHAR U+043E
ENCODING 1086
SWIDTH 1000 0
DWIDTH 16 0
BBX 8 8 3 0
BITMAP
3C
42
81
81
81
81
42
3C
ENDCHAR
STARTCHAR U+043F
ENCODING 1087
SWIDTH 1000 0
DWIDTH 16 0
BBX 7 8 4 0
BITMAP
7C
82
82
82
82
82
82
82
ENDCHAR
STARTCHAR U+0440
ENCODING 1088
SWIDTH 1000 0
DWIDTH 16 0
BBX 7 10 4 -2
BITMAP
38
44
82
82
82
C4
B8
80
80
80
ENDCHAR
STARTCHAR U+0441
ENCODING 1089
SWIDTH 1000 0
DWIDTH 16 0
BBX 8 8 3 0
BITMAP
3C
42
81
80
80
81
42
3C
ENDCHAR
STARTCHAR U+0442
ENCODING 1090
SWIDTH 1000 0
DWIDTH 16 0
BBX 9 8 3 0
BITMAP
FF80
0800
0800
0800
0800
0800
0800
0800
ENDCHAR
STARTCHAR U+0443
ENCODING 1091
SWIDTH 1000 0
DWIDTH 16 0
BBX 7 10 4 -2
BITMAP
82
82
82
82
82
46
3A
02
04
78
ENDCHAR
STARTCHAR U+0444
ENCODING 1092
SWIDTH 1000 0
DWIDTH 16 0
BBX 11 15 2 -2
BITMAP
0400
0400
0400
0400
0400
3580
4E40
8420
8420
8420
4E40
3580
0400
0400
0400
ENDCHAR
STARTCHAR U+0445
ENCODING 1093
SWIDTH 1000 0
DWIDTH 16 0
BBX 9 8 3 0
BITMAP
C180
2200
1400
0800
0800
1400
2200
C180
ENDCHAR
STARTCHAR U+0446
ENCODING 1094
SWIDTH 1000 0
DWIDTH 16 0
BBX 9 10 4 -2
BITMAP
8200
8200
8200
8200
8200
8200
8200
7F00
0080
0080
ENDCHAR
STARTCHAR U+0447
ENCODING 1095
SWIDTH 1000 0
DWIDTH 16 0
BBX 7 8 4 0
BITMAP
82
82
82
86
7A
02
02
02
ENDCHAR
STARTCHAR U+0448
ENCODING 1096
SWIDTH 1000 0
DWIDTH 16 0
BBX 9 8 3 0
BITMAP
8880
8880
8880
8880
8880
8880
8880
7F00
ENDCHAR
STARTCHAR U+0449
ENCODING 1097
SWIDTH 1000 0
DWIDTH 16 0
BBX 10 10 3 -2
BITMAP
8880
8880
8880
8880
8880
8880
8880
7F80
0040
0040
ENDCHAR
STARTCHAR U+044A
ENCODING 1098
SWIDTH 1000 0
DWIDTH 16 0
BBX 10 8 2 0
BITMAP
F000
0800
0800
0F80
0840
0840
0840
0780
ENDCHAR
STARTCHAR U+044B
ENCODING 1099
SWIDTH 1000 0
DWIDTH 16 0
BBX 9 8 3 0
BITMAP
8080
8080
8080
F880
8480
8480
8480
7880
ENDCHAR
STARTCHAR U+044C
ENCODING 1100
SWIDTH 1000 0
DWIDTH 16 0
BBX 6 8 5 0
BITMAP
80
80
80
F8
84
84
84
78
ENDCHAR
STARTCHAR U+044D
ENCODING 1101
SWIDTH 1000 0
DWIDTH 16 0
BBX 7 8 4 0
BITMAP
F8
04
02
66
9A
02
04
F8
ENDCHAR
STARTCHAR U+044E
ENCODING 1102
SWIDTH 1000 0
DWIDTH 16 0
BBX 9 8 3 0
BITMAP
8F00
9080
9080
F080
9080
9080
9080
8F00
ENDCHAR
STARTCHAR U+044F
ENCODING 1103
SWIDTH 1000 0
DWIDTH 16 0
BBX 8 8 3 0
BITMAP
3E
41
41
3F
21
21
21
C1
ENDCHAR
STARTCHAR U+0451
ENCODING 1105
SWIDTH 1000 0
DWIDTH 16 0
BBX 8 11 3 0
BITMAP
24
24
00
3C
42
81
FF
80
80
40
3E
ENDCHAR
STARTCHAR U+2000
ENCODING 8192
SWIDTH 1000 0
DWIDTH 16 0
BBX 0 0 0 0
BITMAP
ENDCHAR
STARTCHAR U+2001
ENCODING 8193
SWIDTH 1000 0
DWIDTH 16 0
BBX 0 0 0 0
BITMAP
ENDCHAR
STARTCHAR U+2002
ENCODING 8194
SWIDTH 1000 0
DWIDTH 16 0
BBX 0 0 0 0
BITMAP
ENDCHAR
STARTCHAR U+2003
ENCODING 8195
SWIDTH 1000 0
DWIDTH 16 0
BBX 0 0 0 0
BITMAP
ENDCHAR
STARTCHAR U+2004
ENCODING 8196
SWIDTH 1000 0
DWIDTH 16 0
BBX 0 0 0 0
BITMAP
ENDCHAR
STARTCHAR U+2005
ENCODING 8197
SWIDTH 1000 0
DWIDTH 16 0
BBX 0 0 0 0
BITMAP
ENDCHAR
STARTCHAR U+2006
ENCODING 8198
SWIDTH 1000 0
DWIDTH 16 0
BBX 0 0 0 0
BITMAP
ENDCHAR
STARTCHAR U+2007
ENCODING 8199
SWIDTH 1000 0
DWIDTH 16 0
BBX 0 0 0 0
BITMAP
ENDCHAR
STARTCHAR U+2008
ENCODING 8200
SWIDTH 1000 0
DWIDTH 16 0
BBX 0 0 0 0
BITMAP
ENDCHAR
STARTCHAR U+2009
ENCODING 8201
SWIDTH 1000 0
DWIDTH 16 0
BBX 0 0 0 0
BITMAP
ENDCHAR
STARTCHAR U+200A
ENCODING 8202
SWIDTH 1000 0
DWIDTH 16 0
BBX 0 0 0 0
BITMAP
ENDCHAR
STARTCHAR U+200B
ENCODING 8203
SWIDTH 500 0
DWIDTH 8 0
BBX 0 0 0 0
BITMAP
ENDCHAR
STARTCHAR U+200C
ENCODING 8204
SWIDTH 500 0
DWIDTH 8 0
BBX 0 0 0 0
BITMAP
ENDCHAR
STARTCHAR U+200D
ENCODING 8205
SWIDTH 500 0
DWIDTH 8 0
BBX 0 0 0 0
BITMAP
ENDCHAR
STARTCHAR U+200E
ENCODING 8206
SWIDTH 500 0
DWIDTH 8 0
BBX 0 0 0 0
BITMAP
ENDCHAR
STARTCHAR U+200F
ENCODING 8207
SWIDTH 500 0
DWIDTH 8 0
BBX 0 0 0 0
BITMAP
ENDCHAR
STARTCHAR U+2010
ENCODING 8208
SWIDTH 1000 0
DWIDTH 16 0
BBX 5 1 5 6
BITMAP
F8
ENDCHAR
STARTCHAR U+2015
ENCODING 8213
SWIDTH 1000 0
DWIDTH 16 0
BBX 15 1 0 6
BITMAP
FFFE
ENDCHAR
STARTCHAR U+2016
ENCODING 8214
SWIDTH 1000 0
DWIDTH 16 0
BBX 5 16 5 -2
BITMAP
88
88
88
88
88
88
88
88
88
88
88
88
88
88
88
88
ENDCHAR
STARTCHAR U+2018
ENCODING 8216
SWIDTH 1000 0
DWIDTH 16 0
BBX 2 5 12 9
BITMAP
40
80
80
C0
40
ENDCHAR
STARTCHAR U+2019
ENCODING 8217
SWIDTH 1000 0
DWIDTH 16 0
BBX 2 5 1 9
BITMAP
80
C0
40
40
80
ENDCHAR
STARTCHAR U+201C
ENCODING 8220
SWIDTH 1000 0
DWIDTH 16 0
BBX 5 5 9 9
BITMAP
48
90
90
D8
48
ENDCHAR
STARTCHAR U+201D
ENCODING 8221
SWIDTH 1000 0
DWIDTH 16 0
BBX 5 5 1 9
BITMAP
90
D8
48
48
90
ENDCHAR
STARTCHAR U+2020
ENCODING 8224
SWIDTH 1000 0
DWIDTH 16 0
BBX 9 16 3 -2
BITMAP
0800
1C00
1C00
0800
4900
FF80
4900
0800
1C00
3E00
1C00
0800
0800
0800
0800
0800
ENDCHAR
STARTCHAR U+2021
ENCODING 8225
SWIDTH 1000 0
DWIDTH 16 0
BBX 9 16 3 -2
BITMAP
1C00
0800
4900
FF80
4900
0800
1C00
0800
0800
1C00
0800
4900
FF80
4900
0800
1C00
ENDCHAR
STARTCHAR U+2025
ENCODING 8229
SWIDTH 1000 0
DWIDTH 16 0
BBX 13 3 1 5
BITMAP
4010
E038
4010
ENDCHAR
STARTCHAR U+2026
ENCODING 8230
SWIDTH 1000 0
DWIDTH 16 0
BBX 15 3 0 5
BITMAP
4104
E38E
4104
ENDCHAR
STARTCHAR U+2030
ENCODING 8240
SWIDTH 1000 0
DWIDTH 16 0
BBX 15 15 0 -1
BITMAP
6010
9020
9040
9080
9100
9200
6400
0800
130C
2492
4492
8492
0492
0492
030C
ENDCHAR
STARTCHAR U+2031
ENCODING 8241
SWIDTH 1000 0
DWIDTH 16 0
BBX 15 15 0 -1
BITMAP
6010
9020
9040
9080
9100
9200
6400
0800
136C
2492
4492
8492
0492
0492
036C
ENDCHAR
STARTCHAR U+2032
ENCODING 8242
SWIDTH 1000 0
DWIDTH 16 0
BBX 4 5 0 9
BITMAP
30
20
40
40
80
ENDCHAR
STARTCHAR U+2033
ENCODING 8243
SWIDTH 1000 0
DWIDTH 16 0
BBX 7 5 0 9
BITMAP
36
24
48
48
90
ENDCHAR
STARTCHAR U+203B
ENCODING 8251
SWIDTH 1000 0
DWIDTH 16 0
BBX 13 13 1 0
BITMAP
8208
4710
2220
1040
0880
4510
E238
4510
0880
1040
2220
4710
8208
ENDCHAR
STARTCHAR U+203E
ENCODING 8254
SWIDTH 500 0
DWIDTH 8 0
BBX 7 1 0 12
BITMAP
FE
ENDCHAR
STARTCHAR U+2103
ENCODING 8451
SWIDTH 1000 0
DWIDTH 16 0
BBX 12 13 1 0
BITMAP
6000
93C0
9420
6810
1010
1000
1000
1000
1000
1010
0810
0420
03C0
ENDCHAR
STARTCHAR U+2116
ENCODING 8470
SWIDTH 1000 0
DWIDTH 16 0
BBX 14 13 1 -1
BITMAP
8400
8400
C400
A400
A470
A488
9488
9488
9488
8C88
8488
8474
0004
ENDCHAR
STARTCHAR U+2121
ENCODING 8481
SWIDTH 1000 0
DWIDTH 16 0
BBX 15 12 0 0
BITMAP
FE00
1000
1000
1000
1000
13D0
1210
1210
1390
1210
1210
13DE
ENDCHAR
STARTCHAR U+212B
ENCODING 8491
SWIDTH 1000 0
DWIDTH 16 0
BBX 9 14 3 0
BITMAP
1C00
2200
2200
1C00
2200
4100
4100
8080
8080
8080
FF80
8080
8080
8080
ENDCHAR
STARTCHAR U+2160
ENCODING 8544
SWIDTH 1000 0
DWIDTH 16 0
BBX 5 13 5 0
BITMAP
F8
20
20
20
20
20
20
20
20
20
20
20
F8
ENDCHAR
STARTCHAR U+2161
ENCODING 8545
SWIDTH 1000 0
DWIDTH 16 0
BBX 9 13 3 0
BITMAP
FF80
2200
2200
2200
2200
2200
2200
2200
2200
2200
2200
2200
FF80
ENDCHAR
STARTCHAR U+2162
ENCODING 8546
SWIDTH 1000 0
DWIDTH 16 0
BBX 13 13 1 0
BITMAP
FFF8
2220
2220
2220
2220
2220
2220
2220
2220
2220
2220
2220
FFF8
ENDCHAR
STARTCHAR U+2163
ENCODING 8547
SWIDTH 1000 0
DWIDTH 16 0
BBX 14 13 1 0
BITMAP
FF7C
2410
2410
2410
2220
2220
2220
2140
2140
2140
2080
2080
F880
ENDCHAR
STARTCHAR U+2164
ENCODING 8548
SWIDTH 1000 0
DWIDTH 16 0
BBX 11 13 2 0
BITMAP
FBE0
2080
2080
2080
1100
1100
1100
0A00
0A00
0A00
0400
0400
0400
ENDCHAR
STARTCHAR U+2165
ENCODING 8549
SWIDTH 1000 0
DWIDTH 16 0
BBX 14 13 0 0
BITMAP
FBFC
2090
2090
2090
1110
1110
1110
0A10
0A10
0A10
0410
0410
047C
ENDCHAR
STARTCHAR U+2166
ENCODING 8550
SWIDTH 1000 0
DWIDTH 16 0
BBX 15 13 0 0
BITMAP
F7FE
2248
2248
2248
2248
1448
1448
1448
1448
0848
0848
0848
09FE
ENDCHAR
STARTCHAR U+2167
ENCODING 8551
SWIDTH 1000 0
DWIDTH 16 0
BBX 15 13 0 0
BITMAP
EFFE
4524
4524
4524
4524
2924
2924
2924
2924
1124
1124
1124
13FE
ENDCHAR
STARTCHAR U+2168
ENCODING 8552
SWIDTH 1000 0
DWIDTH 16 0
BBX 14 13 1 0
BITMAP
FF3C
2410
2410
2220
2140
2140
2080
2140
2140
2220
2410
2410
FF7C
ENDCHAR
STARTCHAR U+2169
ENCODING 8553
SWIDTH 1000 0
DWIDTH 16 0
BBX 11 13 2 0
BITMAP
FBE0
2080
2080
1100
0A00
0A00
0400
0A00
0A00
1100
2080
2080
FBE0
ENDCHAR
STARTCHAR U+2190
ENCODING 8592
SWIDTH 1000 0
DWIDTH 16 0
BBX 15 7 0 3
BITMAP
1000
2000
4000
FFFE
4000
2000
1000
ENDCHAR
STARTCHAR U+2191
ENCODING 8593
SWIDTH 1000 0
DWIDTH 16 0
BBX 7 16 4 -2
BITMAP
10
38
54
92
10
10
10
10
10
10
10
10
10
10
10
10
ENDCHAR
STARTCHAR U+2192
ENCODING 8594
SWIDTH 1000 0
DWIDTH 16 0
BBX 15 7 0 3
BITMAP
0010
0008
0004
FFFE
0004
0008
0010
ENDCHAR
STARTCHAR U+2193
ENCODING 8595
SWIDTH 1000 0
DWIDTH 16 0
BBX 7 16 4 -2
BITMAP
10
10
10
10
10
10
10
10
10
10
10
10
92
54
38
10
ENDCHAR
STARTCHAR U+21D2
ENCODING 8658
SWIDTH 1000 0
DWIDTH 16 0
BBX 13 9 1 2
BITMAP
0080
0040
FFE0
0010
0008
0010
FFE0
0040
0080
ENDCHAR
STARTCHAR U+21D4
ENCODING 8660
SWIDTH 1000 0
DWIDTH 16 0
BBX 14 9 0 2
BITMAP
0840
1020
3FF0
4008
8004
4008
3FF0
1020
0840
ENDCHAR
STARTCHAR U+2200
ENCODING 8704
SWIDTH 1000 0
DWIDTH 16 0
BBX 11 14 2 -1
BITMAP
8020
8020
4040
4040
7FC0
2080
2080
1100
1100
1100
0A00
0A00
0400
0400
ENDCHAR
STARTCHAR U+2202
ENCODING 8706
SWIDTH 1000 0
DWIDTH 16 0
BBX 9 13 2 -1
BITMAP
0E00
1100
0080
0080
0080
1C80
2280
4100
4100
8200
8200
4400
3800
ENDCHAR
STARTCHAR U+2203
ENCODING 8707
SWIDTH 1000 0
DWIDTH 16 0
BBX 11 11 2 1
BITMAP
FFE0
0020
0020
0020
0020
FFE0
0020
0020
0020
0020
FFE0
ENDCHAR
STARTCHAR U+2207
ENCODING 8711
SWIDTH 1000 0
DWIDTH 16 0
BBX 11 10 2 1
BITMAP
FFE0
7FC0
6040
2080
3080
1100
1900
0A00
0E00
0400
ENDCHAR
STARTCHAR U+2208
ENCODING 8712
SWIDTH 1000 0
DWIDTH 16 0
BBX 11 9 2 2
BITMAP
3FE0
4000
8000
8000
FFE0
8000
8000
4000
3FE0
ENDCHAR
STARTCHAR U+220B
ENCODING 8715
SWIDTH 1000 0
DWIDTH 16 0
BBX 11 9 2 2
BITMAP
FF80
0040
0020
0020
FFE0
0020
0020
0040
FF80
ENDCHAR
STARTCHAR U+2211
ENCODING 8721
SWIDTH 1000 0
DWIDTH 16 0
BBX 10 12 3 0
BITMAP
FFC0
4000
2000
1000
0800
0400
0800
1000
2000
4000
8000
FFC0
ENDCHAR
STARTCHAR U+2212
ENCODING 8722
SWIDTH 1000 0
DWIDTH 16 0
BBX 11 1 2 6
BITMAP
FFE0
ENDCHAR
STARTCHAR U+221A
ENCODING 8730
SWIDTH 1000 0
DWIDTH 16 0
BBX 13 15 0 -1
BITMAP
00F8
0080
0080
0100
0100
0100
0100
4200
4200
A200
A400
1400
1400
0800
0800
ENDCHAR
STARTCHAR U+221D
ENCODING 8733
SWIDTH 1000 0
DWIDTH 16 0
BBX 12 7 1 3
BITMAP
3060
4890
8500
8200
8500
4890
3060
ENDCHAR
STARTCHAR U+221E
ENCODING 8734
SWIDTH 1000 0
DWIDTH 16 0
BBX 13 7 1 3
BITMAP
3060
4890
8508
8208
8508
4890
3060
ENDCHAR
STARTCHAR U+221F
ENCODING 8735
SWIDTH 1000 0
DWIDTH 16 0
BBX 12 12 2 1
BITMAP
8000
8000
8000
8000
8000
8000
8000
8000
8000
8000
8000
FFF0
ENDCHAR
STARTCHAR U+2220
ENCODING 8736
SWIDTH 1000 0
DWIDTH 16 0
BBX 12 11 2 1
BITMAP
0020
0040
0080
0100
0200
0400
0800
1000
2000
4000
FFF0
ENDCHAR
STARTCHAR U+2227
ENCODING 8743
SWIDTH 1000 0
DWIDTH 16 0
BBX 13 14 1 -2
BITMAP
0200
0200
0500
0500
0880
0880
1040
1040
2020
2020
4010
4010
8008
8008
ENDCHAR
STARTCHAR U+2228
ENCODING 8744
SWIDTH 1000 0
DWIDTH 16 0
BBX 13 14 1 0
BITMAP
8008
8008
4010
4010
2020
2020
1040
1040
0880
0880
0500
0500
0200
0200
ENDCHAR
STARTCHAR U+2229
ENCODING 8745
SWIDTH 1000 0
DWIDTH 16 0
BBX 9 14 3 -1
BITMAP
1C00
2200
4100
8080
8080
8080
8080
8080
8080
8080
8080
8080
8080
8080
ENDCHAR
STARTCHAR U+222A
ENCODING 8746
SWIDTH 1000 0
DWIDTH 16 0
BBX 9 14 3 -1
BITMAP
8080
8080
8080
8080
8080
8080
8080
8080
8080
8080
8080
4100
2200
1C00
ENDCHAR
STARTCHAR U+222B
ENCODING 8747
SWIDTH 1000 0
DWIDTH 16 0
BBX 4 16 6 -2
BITMAP
60
90
90
80
80
40
40
40
20
20
20
10
10
90
90
60
ENDCHAR
STARTCHAR U+222C
ENCODING 8748
SWIDTH 1000 0
DWIDTH 16 0
BBX 9 16 3 -2
BITMAP
6300
9480
9480
8400
8400
4200
4200
4200
2100
2100
2100
1080
1080
9480
9480
6300
ENDCHAR
STARTCHAR U+222E
ENCODING 8750
SWIDTH 1000 0
DWIDTH 16 0
BBX 6 16 5 -2
BITMAP
30
48
48
40
40
78
A4
A4
94
78
10
08
08
48
48
30
ENDCHAR
STARTCHAR U+2234
ENCODING 8756
SWIDTH 1000 0
DWIDTH 16 0
BBX 11 10 2 1
BITMAP
0400
0E00
0400
0000
0000
0000
0000
4040
E0E0
4040
ENDCHAR
STARTCHAR U+2235
ENCODING 8757
SWIDTH 1000 0
DWIDTH 16 0
BBX 11 10 2 1
BITMAP
4040
E0E0
4040
0000
0000
0000
0000
0400
0E00
0400
ENDCHAR
STARTCHAR U+223D
ENCODING 8765
SWIDTH 1000 0
DWIDTH 16 0
BBX 13 7 1 3
BITMAP
3060
4890
8108
8208
8408
4890
3060
ENDCHAR
STARTCHAR U+2252
ENCODING 8786
SWIDTH 1000 0
DWIDTH 16 0
BBX 11 14 2 -1
BITMAP
2000
7000
2000
0000
0000
FFE0
0000
0000
FFE0
0000
0000
0080
01C0
0080
ENDCHAR
STARTCHAR U+2260
ENCODING 8800
SWIDTH 1000 0
DWIDTH 16 0
BBX 11 12 2 0
BITMAP
0080
0100
0100
0200
FFE0
0400
0400
FFE0
0800
1000
1000
2000
ENDCHAR
STARTCHAR U+2261
ENCODING 8801
SWIDTH 1000 0
DWIDTH 16 0
BBX 11 7 2 3
BITMAP
FFE0
0000
0000
FFE0
0000
0000
FFE0
ENDCHAR
STARTCHAR U+2266
ENCODING 8806
SWIDTH 1000 0
DWIDTH 16 0
BBX 11 13 2 0
BITMAP
0060
0380
0C00
3000
C000
3000
0C00
0380
0060
0000
FFE0
0000
FFE0
ENDCHAR
STARTCHAR U+2267
ENCODING 8807
SWIDTH 1000 0
DWIDTH 16 0
BBX 11 13 2 0
BITMAP
C000
3800
0600
0180
0060
0180
0600
3800
C000
0000
FFE0
0000
FFE0
ENDCHAR
STARTCHAR U+226A
ENCODING 8810
SWIDTH 1000 0
DWIDTH 16 0
BBX 12 13 2 0
BITMAP
00C0
0100
0630
0840
3180
4200
8400
4200
3180
0840
0630
0100
00C0
ENDCHAR
STARTCHAR U+226B
ENCODING 8811
SWIDTH 1000 0
DWIDTH 16 0
BBX 12 13 1 0
BITMAP
3000
0800
C600
2100
18C0
0420
0210
0420
18C0
2100
C600
0800
3000
ENDCHAR
STARTCHAR U+2282
ENCODING 8834
SWIDTH 1000 0
DWIDTH 16 0
BBX 11 9 2 2
BITMAP
3FE0
4000
8000
8000
8000
8000
8000
4000
3FE0
ENDCHAR
STARTCHAR U+2283
ENCODING 8835
SWIDTH 1000 0
DWIDTH 16 0
BBX 11 9 2 2
BITMAP
FF80
0040
0020
0020
0020
0020
0020
0040
FF80
ENDCHAR
STARTCHAR U+2286
ENCODING 8838
SWIDTH 1000 0
DWIDTH 16 0
BBX 11 11 2 1
BITMAP
3FE0
4000
8000
8000
8000
8000
4000
3FE0
0000
0000
FFE0
ENDCHAR
STARTCHAR U+2287
ENCODING 8839
SWIDTH 1000 0
DWIDTH 16 0
BBX 11 11 2 1
BITMAP
FF80
0040
0020
0020
0020
0020
0040
FF80
0000
0000
FFE0
ENDCHAR
STARTCHAR U+22A5
ENCODING 8869
SWIDTH 1000 0
DWIDTH 16 0
BBX 13 12 1 1
BITMAP
0200
0200
0200
0200
0200
0200
0200
0200
0200
0200
0200
FFF8
ENDCHAR
STARTCHAR U+22BF
ENCODING 8895
SWIDTH 1000 0
DWIDTH 16 0
BBX 11 11 2 1
BITMAP
0020
0060
00A0
0120
0220
0420
0820
1020
2020
4020
FFE0
ENDCHAR
STARTCHAR U+2312
ENCODING 8978
SWIDTH 1000 0
DWIDTH 16 0
BBX 13 4 1 8
BITMAP
0F80
3060
4010
8008
ENDCHAR
STARTCHAR U+2460
ENCODING 9312
SWIDTH 1000 0
DWIDTH 16 0
BBX 15 16 0 -2
BITMAP
07C0
1830
2108
4304
4504
8102
8102
8102
8102
8102
8102
4104
4104
2008
1830
07C0
ENDCHAR
STARTCHAR U+2461
ENCODING 9313
SWIDTH 1000 0
DWIDTH 16 0
BBX 15 16 0 -2
BITMAP
07C0
1830
2008
4784
4844
8842
8042
8082
8102
8202
8402
4804
4FC4
2008
1830
07C0
ENDCHAR
STARTCHAR U+2462
ENCODING 9314
SWIDTH 1000 0
DWIDTH 16 0
BBX 15 16 0 -2
BITMAP
07C0
1830
2008
4784
4844
8842
8042
8382
8042
8042
8842
4844
4784
2008
1830
07C0
ENDCHAR
STARTCHAR U+2463
ENCODING 9315
SWIDTH 1000 0
DWIDTH 16 0
BBX 15 16 0 -2
BITMAP
07C0
1830
2008
4084
4184
8282
8282
8482
8882
9FE2
8082
4084
4084
2008
1830
07C0
ENDCHAR
STARTCHAR U+2464
ENCODING 9316
SWIDTH 1000 0
DWIDTH 16 0
BBX 15 16 0 -2
BITMAP
07C0
1830
2008
4FC4
4804
8802
8802
8F82
8842
8042
8842
4844
4784
2008
1830
07C0
ENDCHAR
STARTCHAR U+2465
ENCODING 9317
SWIDTH 1000 0
DWIDTH 16 0
BBX 15 16 0 -2
BITMAP
07C0
1830
2008
4784
4844
8842
8802
8F82
8842
8842
8842
4844
4784
2008
1830
07C0
ENDCHAR
STARTCHAR U+2466
ENCODING 9318
SWIDTH 1000 0
DWIDTH 16 0
BBX 15 16 0 -2
BITMAP
07C0
1830
2008
4FC4
4044
8042
8082
8082
8102
8102
8202
4204
4204
2008
1830
07C0
ENDCHAR
STARTCHAR U+2467
ENCODING 9319
SWIDTH 1000 0
DWIDTH 16 0
BBX 15 16 0 -2
BITMAP
07C0
1830
2008
4784
4844
8842
8842
8782
8842
8842
8842
4844
4784
2008
1830
07C0
ENDCHAR
STARTCHAR U+2468
ENCODING 9320
SWIDTH 1000 0
DWIDTH 16 0
BBX 15 16 0 -2
BITMAP
07C0
1830
2008
4784
4844
8842
8842
8842
87C2
8042
8842
4844
4784
2008
1830
07C0
ENDCHAR
STARTCHAR U+2469
ENCODING 9321
SWIDTH 1000 0
DWIDTH 16 0
BBX 15 16 0 -2
BITMAP
07C0
1830
2008
48E4
5914
A912
8912
8912
8912
8912
8912
4914
48E4
2008
1830
07C0
ENDCHAR
STARTCHAR U+246A
ENCODING 9322
SWIDTH 1000 0
DWIDTH 16 0
BBX 15 16 0 -2
BITMAP
07C0
1830
2008
4444
4CC4
9542
8442
8442
8442
8442
8442
4444
4444
2008
1830
07C0
ENDCHAR
STARTCHAR U+246B
ENCODING 9323
SWIDTH 1000 0
DWIDTH 16 0
BBX 15 16 0 -2
BITMAP
07C0
1830
2008
48E4
5914
A912
8812
8822
8842
8882
8902
4904
49F4
2008
1830
07C0
ENDCHAR
STARTCHAR U+246C
ENCODING 9324
SWIDTH 1000 0
DWIDTH 16 0
BBX 15 16 0 -2
BITMAP
07C0
1830
2008
48E4
5914
A912
8812
8862
8812
8812
8912
4914
48E4
2008
1830
07C0
ENDCHAR
STARTCHAR U+246D
ENCODING 9325
SWIDTH 1000 0
DWIDTH 16 0
BBX 15 16 0 -2
BITMAP
07C0
1830
2008
4824
5864
A8A2
88A2
8922
8A22
8BF2
8822
4824
4824
2008
1830
07C0
ENDCHAR
STARTCHAR U+246E
ENCODING 9326
SWIDTH 1000 0
DWIDTH 16 0
BBX 15 16 0 -2
BITMAP
07C0
1830
2008
49E4
5904
A902
8902
89E2
8912
8812
8912
4914
48E4
2008
1830
07C0
ENDCHAR
STARTCHAR U+246F
ENCODING 9327
SWIDTH 1000 0
DWIDTH 16 0
BBX 15 16 0 -2
BITMAP
07C0
1830
2008
48E4
5914
A912
8902
89E2
8912
8912
8912
4914
48E4
2008
1830
07C0
ENDCHAR
STARTCHAR U+2470
ENCODING 9328
SWIDTH 1000 0
DWIDTH 16 0
BBX 15 16 0 -2
BITMAP
07C0
1830
2008
49F4
5814
A812
8822
8822
8842
8842
8882
4884
4884
2008
1830
07C0
ENDCHAR
STARTCHAR U+2471
ENCODING 9329
SWIDTH 1000 0
DWIDTH 16 0
BBX 15 16 0 -2
BITMAP
07C0
1830
2008
48E4
5914
A912
8912
88E2
8912
8912
8912
4914
48E4
2008
1830
07C0
ENDCHAR
STARTCHAR U+2472
ENCODING 9330
SWIDTH 1000 0
DWIDTH 16 0
BBX 15 16 0 -2
BITMAP
07C0
1830
2008
48E4
5914
A912
8912
8912
88F2
8812
8912
4914
48E4
2008
1830
07C0
ENDCHAR
STARTCHAR U+2473
ENCODING 9331
SWIDTH 1000 0
DWIDTH 16 0
BBX 15 16 0 -2
BITMAP
07C0
1830
2008
4C64
5294
9292
8292
8292
8492
8892
9092
5094
5E64
2008
1830
07C0
ENDCHAR
STARTCHAR U+2500
ENCODING 9472
SWIDTH 1000 0
DWIDTH 16 0
BBX 16 1 0 6
BITMAP
FFFF
ENDCHAR
STARTCHAR U+2501
ENCODING 9473
SWIDTH 1000 0
DWIDTH 16 0
BBX 16 2 0 5
BITMAP
FFFF
FFFF
ENDCHAR
STARTCHAR U+2502
ENCODING 9474
SWIDTH 1000 0
DWIDTH 16 0
BBX 1 16 7 -2
BITMAP
80
80
80
80
80
80
80
80
80
80
80
80
80
80
80
80
ENDCHAR
STARTCHAR U+2503
ENCODING 9475
SWIDTH 1000 0
DWIDTH 16 0
BBX 2 16 7 -2
BITMAP
C0
C0
C0
C0
C0
C0
C0
C0
C0
C0
C0
C0
C0
C0
C0
C0
ENDCHAR
STARTCHAR U+2504
ENCODING 9476
SWIDTH 1000 0
DWIDTH 16 0
BBX 13 1 1 6
BITMAP
E738
ENDCHAR
STARTCHAR U+2505
ENCODING 9477
SWIDTH 1000 0
DWIDTH 16 0
BBX 13 2 1 5
BITMAP
E738
E738
ENDCHAR
STARTCHAR U+2506
ENCODING 9478
SWIDTH 1000 0
DWIDTH 16 0
BBX 1 13 7 0
BITMAP
80
80
80
00
00
80
80
80
00
00
80
80
80
ENDCHAR
STARTCHAR U+2507
ENCODING 9479
SWIDTH 1000 0
DWIDTH 16 0
BBX 2 13 7 0
BITMAP
C0
C0
C0
00
00
C0
C0
C0
00
00
C0
C0
C0
ENDCHAR
STARTCHAR U+2508
ENCODING 9480
SWIDTH 1000 0
DWIDTH 16 0
BBX 15 1 0 6
BITMAP
EEEE
ENDCHAR
STARTCHAR U+2509
ENCODING 9481
SWIDTH 1000 0
DWIDTH 16 0
BBX 15 2 0 5
BITMAP
EEEE
EEEE
ENDCHAR
STARTCHAR U+250A
ENCODING 9482
SWIDTH 1000 0
DWIDTH 16 0
BBX 1 15 7 -1
BITMAP
80
80
80
00
80
80
80
00
80
80
80
00
80
80
80
ENDCHAR
STARTCHAR U+250B
ENCODING 9483
SWIDTH 1000 0
DWIDTH 16 0
BBX 2 15 7 -1
BITMAP
C0
C0
C0
00
C0
C0
C0
00
C0
C0
C0
00
C0
C0
C0
ENDCHAR
STARTCHAR U+250C
ENCODING 9484
SWIDTH 1000 0
DWIDTH 16 0
BBX 9 9 7 -2
BITMAP
FF80
8000
8000
8000
8000
8000
8000
8000
8000
ENDCHAR
STARTCHAR U+250D
ENCODING 9485
SWIDTH 1000 0
DWIDTH 16 0
BBX 9 9 7 -2
BITMAP
FF80
FF80
8000
8000
8000
8000
8000
8000
8000
ENDCHAR
STARTCHAR U+250E
ENCODING 9486
SWIDTH 1000 0
DWIDTH 16 0
BBX 9 9 7 -2
BITMAP
FF80
C000
C000
C000
C000
C000
C000
C000
C000
ENDCHAR
STARTCHAR U+250F
ENCODING 9487
SWIDTH 1000 0
DWIDTH 16 0
BBX 9 9 7 -2
BITMAP
FF80
FF80
C000
C000
C000
C000
C000
C000
C000
ENDCHAR
STARTCHAR U+2510
ENCODING 9488
SWIDTH 1000 0
DWIDTH 16 0
BBX 8 9 0 -2
BITMAP
FF
01
01
01
01
01
01
01
01
ENDCHAR
STARTCHAR U+2511
ENCODING 9489
SWIDTH 1000 0
DWIDTH 16 0
BBX 8 9 0 -2
BITMAP
FF
FF
01
01
01
01
01
01
01
ENDCHAR
STARTCHAR U+2512
ENCODING 9490
SWIDTH 1000 0
DWIDTH 16 0
BBX 9 9 0 -2
BITMAP
FF80
0180
0180
0180
0180
0180
0180
0180
0180
ENDCHAR
STARTCHAR U+2513
ENCODING 9491
SWIDTH 1000 0
DWIDTH 16 0
BBX 9 9 0 -2
BITMAP
FF80
FF80
0180
0180
0180
0180
0180
0180
0180
ENDCHAR
STARTCHAR U+2514
ENCODING 9492
SWIDTH 1000 0
DWIDTH 16 0
BBX 9 8 7 6
BITMAP
8000
8000
8000
8000
8000
8000
8000
FF80
ENDCHAR
STARTCHAR U+2515
ENCODING 9493
SWIDTH 1000 0
DWIDTH 16 0
BBX 9 9 7 5
BITMAP
8000
8000
8000
8000
8000
8000
8000
FF80
FF80
ENDCHAR
STARTCHAR U+2516
ENCODING 9494
SWIDTH 1000 0
DWIDTH 16 0
BBX 10 8 6 6
BITMAP
C000
C000
C000
C000
C000
C000
C000
FFC0
ENDCHAR
STARTCHAR U+2517
ENCODING 9495
SWIDTH 1000 0
DWIDTH 16 0
BBX 9 9 7 5
BITMAP
C000
C000
C000
C000
C000
C000
C000
FF80
FF80
ENDCHAR
STARTCHAR U+2518
ENCODING 9496
SWIDTH 1000 0
DWIDTH 16 0
BBX 8 8 0 6
BITMAP
01
01
01
01
01
01
01
FF
ENDCHAR
STARTCHAR U+2519
ENCODING 9497
SWIDTH 1000 0
DWIDTH 16 0
BBX 8 9 0 5
BITMAP
01
01
01
01
01
01
01
FF
FF
ENDCHAR
STARTCHAR U+251A
ENCODING 9498
SWIDTH 1000 0
DWIDTH 16 0
BBX 9 8 0 6
BITMAP
0180
0180
0180
0180
0180
0180
0180
FF80
ENDCHAR
STARTCHAR U+251B
ENCODING 9499
SWIDTH 1000 0
DWIDTH 16 0
BBX 9 9 0 5
BITMAP
0180
0180
0180
0180
0180
0180
0180
FF80
FF80
ENDCHAR
STARTCHAR U+251C
ENCODING 9500
SWIDTH 1000 0
DWIDTH 16 0
BBX 9 16 7 -2
BITMAP
8000
8000
8000
8000
8000
8000
8000
FF80
8000
8000
8000
8000
8000
8000
8000
8000
ENDCHAR
STARTCHAR U+251D
ENCODING 9501
SWIDTH 1000 0
DWIDTH 16 0
BBX 9 16 7 -2
BITMAP
8000
8000
8000
8000
8000
8000
8000
FF80
FF80
8000
8000
8000
8000
8000
8000
8000
ENDCHAR
STARTCHAR U+251E
ENCODING 9502
SWIDTH 1000 0
DWIDTH 16 0
BBX 9 16 7 -2
BITMAP
C000
C000
C000
C000
C000
C000
C000
FF80
8000
8000
8000
8000
8000
8000
8000
8000
ENDCHAR
STARTCHAR U+251F
ENCODING 9503
SWIDTH 1000 0
DWIDTH 16 0
BBX 9 16 7 -2
BITMAP
8000
8000
8000
8000
8000
8000
8000
FF80
C000
C000
C000
C000
C000
C000
C000
C000
ENDCHAR
STARTCHAR U+2520
ENCODING 9504
SWIDTH 1000 0
DWIDTH 16 0
BBX 9 16 7 -2
BITMAP
C000
C000
C000
C000
C000
C000
C000
FF80
C000
C000
C000
C000
C000
C000
C000
C000
ENDCHAR
STARTCHAR U+2521
ENCODING 9505
SWIDTH 1000 0
DWIDTH 16 0
BBX 9 16 7 -2
BITMAP
C000
C000
C000
C000
C000
C000
C000
FF80
FF80
8000
8000
8000
8000
8000
8000
8000
ENDCHAR
STARTCHAR U+2522
ENCODING 9506
SWIDTH 1000 0
DWIDTH 16 0
BBX 9 16 7 -2
BITMAP
8000
8000
8000
8000
8000
8000
8000
FF80
FF80
C000
C000
C000
C000
C000
C000
C000
ENDCHAR
STARTCHAR U+2523
ENCODING 9507
SWIDTH 1000 0
DWIDTH 16 0
BBX 9 16 7 -2
BITMAP
C000
C000
C000
C000
C000
C000
C000
FF80
FF80
C000
C000
C000
C000
C000
C000
C000
ENDCHAR
STARTCHAR U+2524
ENCODING 9508
SWIDTH 1000 0
DWIDTH 16 0
BBX 8 16 0 -2
BITMAP
01
01
01
01
01
01
01
FF
01
01
01
01
01
01
01
01
ENDCHAR
STARTCHAR U+2525
ENCODING 9509
SWIDTH 1000 0
DWIDTH 16 0
BBX 8 16 0 -2
BITMAP
01
01
01
01
01
01
01
FF
FF
01
01
01
01
01
01
01
ENDCHAR
STARTCHAR U+2526
ENCODING 9510
SWIDTH 1000 0
DWIDTH 16 0
BBX 9 16 0 -2
BITMAP
0180
0180
0180
0180
0180
0180
0180
FF80
0100
0100
0100
0100
0100
0100
0100
0100
ENDCHAR
STARTCHAR U+2527
ENCODING 9511
SWIDTH 1000 0
DWIDTH 16 0
BBX 9 16 0 -2
BITMAP
0100
0100
0100
0100
0100
0100
0100
FF80
0180
0180
0180
0180
0180
0180
0180
0180
ENDCHAR
STARTCHAR U+2528
ENCODING 9512
SWIDTH 1000 0
DWIDTH 16 0
BBX 9 16 0 -2
BITMAP
0180
0180
0180
0180
0180
0180
0180
FF80
0180
0180
0180
0180
0180
0180
0180
0180
ENDCHAR
STARTCHAR U+2529
ENCODING 9513
SWIDTH 1000 0
DWIDTH 16 0
BBX 9 16 0 -2
BITMAP
0180
0180
0180
0180
0180
0180
0180
FF80
FF80
0100
0100
0100
0100
0100
0100
0100
ENDCHAR
STARTCHAR U+252A
ENCODING 9514
SWIDTH 1000 0
DWIDTH 16 0
BBX 9 16 0 -2
BITMAP
0100
0100
0100
0100
0100
0100
0100
FF80
FF80
0180
0180
0180
0180
0180
0180
0180
ENDCHAR
STARTCHAR U+252B
ENCODING 9515
SWIDTH 1000 0
DWIDTH 16 0
BBX 9 16 0 -2
BITMAP
0180
0180
0180
0180
0180
0180
0180
FF80
FF80
0180
0180
0180
0180
0180
0180
0180
ENDCHAR
STARTCHAR U+252C
ENCODING 9516
SWIDTH 1000 0
DWIDTH 16 0
BBX 16 9 0 -2
BITMAP
FFFF
0100
0100
0100
0100
0100
0100
0100
0100
ENDCHAR
STARTCHAR U+252D
ENCODING 9517
SWIDTH 1000 0
DWIDTH 16 0
BBX 16 9 0 -2
BITMAP
FFFF
FF00
0100
0100
0100
0100
0100
0100
0100
ENDCHAR
STARTCHAR U+252E
ENCODING 9518
SWIDTH 1000 0
DWIDTH 16 0
BBX 16 9 0 -2
BITMAP
FFFF
01FF
0100
0100
0100
0100
0100
0100
0100
ENDCHAR
STARTCHAR U+252F
ENCODING 9519
SWIDTH 1000 0
DWIDTH 16 0
BBX 16 9 0 -2
BITMAP
FFFF
FFFF
0100
0100
0100
0100
0100
0100
0100
ENDCHAR
STARTCHAR U+2530
ENCODING 9520
SWIDTH 1000 0
DWIDTH 16 0
BBX 16 9 0 -2
BITMAP
FFFF
0300
0300
0300
0300
0300
0300
0300
0300
ENDCHAR
STARTCHAR U+2531
ENCODING 9521
SWIDTH 1000 0
DWIDTH 16 0
BBX 16 9 0 -2
BITMAP
FFFF
FF00
0300
0300
0300
0300
0300
0300
0300
ENDCHAR
STARTCHAR U+2532
ENCODING 9522
SWIDTH 1000 0
DWIDTH 16 0
BBX 16 9 0 -2
BITMAP
FFFF
01FF
0180
0180
0180
0180
0180
0180
0180
ENDCHAR
STARTCHAR U+2533
ENCODING 9523
SWIDTH 1000 0
DWIDTH 16 0
BBX 16 9 0 -2
BITMAP
FFFF
FFFF
0180
0180
0180
0180
0180
0180
0180
ENDCHAR
STARTCHAR U+2534
ENCODING 9524
SWIDTH 1000 0
DWIDTH 16 0
BBX 16 8 0 6
BITMAP
0100
0100
0100
0100
0100
0100
0100
FFFF
ENDCHAR
STARTCHAR U+2535
ENCODING 9525
SWIDTH 1000 0
DWIDTH 16 0
BBX 16 9 0 5
BITMAP
0100
0100
0100
0100
0100
0100
0100
FFFF
FF00
ENDCHAR
STARTCHAR U+2536
ENCODING 9526
SWIDTH 1000 0
DWIDTH 16 0
BBX 16 9 0 5
BITMAP
0100
0100
0100
0100
0100
0100
0100
FFFF
01FF
ENDCHAR
STARTCHAR U+2537
ENCODING 9527
SWIDTH 1000 0
DWIDTH 16 0
BBX 16 9 0 5
BITMAP
0100
0100
0100
0100
0100
0100
0100
FFFF
FFFF
ENDCHAR
STARTCHAR U+2538
ENCODING 9528
SWIDTH 1000 0
DWIDTH 16 0
BBX 16 8 0 6
BITMAP
0180
0180
0180
0180
0180
0180
0180
FFFF
ENDCHAR
STARTCHAR U+2539
ENCODING 9529
SWIDTH 1000 0
DWIDTH 16 0
BBX 16 9 0 5
BITMAP
0180
0180
0180
0180
0180
0180
0180
FFFF
FF80
ENDCHAR
STARTCHAR U+253A
ENCODING 9530
SWIDTH 1000 0
DWIDTH 16 0
BBX 16 9 0 5
BITMAP
0180
0180
0180
0180
0180
0180
0180
FFFF
01FF
ENDCHAR
STARTCHAR U+253B
ENCODING 9531
SWIDTH 1000 0
DWIDTH 16 0
BBX 16 9 0 5
BITMAP
0180
0180
0180
0180
0180
0180
0180
FFFF
FFFF
ENDCHAR
STARTCHAR U+253C
ENCODING 9532
SWIDTH 1000 0
DWIDTH 16 0
BBX 16 16 0 -2
BITMAP
0100
0100
0100
0100
0100
0100
0100
FFFF
0100
0100
0100
0100
0100
0100
0100
0100
ENDCHAR
STARTCHAR U+253D
ENCODING 9533
SWIDTH 1000 0
DWIDTH 16 0
BBX 16 16 0 -2
BITMAP
0100
0100
0100
0100
0100
0100
0100
FFFF
FF00
0100
0100
0100
0100
0100
0100
0100
ENDCHAR
STARTCHAR U+253E
ENCODING 9534
SWIDTH 1000 0
DWIDTH 16 0
BBX 16 16 0 -2
BITMAP
0100
0100
0100
0100
0100
0100
0100
FFFF
01FF
0100
0100
0100
0100
0100
0100
0100
ENDCHAR
STARTCHAR U+253F
ENCODING 9535
SWIDTH 1000 0
DWIDTH 16 0
BBX 16 16 0 -2
BITMAP
0100
0100
0100
0100
0100
0100
0100
FFFF
FFFF
0100
0100
0100
0100
0100
0100
0100
ENDCHAR
STARTCHAR U+2540
ENCODING 9536
SWIDTH 1000 0
DWIDTH 16 0
BBX 16 16 0 -2
BITMAP
0180
0180
0180
0180
0180
0180
0180
FFFF
0100
0100
0100
0100
0100
0100
0100
0100
ENDCHAR
STARTCHAR U+2541
ENCODING 9537
SWIDTH 1000 0
DWIDTH 16 0
BBX 16 16 0 -2
BITMAP
0100
0100
0100
0100
0100
0100
0100
FFFF
0180
0180
0180
0180
0180
0180
0180
0180
ENDCHAR
STARTCHAR U+2542
ENCODING 9538
SWIDTH 1000 0
DWIDTH 16 0
BBX 16 16 0 -2
BITMAP
0180
0180
0180
0180
0180
0180
0180
FFFF
0180
0180
0180
0180
0180
0180
0180
0180
ENDCHAR
STARTCHAR U+2543
ENCODING 9539
SWIDTH 1000 0
DWIDTH 16 0
BBX 16 16 0 -2
BITMAP
0180
0180
0180
0180
0180
0180
0180
FFFF
FF00
0100
0100
0100
0100
0100
0100
0100
ENDCHAR
STARTCHAR U+2544
ENCODING 9540
SWIDTH 1000 0
DWIDTH 16 0
BBX 16 16 0 -2
BITMAP
0180
0180
0180
0180
0180
0180
0180
FFFF
01FF
0100
0100
0100
0100
0100
0100
0100
ENDCHAR
STARTCHAR U+2545
ENCODING 9541
SWIDTH 1000 0
DWIDTH 16 0
BBX 16 16 0 -2
BITMAP
0100
0100
0100
0100
0100
0100
0100
FFFF
FF80
0180
0180
0180
0180
0180
0180
0180
ENDCHAR
STARTCHAR U+2546
ENCODING 9542
SWIDTH 1000 0
DWIDTH 16 0
BBX 16 16 0 -2
BITMAP
0100
0100
0100
0100
0100
0100
0100
FFFF
01FF
0180
0180
0180
0180
0180
0180
0180
ENDCHAR
STARTCHAR U+2547
ENCODING 9543
SWIDTH 1000 0
DWIDTH 16 0
BBX 16 16 0 -2
BITMAP
0180
0180
0180
0180
0180
0180
0180
FFFF
FFFF
0100
0100
0100
0100
0100
0100
0100
ENDCHAR
STARTCHAR U+2548
ENCODING 9544
SWIDTH 1000 0
DWIDTH 16 0
BBX 16 16 0 -2
BITMAP
0100
0100
0100
0100
0100
0100
0100
FFFF
FFFF
0180
0180
0180
0180
0180
0180
0180
ENDCHAR
STARTCHAR U+2549
ENCODING 9545
SWIDTH 1000 0
DWIDTH 16 0
BBX 16 16 0 -2
BITMAP
0180
0180
0180
0180
0180
0180
0180
FFFF
FF80
0180
0180
0180
0180
0180
0180
0180
ENDCHAR
STARTCHAR U+254A
ENCODING 9546
SWIDTH 1000 0
DWIDTH 16 0
BBX 16 16 0 -2
BITMAP
0180
0180
0180
0180
0180
0180
0180
FFFF
01FF
0180
0180
0180
0180
0180
0180
0180
ENDCHAR
STARTCHAR U+254B
ENCODING 9547
SWIDTH 1000 0
DWIDTH 16 0
BBX 16 16 0 -2
BITMAP
0180
0180
0180
0180
0180
0180
0180
FFFF
FFFF
0180
0180
0180
0180
0180
0180
0180
ENDCHAR
STARTCHAR U+2550
ENCODING 9552
SWIDTH 1000 0
DWIDTH 16 0
BBX 16 3 0 5
BITMAP
FFFF
0000
FFFF
ENDCHAR
STARTCHAR U+2551
ENCODING 9553
SWIDTH 1000 0
DWIDTH 16 0
BBX 3 16 6 -2
BITMAP
A0
A0
A0
A0
A0
A0
A0
A0
A0
A0
A0
A0
A0
A0
A0
A0
ENDCHAR
STARTCHAR U+2552
ENCODING 9554
SWIDTH 1000 0
DWIDTH 16 0
BBX 9 10 7 -2
BITMAP
FF80
8000
FF80
8000
8000
8000
8000
8000
8000
8000
ENDCHAR
STARTCHAR U+2553
ENCODING 9555
SWIDTH 1000 0
DWIDTH 16 0
BBX 10 9 6 -2
BITMAP
FFC0
A000
A000
A000
A000
A000
A000
A000
A000
ENDCHAR
STARTCHAR U+2554
ENCODING 9556
SWIDTH 1000 0
DWIDTH 16 0
BBX 10 10 6 -2
BITMAP
FFC0
8000
BFC0
A000
A000
A000
A000
A000
A000
A000
ENDCHAR
STARTCHAR U+2555
ENCODING 9557
SWIDTH 1000 0
DWIDTH 16 0
BBX 8 10 0 -2
BITMAP
FF
01
FF
01
01
01
01
01
01
01
ENDCHAR
STARTCHAR U+2556
ENCODING 9558
SWIDTH 1000 0
DWIDTH 16 0
BBX 9 9 0 -2
BITMAP
FF80
0280
0280
0280
0280
0280
0280
0280
0280
ENDCHAR
STARTCHAR U+2557
ENCODING 9559
SWIDTH 1000 0
DWIDTH 16 0
BBX 9 10 0 -2
BITMAP
FF80
0080
FE80
0280
0280
0280
0280
0280
0280
0280
ENDCHAR
STARTCHAR U+2558
ENCODING 9560
SWIDTH 1000 0
DWIDTH 16 0
BBX 9 9 7 5
BITMAP
8000
8000
8000
8000
8000
8000
FF80
8000
FF80
ENDCHAR
STARTCHAR U+2559
ENCODING 9561
SWIDTH 1000 0
DWIDTH 16 0
BBX 10 8 6 6
BITMAP
A000
A000
A000
A000
A000
A000
A000
FFC0
ENDCHAR
STARTCHAR U+255A
ENCODING 9562
SWIDTH 1000 0
DWIDTH 16 0
BBX 10 9 6 5
BITMAP
A000
A000
A000
A000
A000
A000
BFC0
8000
FFC0
ENDCHAR
STARTCHAR U+255B
ENCODING 9563
SWIDTH 1000 0
DWIDTH 16 0
BBX 8 9 0 5
BITMAP
01
01
01
01
01
01
FF
01
FF
ENDCHAR
STARTCHAR U+255C
ENCODING 9564
SWIDTH 1000 0
DWIDTH 16 0
BBX 9 8 0 6
BITMAP
0280
0280
0280
0280
0280
0280
0280
FF80
ENDCHAR
STARTCHAR U+255D
ENCODING 9565
SWIDTH 1000 0
DWIDTH 16 0
BBX 9 9 0 5
BITMAP
0280
0280
0280
0280
0280
0280
FE80
0080
FF80
ENDCHAR
STARTCHAR U+255E
ENCODING 9566
SWIDTH 1000 0
DWIDTH 16 0
BBX 9 16 7 -2
BITMAP
8000
8000
8000
8000
8000
8000
FF80
8000
FF80
8000
8000
8000
8000
8000
8000
8000
ENDCHAR
STARTCHAR U+255F
ENCODING 9567
SWIDTH 1000 0
DWIDTH 16 0
BBX 10 16 6 -2
BITMAP
A000
A000
A000
A000
A000
A000
A000
BFC0
A000
A000
A000
A000
A000
A000
A000
A000
ENDCHAR
STARTCHAR U+2560
ENCODING 9568
SWIDTH 1000 0
DWIDTH 16 0
BBX 10 16 6 -2
BITMAP
A000
A000
A000
A000
A000
A000
BFC0
8000
BFC0
A000
A000
A000
A000
A000
A000
A000
ENDCHAR
STARTCHAR U+2561
ENCODING 9569
SWIDTH 1000 0
DWIDTH 16 0
BBX 8 16 0 -2
BITMAP
01
01
01
01
01
01
FF
01
FF
01
01
01
01
01
01
01
ENDCHAR
STARTCHAR U+2562
ENCODING 9570
SWIDTH 1000 0
DWIDTH 16 0
BBX 9 16 0 -2
BITMAP
0280
0280
0280
0280
0280
0280
0280
FE80
0280
0280
0280
0280
0280
0280
0280
0280
ENDCHAR
STARTCHAR U+2563
ENCODING 9571
SWIDTH 1000 0
DWIDTH 16 0
BBX 9 16 0 -2
BITMAP
0280
0280
0280
0280
0280
0280
FE80
0080
FE80
0280
0280
0280
0280
0280
0280
0280
ENDCHAR
STARTCHAR U+2564
ENCODING 9572
SWIDTH 1000 0
DWIDTH 16 0
BBX 16 10 0 -2
BITMAP
FFFF
0000
FFFF
0100
0100
0100
0100
0100
0100
0100
ENDCHAR
STARTCHAR U+2565
ENCODING 9573
SWIDTH 1000 0
DWIDTH 16 0
BBX 16 9 0 -2
BITMAP
FFFF
0280
0280
0280
0280
0280
0280
0280
0280
ENDCHAR
STARTCHAR U+2566
ENCODING 9574
SWIDTH 1000 0
DWIDTH 16 0
BBX 16 10 0 -2
BITMAP
FFFF
0000
FEFF
0280
0280
0280
0280
0280
0280
0280
ENDCHAR
STARTCHAR U+2567
ENCODING 9575
SWIDTH 1000 0
DWIDTH 16 0
BBX 16 9 0 5
BITMAP
0100
0100
0100
0100
0100
0100
FFFF
0000
FFFF
ENDCHAR
STARTCHAR U+2568
ENCODING 9576
SWIDTH 1000 0
DWIDTH 16 0
BBX 16 8 0 6
BITMAP
0280
0280
0280
0280
0280
0280
0280
FFFF
ENDCHAR
STARTCHAR U+2569
ENCODING 9577
SWIDTH 1000 0
DWIDTH 16 0
BBX 16 9 0 5
BITMAP
0280
0280
0280
0280
0280
0280
FEFF
0000
FFFF
ENDCHAR
STARTCHAR U+256A
ENCODING 9578
SWIDTH 1000 0
DWIDTH 16 0
BBX 16 16 0 -2
BITMAP
0100
0100
0100
0100
0100
0100
FFFF
0100
FFFF
0100
0100
0100
0100
0100
0100
0100
ENDCHAR
STARTCHAR U+256B
ENCODING 9579
SWIDTH 1000 0
DWIDTH 16 0
BBX 16 16 0 -2
BITMAP
0280
0280
0280
0280
0280
0280
0280
FFFF
0280
0280
0280
0280
0280
0280
0280
0280
ENDCHAR
STARTCHAR U+256C
ENCODING 9580
SWIDTH 1000 0
DWIDTH 16 0
BBX 16 16 0 -2
BITMAP
0280
0280
0280
0280
0280
0280
FEFF
0000
FEFF
0280
0280
0280
0280
0280
0280
0280
ENDCHAR
STARTCHAR U+2580
ENCODING 9600
SWIDTH 1000 0
DWIDTH 16 0
BBX 16 8 0 6
BITMAP
FFFF
FFFF
FFFF
FFFF
FFFF
FFFF
FFFF
FFFF
ENDCHAR
STARTCHAR U+2581
ENCODING 9601
SWIDTH 1000 0
DWIDTH 16 0
BBX 16 2 0 -2
BITMAP
FFFF
FFFF
ENDCHAR
STARTCHAR U+2582
ENCODING 9602
SWIDTH 1000 0
DWIDTH 16 0
BBX 16 4 0 -2
BITMAP
FFFF
FFFF
FFFF
FFFF
ENDCHAR
STARTCHAR U+2583
ENCODING 9603
SWIDTH 1000 0
DWIDTH 16 0
BBX 16 6 0 -2
BITMAP
FFFF
FFFF
FFFF
FFFF
FFFF
FFFF
ENDCHAR
STARTCHAR U+2584
ENCODING 9604
SWIDTH 1000 0
DWIDTH 16 0
BBX 16 8 0 -2
BITMAP
FFFF
FFFF
FFFF
FFFF
FFFF
FFFF
FFFF
FFFF
ENDCHAR
STARTCHAR U+2585
ENCODING 9605
SWIDTH 1000 0
DWIDTH 16 0
BBX 16 10 0 -2
BITMAP
FFFF
FFFF
FFFF
FFFF
FFFF
FFFF
FFFF
FFFF
FFFF
FFFF
ENDCHAR
STARTCHAR U+2586
ENCODING 9606
SWIDTH 1000 0
DWIDTH 16 0
BBX 16 12 0 -2
BITMAP
FFFF
FFFF
FFFF
FFFF
FFFF
FFFF
FFFF
FFFF
FFFF
FFFF
FFFF
FFFF
ENDCHAR
STARTCHAR U+2587
ENCODING 9607
SWIDTH 1000 0
DWIDTH 16 0
BBX 16 14 0 -2
BITMAP
FFFF
FFFF
FFFF
FFFF
FFFF
FFFF
FFFF
FFFF
FFFF
FFFF
FFFF
FFFF
FFFF
FFFF
ENDCHAR
STARTCHAR U+2588
ENCODING 9608
SWIDTH 1000 0
DWIDTH 16 0
BBX 16 16 0 -2
BITMAP
FFFF
FFFF
FFFF
FFFF
FFFF
FFFF
FFFF
FFFF
FFFF
FFFF
FFFF
FFFF
FFFF
FFFF
FFFF
FFFF
ENDCHAR
STARTCHAR U+2589
ENCODING 9609
SWIDTH 1000 0
DWIDTH 16 0
BBX 14 16 0 -2
BITMAP
FFFC
FFFC
FFFC
FFFC
FFFC
FFFC
FFFC
FFFC
FFFC
FFFC
FFFC
FFFC
FFFC
FFFC
FFFC
FFFC
ENDCHAR
STARTCHAR U+258A
ENCODING 9610
SWIDTH 1000 0
DWIDTH 16 0
BBX 12 16 0 -2
BITMAP
FFF0
FFF0
FFF0
FFF0
FFF0
FFF0
FFF0
FFF0
FFF0
FFF0
FFF0
FFF0
FFF0
FFF0
FFF0
FFF0
ENDCHAR
STARTCHAR U+258B
ENCODING 9611
SWIDTH 1000 0
DWIDTH 16 0
BBX 10 16 0 -2
BITMAP
FFC0
FFC0
FFC0
FFC0
FFC0
FFC0
FFC0
FFC0
FFC0
FFC0
FFC0
FFC0
FFC0
FFC0
FFC0
FFC0
ENDCHAR
STARTCHAR U+258C
ENCODING 9612
SWIDTH 1000 0
DWIDTH 16 0
BBX 8 16 0 -2
BITMAP
FF
FF
FF
FF
FF
FF
FF
FF
FF
FF
FF
FF
FF
FF
FF
FF
ENDCHAR
STARTCHAR U+258D
ENCODING 9613
SWIDTH 1000 0
DWIDTH 16 0
BBX 6 16 0 -2
BITMAP
FC
FC
FC
FC
FC
FC
FC
FC
FC
FC
FC
FC
FC
FC
FC
FC
ENDCHAR
STARTCHAR U+258E
ENCODING 9614
SWIDTH 1000 0
DWIDTH 16 0
BBX 4 16 0 -2
BITMAP
F0
F0
F0
F0
F0
F0
F0
F0
F0
F0
F0
F0
F0
F0
F0
F0
ENDCHAR
STARTCHAR U+258F
ENCODING 9615
SWIDTH 1000 0
DWIDTH 16 0
BBX 2 16 0 -2
BITMAP
C0
C0
C0
C0
C0
C0
C0
C0
C0
C0
C0
C0
C0
C0
C0
C0
ENDCHAR
STARTCHAR U+2590
ENCODING 9616
SWIDTH 1000 0
DWIDTH 16 0
BBX 8 16 8 -2
BITMAP
FF
FF
FF
FF
FF
FF
FF
FF
FF
FF
FF
FF
FF
FF
FF
FF
ENDCHAR
STARTCHAR U+25A0
ENCODING 9632
SWIDTH 1000 0
DWIDTH 16 0
BBX 15 16 0 -2
BITMAP
FFFE
FFFE
FFFE
FFFE
FFFE
FFFE
FFFE
FFFE
FFFE
FFFE
FFFE
FFFE
FFFE
FFFE
FFFE
FFFE
ENDCHAR
STARTCHAR U+25A1
ENCODING 9633
SWIDTH 1000 0
DWIDTH 16 0
BBX 15 16 0 -2
BITMAP
FFFE
8002
8002
8002
8002
8002
8002
8002
8002
8002
8002
8002
8002
8002
8002
FFFE
ENDCHAR
STARTCHAR U+25B2
ENCODING 9650
SWIDTH 1000 0
DWIDTH 16 0
BBX 15 15 0 -1
BITMAP
0100
0100
0380
0380
07C0
07C0
0FE0
0FE0
1FF0
1FF0
3FF8
3FF8
7FFC
7FFC
FFFE
ENDCHAR
STARTCHAR U+25B3
ENCODING 9651
SWIDTH 1000 0
DWIDTH 16 0
BBX 15 15 0 -1
BITMAP
0100
0100
0280
0280
0440
0440
0820
0820
1010
1010
2008
2008
4004
4004
FFFE
ENDCHAR
STARTCHAR U+25BC
ENCODING 9660
SWIDTH 1000 0
DWIDTH 16 0
BBX 15 15 0 -2
BITMAP
FFFE
7FFC
7FFC
3FF8
3FF8
1FF0
1FF0
0FE0
0FE0
07C0
07C0
0380
0380
0100
0100
ENDCHAR
STARTCHAR U+25BD
ENCODING 9661
SWIDTH 1000 0
DWIDTH 16 0
BBX 15 15 0 -2
BITMAP
FFFE
4004
4004
2008
2008
1010
1010
0820
0820
0440
0440
0280
0280
0100
0100
ENDCHAR
STARTCHAR U+25C6
ENCODING 9670
SWIDTH 1000 0
DWIDTH 16 0
BBX 15 16 0 -2
BITMAP
0100
0380
07C0
0FE0
1FF0
3FF8
7FFC
FFFE
FFFE
7FFC
3FF8
1FF0
0FE0
07C0
0380
0100
ENDCHAR
STARTCHAR U+25C7
ENCODING 9671
SWIDTH 1000 0
DWIDTH 16 0
BBX 15 15 0 -1
BITMAP
0100
0280
0440
0820
1010
2008
4004
8002
4004
2008
1010
0820
0440
0280
0100
ENDCHAR
STARTCHAR U+25CB
ENCODING 9675
SWIDTH 1000 0
DWIDTH 16 0
BBX 15 16 0 -2
BITMAP
07C0
1830
2008
4004
4004
8002
8002
8002
8002
8002
8002
4004
4004
2008
1830
07C0
ENDCHAR
STARTCHAR U+25CE
ENCODING 9678
SWIDTH 1000 0
DWIDTH 16 0
BBX 15 16 0 -2
BITMAP
07C0
1830
2008
4004
47C4
8822
9012
9012
9012
9012
8822
47C4
4004
2008
1830
07C0
ENDCHAR
STARTCHAR U+25CF
ENCODING 9679
SWIDTH 1000 0
DWIDTH 16 0
BBX 15 16 0 -2
BITMAP
07C0
1FF0
3FF8
7FFC
7FFC
FFFE
FFFE
FFFE
FFFE
FFFE
FFFE
7FFC
7FFC
3FF8
1FF0
07C0
ENDCHAR
STARTCHAR U+25EF
ENCODING 9711
SWIDTH 1000 0
DWIDTH 16 0
BBX 15 16 0 -2
BITMAP
07C0
1830
2008
4004
4004
8002
8002
8002
8002
8002
8002
4004
4004
2008
1830
07C0
ENDCHAR
STARTCHAR U+2605
ENCODING 9733
SWIDTH 1000 0
DWIDTH 16 0
BBX 15 16 0 -2
BITMAP
0100
0100
0380
0380
07C0
07C0
FFFE
3FF8
1FF0
07C0
0FE0
0FE0
1EF0
1C70
3018
2008
ENDCHAR
STARTCHAR U+2606
ENCODING 9734
SWIDTH 1000 0
DWIDTH 16 0
BBX 15 16 0 -2
BITMAP
0100
0100
0280
0280
0440
0440
F83E
2008
1830
0440
0820
0920
1290
1C70
3018
2008
ENDCHAR
STARTCHAR U+2640
ENCODING 9792
SWIDTH 1000 0
DWIDTH 16 0
BBX 11 15 2 -1
BITMAP
0E00
1100
2080
2080
2080
1100
0E00
0400
0400
FFE0
0400
0400
0400
0400
0400
ENDCHAR
STARTCHAR U+2642
ENCODING 9794
SWIDTH 1000 0
DWIDTH 16 0
BBX 14 14 0 -1
BITMAP
00FC
000C
0014
0024
0044
0084
0100
3A00
4400
8200
8200
8200
4400
3800
ENDCHAR
STARTCHAR U+266A
ENCODING 9834
SWIDTH 1000 0
DWIDTH 16 0
BBX 10 14 2 -1
BITMAP
0400
0600
0700
0580
04C0
0440
0440
0440
0480
1C00
7C00
F800
F800
6000
ENDCHAR
STARTCHAR U+266D
ENCODING 9837
SWIDTH 1000 0
DWIDTH 16 0
BBX 6 14 4 -1
BITMAP
80
80
80
80
B0
D8
CC
8C
88
98
B0
A0
C0
80
ENDCHAR
STARTCHAR U+266F
ENCODING 9839
SWIDTH 1000 0
DWIDTH 16 0
BBX 9 14 3 -1
BITMAP
0200
2200
2380
3F80
FE00
E200
2200
2200
2380
3F80
FE00
E200
2200
2000
ENDCHAR
STARTCHAR U+267F
ENCODING 9855
SWIDTH 1000 0
DWIDTH 16 0
BBX 15 16 0 -2
BITMAP
3FF8
4004
8032
8032
8182
8242
8C82
9082
A062
A012
A052
A052
908A
8F02
4004
3FF8
ENDCHAR
STARTCHAR U+26A0
ENCODING 9888
SWIDTH 1000 0
DWIDTH 16 0
BBX 13 14 1 -1
BITMAP
0200
0500
0500
0880
0880
1140
1140
2220
2220
4010
4410
8408
8008
7FF0
ENDCHAR
STARTCHAR U+26E9
ENCODING 9961
SWIDTH 1000 0
DWIDTH 16 0
BBX 15 16 0 -2
BITMAP
C006
3FF8
2388
2388
2388
7FFC
2008
2008
2008
2008
2008
2008
2008
2008
2008
701C
ENDCHAR
STARTCHAR U+2E80
ENCODING 11904
SWIDTH 1000 0
DWIDTH 16 0
BBX 11 12 2 0
BITMAP
6000
1800
0600
0180
0040
0020
E000
1800
0600
0180
0040
0020
ENDCHAR
STARTCHAR U+2E81
ENCODING 11905
SWIDTH 1000 0
DWIDTH 16 0
BBX 14 16 0 -2
BITMAP
000C
0070
1F80
2000
2000
2000
2000
2000
2000
2000
2000
2000
2000
4000
4000
8000
ENDCHAR
STARTCHAR U+2E82
ENCODING 11906
SWIDTH 1000 0
DWIDTH 16 0
BBX 15 5 0 8
BITMAP
FFFC
0002
0002
0004
0008
ENDCHAR
STARTCHAR U+2E83
ENCODING 11907
SWIDTH 1000 0
DWIDTH 16 0
BBX 13 16 2 -2
BITMAP
8000
8000
8000
8000
8000
8000
8000
8000
8000
8000
8000
8000
8008
8008
4008
3FF0
ENDCHAR
STARTCHAR U+2E84
ENCODING 11908
SWIDTH 1000 0
DWIDTH 16 0
BBX 15 15 0 -2
BITMAP
FF80
0040
0040
0040
0040
0040
0040
0040
0040
0020
0020
0020
0012
0012
000C
ENDCHAR
STARTCHAR U+2E85
ENCODING 11909
SWIDTH 1000 0
DWIDTH 16 0
BBX 5 16 5 -2
BITMAP
08
08
10
10
20
20
60
A0
20
20
20
20
20
20
20
20
ENDCHAR
STARTCHAR U+2E86
ENCODING 11910
SWIDTH 1000 0
DWIDTH 16 0
BBX 11 15 2 -2
BITMAP
1FC0
2020
2020
2020
2020
2020
2020
2020
2020
2020
2020
2020
4020
4020
81C0
ENDCHAR
STARTCHAR U+2E87
ENCODING 11911
SWIDTH 1000 0
DWIDTH 16 0
BBX 15 15 0 -2
BITMAP
1FF0
2008
2008
2008
2008
2008
2008
2008
2008
2008
200A
200A
400A
400A
8004
ENDCHAR
STARTCHAR U+2E88
ENCODING 11912
SWIDTH 1000 0
DWIDTH 16 0
BBX 14 9 0 5
BITMAP
0200
0200
03F8
0404
0404
0808
1010
2060
C000
ENDCHAR
STARTCHAR U+2E89
ENCODING 11913
SWIDTH 1000 0
DWIDTH 16 0
BBX 5 16 5 -2
BITMAP
08
88
88
88
88
88
88
88
88
88
88
08
08
08
08
70
ENDCHAR
STARTCHAR U+2E8A
ENCODING 11914
SWIDTH 1000 0
DWIDTH 16 0
BBX 8 16 6 -2
BITMAP
80
80
80
80
80
80
80
FF
80
80
80
80
80
80
80
80
ENDCHAR
STARTCHAR U+2E8B
ENCODING 11915
SWIDTH 1000 0
DWIDTH 16 0
BBX 14 9 1 -2
BITMAP
7FC0
8020
8020
8020
81C0
8004
8004
8004
7FF8
ENDCHAR
STARTCHAR U+2E8C
ENCODING 11916
SWIDTH 1000 0
DWIDTH 16 0
BBX 12 5 1 9
BITMAP
8210
4210
2210
2220
0200
ENDCHAR
STARTCHAR U+2E8D
ENCODING 11917
SWIDTH 1000 0
DWIDTH 16 0
BBX 10 3 2 11
BITMAP
8840
4440
4480
ENDCHAR
STARTCHAR U+2E8E
ENCODING 11918
SWIDTH 1000 0
DWIDTH 16 0
BBX 15 15 0 -2
BITMAP
FFFE
0440
0440
0440
0440
0440
0440
0440
0440
0440
0842
0842
1042
2042
C03C
ENDCHAR
STARTCHAR U+2E8F
ENCODING 11919
SWIDTH 1000 0
DWIDTH 16 0
BBX 15 16 0 -2
BITMAP
0460
0410
0808
1004
2002
C442
0440
0440
0440
0440
0440
0842
0842
1042
2042
C03C
ENDCHAR
STARTCHAR U+2E90
ENCODING 11920
SWIDTH 1000 0
DWIDTH 16 0
BBX 15 16 0 -2
BITMAP
0200
0200
0200
0200
FFFE
0280
0280
0280
0280
0480
0480
0880
0882
1082
2082
C07C
ENDCHAR
STARTCHAR U+2E91
ENCODING 11921
SWIDTH 1000 0
DWIDTH 16 0
BBX 15 16 0 -2
BITMAP
0460
0410
0808
1004
2002
C7C2
0820
0820
0820
0820
0820
0822
1022
1022
2022
C01C
ENDCHAR
STARTCHAR U+2E92
ENCODING 11922
SWIDTH 1000 0
DWIDTH 16 0
BBX 14 15 1 -2
BITMAP
7FE0
8010
8010
8010
8010
8010
FFE0
8000
8000
8000
8000
8004
8004
8004
7FF8
ENDCHAR
STARTCHAR U+2E93
ENCODING 11923
SWIDTH 1000 0
DWIDTH 16 0
BBX 14 16 1 -2
BITMAP
0200
0200
0400
0840
1040
2080
4080
3F00
0200
0440
0820
1010
6008
83F8
7C04
0004
ENDCHAR
STARTCHAR U+2E94
ENCODING 11924
SWIDTH 1000 0
DWIDTH 16 0
BBX 15 16 0 -2
BITMAP
0800
0800
0800
0800
0FC0
1020
1020
1020
1020
1020
0FC0
0040
0040
0040
0040
FFFE
ENDCHAR
STARTCHAR U+2E95
ENCODING 11925
SWIDTH 1000 0
DWIDTH 16 0
BBX 13 14 1 -1
BITMAP
FFF0
0008
0008
0008
0008
0008
7FF8
0008
0008
0008
0008
0008
0008
FFF0
ENDCHAR
STARTCHAR U+2E96
ENCODING 11926
SWIDTH 1000 0
DWIDTH 16 0
BBX 6 16 4 -2
BITMAP
10
10
10
58
54
54
54
90
10
10
10
10
10
10
10
10
ENDCHAR
STARTCHAR U+2E97
ENCODING 11927
SWIDTH 1000 0
DWIDTH 16 0
BBX 13 7 1 -2
BITMAP
0400
2520
2490
2448
4448
8400
1800
ENDCHAR
STARTCHAR U+2E98
ENCODING 11928
SWIDTH 1000 0
DWIDTH 16 0
BBX 7 16 4 -2
BITMAP
10
10
10
FE
10
10
10
16
38
D0
10
10
10
10
10
E0
ENDCHAR
STARTCHAR U+2E99
ENCODING 11929
SWIDTH 1000 0
DWIDTH 16 0
BBX 15 16 0 -2
BITMAP
0800
0800
1000
1FFE
2820
4820
8420
0440
0240
0280
0100
0280
0440
0820
3018
C006
ENDCHAR
STARTCHAR U+2E9B
ENCODING 11931
SWIDTH 1000 0
DWIDTH 16 0
BBX 15 15 0 -2
BITMAP
FFFE
0080
1080
1080
2080
2080
1FFE
0100
0180
0280
0280
0482
0882
3082
C07C
ENDCHAR
STARTCHAR U+2E9C
ENCODING 11932
SWIDTH 1000 0
DWIDTH 16 0
BBX 13 5 1 8
BITMAP
7FF0
8008
BFE8
8008
BFE8
ENDCHAR
STARTCHAR U+2E9D
ENCODING 11933
SWIDTH 1000 0
DWIDTH 16 0
BBX 11 15 2 -2
BITMAP
7FC0
8020
8020
8020
FFE0
8020
8020
8020
FFE0
8020
8020
8020
8020
8220
81C0
ENDCHAR
STARTCHAR U+2E9E
ENCODING 11934
SWIDTH 1000 0
DWIDTH 16 0
BBX 15 16 0 -2
BITMAP
0200
0200
03FE
1200
1200
1FF0
1008
2008
D810
0620
0140
0080
0100
0600
1800
E000
ENDCHAR
STARTCHAR U+2E9F
ENCODING 11935
SWIDTH 1000 0
DWIDTH 16 0
BBX 15 15 0 -2
BITMAP
0FF0
1008
1208
1108
1088
1088
1008
FFFE
2008
2208
2108
2088
2088
2008
1FF0
ENDCHAR
STARTCHAR U+2EA0
ENCODING 11936
SWIDTH 1000 0
DWIDTH 16 0
BBX 14 15 1 -2
BITMAP
7FF0
8008
8008
8008
FFF0
8200
8200
FFFC
8100
8100
8080
8084
8644
9824
6018
ENDCHAR
STARTCHAR U+2EA1
ENCODING 11937
SWIDTH 1000 0
DWIDTH 16 0
BBX 4 16 5 -2
BITMAP
40
20
20
80
40
40
00
10
10
20
20
20
40
40
80
80
ENDCHAR
STARTCHAR U+2EA2
ENCODING 11938
SWIDTH 1000 0
DWIDTH 16 0
BBX 15 16 0 -2
BITMAP
0100
0100
0100
6104
1108
0910
0560
0100
0560
0910
1108
2104
C102
0100
1100
0E00
ENDCHAR
STARTCHAR U+2EA3
ENCODING 11939
SWIDTH 1000 0
DWIDTH 16 0
BBX 15 3 0 -2
BITMAP
1488
2244
C222
ENDCHAR
STARTCHAR U+2EA4
ENCODING 11940
SWIDTH 1000 0
DWIDTH 16 0
BBX 13 7 1 7
BITMAP
0018
00E0
FF10
8410
4220
2220
2240
ENDCHAR
STARTCHAR U+2EA5
ENCODING 11941
SWIDTH 1000 0
DWIDTH 16 0
BBX 14 7 0 7
BITMAP
0018
01E0
7E10
2208
2104
4104
8000
ENDCHAR
STARTCHAR U+2EA6
ENCODING 11942
SWIDTH 1000 0
DWIDTH 16 0
BBX 4 16 5 -2
BITMAP
10
10
10
90
50
50
50
10
10
30
50
90
10
10
10
10
ENDCHAR
STARTCHAR U+2EA7
ENCODING 11943
SWIDTH 1000 0
DWIDTH 16 0
BBX 15 8 0 6
BITMAP
0100
1100
1100
3FFC
2100
4100
8100
FFFE
ENDCHAR
STARTCHAR U+2EA8
ENCODING 11944
SWIDTH 1000 0
DWIDTH 16 0
BBX 5 16 5 -2
BITMAP
08
88
50
20
20
50
90
10
28
48
88
08
08
08
90
60
ENDCHAR
STARTCHAR U+2EA9
ENCODING 11945
SWIDTH 1000 0
DWIDTH 16 0
BBX 6 11 5 1
BITMAP
FC
20
20
20
FC
20
20
20
24
38
E0
ENDCHAR
STARTCHAR U+2EAA
ENCODING 11946
SWIDTH 1000 0
DWIDTH 16 0
BBX 6 14 4 -1
BITMAP
F8
04
24
18
50
50
5C
50
50
50
54
58
70
C0
ENDCHAR
STARTCHAR U+2EAB
ENCODING 11947
SWIDTH 1000 0
DWIDTH 16 0
BBX 15 4 0 9
BITMAP
7FFC
8442
8442
7FFC
ENDCHAR
STARTCHAR U+2EAC
ENCODING 11948
SWIDTH 1000 0
DWIDTH 16 0
BBX 7 15 4 -2
BITMAP
7C
00
00
00
FE
10
10
54
54
54
54
94
10
10
10
ENDCHAR
STARTCHAR U+2EAD
ENCODING 11949
SWIDTH 1000 0
DWIDTH 16 0
BBX 7 16 4 -2
BITMAP
10
10
10
FC
02
02
04
08
18
34
D2
12
10
10
10
10
ENDCHAR
STARTCHAR U+2EAE
ENCODING 11950
SWIDTH 1000 0
DWIDTH 16 0
BBX 15 6 0 8
BITMAP
2080
2080
3EFE
5120
4910
8A10
ENDCHAR
STARTCHAR U+2EAF
ENCODING 11951
SWIDTH 1000 0
DWIDTH 16 0
BBX 7 16 4 -2
BITMAP
20
20
48
88
50
28
44
FC
12
58
54
54
54
90
10
10
ENDCHAR
STARTCHAR U+2EB0
ENCODING 11952
SWIDTH 1000 0
DWIDTH 16 0
BBX 6 15 4 -1
BITMAP
10
10
20
24
44
88
70
20
40
8C
70
00
04
18
E0
ENDCHAR
STARTCHAR U+2EB1
ENCODING 11953
SWIDTH 1000 0
DWIDTH 16 0
BBX 15 5 0 8
BITMAP
7FFC
8002
9C72
8382
9C72
ENDCHAR
STARTCHAR U+2EB2
ENCODING 11954
SWIDTH 1000 0
DWIDTH 16 0
BBX 15 5 0 8
BITMAP
7FFC
8822
8442
BFF2
800C
ENDCHAR
STARTCHAR U+2EB3
ENCODING 11955
SWIDTH 1000 0
DWIDTH 16 0
BBX 15 5 0 8
BITMAP
7FFC
8002
8462
1818
6004
ENDCHAR
STARTCHAR U+2EB4
ENCODING 11956
SWIDTH 1000 0
DWIDTH 16 0
BBX 15 15 0 -2
BITMAP
7FFC
8442
8442
0440
0440
0440
0440
0440
0440
0840
0842
1042
1042
2042
C03C
ENDCHAR
STARTCHAR U+2EB5
ENCODING 11957
SWIDTH 1000 0
DWIDTH 16 0
BBX 15 15 0 -2
BITMAP
7FFC
8442
8442
8442
8442
8442
8442
8442
8442
8442
8442
8442
8442
8442
8002
ENDCHAR
STARTCHAR U+2EB6
ENCODING 11958
SWIDTH 1000 0
DWIDTH 16 0
BBX 15 11 0 3
BITMAP
0820
0440
FFFE
0100
7FFC
0200
FFFE
0800
1000
2000
C000
ENDCHAR
STARTCHAR U+2EB7
ENCODING 11959
SWIDTH 1000 0
DWIDTH 16 0
BBX 15 7 0 7
BITMAP
0820
0440
FFFE
0100
7FFC
0100
FFFE
ENDCHAR
STARTCHAR U+2EB8
ENCODING 11960
SWIDTH 1000 0
DWIDTH 16 0
BBX 15 16 0 -2
BITMAP
0440
0440
0440
FC7E
0440
0440
0000
FFFE
0100
0100
0100
7FFC
0100
0100
0100
0100
ENDCHAR
STARTCHAR U+2EB9
ENCODING 11961
SWIDTH 1000 0
DWIDTH 16 0
BBX 15 12 0 2
BITMAP
0200
0208
7FF8
0210
0220
0240
FFFE
0100
0200
0C00
3000
C000
ENDCHAR
STARTCHAR U+2EBA
ENCODING 11962
SWIDTH 1000 0
DWIDTH 16 0
BBX 15 16 0 -2
BITMAP
0100
0100
3FF0
0108
0108
FFFE
0108
0108
3FF0
0100
0100
0100
0100
0100
0100
0100
ENDCHAR
STARTCHAR U+2EBB
ENCODING 11963
SWIDTH 1000 0
DWIDTH 16 0
BBX 15 11 0 3
BITMAP
0100
0100
3FF0
0108
FFFE
0108
0108
3FF0
0100
0100
FFFE
ENDCHAR
STARTCHAR U+2EBC
ENCODING 11964
SWIDTH 1000 0
DWIDTH 16 0
BBX 13 15 0 -2
BITMAP
0FF0
1008
1008
1008
1708
10C8
1028
1008
1708
10C8
1028
1008
2008
2088
C070
ENDCHAR
STARTCHAR U+2EBD
ENCODING 11965
SWIDTH 1000 0
DWIDTH 16 0
BBX 13 16 1 -2
BITMAP
0200
0C00
71F0
8008
8008
8008
8008
8008
FDF8
8008
8008
8008
8008
8008
8008
7DF0
ENDCHAR
STARTCHAR U+2EBE
ENCODING 11966
SWIDTH 1000 0
DWIDTH 16 0
BBX 15 5 0 9
BITMAP
0820
0820
FFFE
0820
0820
ENDCHAR
STARTCHAR U+2EBF
ENCODING 11967
SWIDTH 1000 0
DWIDTH 16 0
BBX 15 5 0 9
BITMAP
0820
0820
FEFE
0820
0820
ENDCHAR
STARTCHAR U+2EC0
ENCODING 11968
SWIDTH 1000 0
DWIDTH 16 0
BBX 15 16 0 -2
BITMAP
0440
0440
0440
0440
0440
0440
0440
FC7E
0440
0440
0440
0440
0440
0440
0440
0440
ENDCHAR
STARTCHAR U+2EC1
ENCODING 11969
SWIDTH 1000 0
DWIDTH 16 0
BBX 15 16 0 -2
BITMAP
0200
03F8
0200
1FFC
2402
27E2
3C0C
2408
23F0
2000
2240
2240
4242
4442
8842
303C
ENDCHAR
STARTCHAR U+2EC2
ENCODING 11970
SWIDTH 1000 0
DWIDTH 16 0
BBX 7 16 4 -2
BITMAP
10
10
10
F8
04
04
08
12
34
58
94
12
10
10
10
10
ENDCHAR
STARTCHAR U+2EC3
ENCODING 11971
SWIDTH 1000 0
DWIDTH 16 0
BBX 15 7 0 6
BITMAP
FFFE
0440
0440
3FF8
4444
4444
3FF8
ENDCHAR
STARTCHAR U+2EC4
ENCODING 11972
SWIDTH 1000 0
DWIDTH 16 0
BBX 15 15 0 -2
BITMAP
FFFE
0480
0480
0480
3FF8
4484
4484
4484
4884
4884
507C
6004
4004
4004
3FF8
ENDCHAR
STARTCHAR U+2EC5
ENCODING 11973
SWIDTH 1000 0
DWIDTH 16 0
BBX 15 15 0 -2
BITMAP
1FF0
2008
2008
2108
2108
2108
2108
2108
2108
2288
0280
0482
0882
3082
C07C
ENDCHAR
STARTCHAR U+2EC6
ENCODING 11974
SWIDTH 1000 0
DWIDTH 16 0
BBX 14 16 0 -2
BITMAP
0400
07C0
0820
1040
2FF8
D084
1084
1FFC
1084
1084
1FFC
1084
1084
1084
2084
C038
ENDCHAR
STARTCHAR U+2EC7
ENCODING 11975
SWIDTH 1000 0
DWIDTH 16 0
BBX 14 16 0 -2
BITMAP
0400
07C0
0820
1040
2FF8
D084
1144
1224
1C1C
1084
1144
1224
1C1C
1004
2004
C038
ENDCHAR
STARTCHAR U+2EC8
ENCODING 11976
SWIDTH 1000 0
DWIDTH 16 0
BBX 7 14 4 -1
BITMAP
20
10
08
08
00
E0
10
10
10
10
10
12
14
08
ENDCHAR
STARTCHAR U+2EC9
ENCODING 11977
SWIDTH 1000 0
DWIDTH 16 0
BBX 13 15 1 -2
BITMAP
3FE0
4010
4010
4210
4210
4210
4210
4210
4210
4210
0200
0580
0860
3010
C008
ENDCHAR
STARTCHAR U+2ECA
ENCODING 11978
SWIDTH 1000 0
DWIDTH 16 0
BBX 6 14 4 -1
BITMAP
38
44
44
44
44
38
10
50
5C
50
50
54
58
E0
ENDCHAR
STARTCHAR U+2ECB
ENCODING 11979
SWIDTH 1000 0
DWIDTH 16 0
BBX 15 16 0 -2
BITMAP
0400
0400
0400
FFFE
0800
1100
1100
2100
1FF0
0100
0100
FFFE
0100
0100
0100
0100
ENDCHAR
STARTCHAR U+2ECC
ENCODING 11980
SWIDTH 1000 0
DWIDTH 16 0
BBX 15 15 0 -2
BITMAP
4000
2000
2000
2000
0000
0000
C000
2000
2000
2000
2000
2000
3000
4800
87FE
ENDCHAR
STARTCHAR U+2ECD
ENCODING 11981
SWIDTH 1000 0
DWIDTH 16 0
BBX 15 15 0 -2
BITMAP
4000
2000
2000
0000
4000
2000
2000
0000
C000
2000
2000
2000
3000
4800
87FE
ENDCHAR
STARTCHAR U+2ECE
ENCODING 11982
SWIDTH 1000 0
DWIDTH 16 0
BBX 15 15 0 -2
BITMAP
4000
2000
2000
2000
0000
0000
C000
2000
4000
8000
4000
2000
3000
4800
87FE
ENDCHAR
STARTCHAR U+2ECF
ENCODING 11983
SWIDTH 1000 0
DWIDTH 16 0
BBX 6 15 5 -2
BITMAP
78
84
84
88
88
90
90
88
88
84
84
84
B8
80
80
ENDCHAR
STARTCHAR U+2ED0
ENCODING 11984
SWIDTH 1000 0
DWIDTH 16 0
BBX 7 15 4 -1
BITMAP
10
10
10
3E
20
40
BC
10
10
FE
10
10
12
14
08
ENDCHAR
STARTCHAR U+2ED1
ENCODING 11985
SWIDTH 1000 0
DWIDTH 16 0
BBX 15 15 0 -2
BITMAP
0FF8
1000
1000
1FF0
1000
1FF0
1000
FFFE
1104
1088
1050
1020
1090
1308
0C06
ENDCHAR
STARTCHAR U+2ED2
ENCODING 11986
SWIDTH 1000 0
DWIDTH 16 0
BBX 15 15 0 -2
BITMAP
0FF8
1000
1000
1FF0
1000
1000
1FF0
1000
1000
FFFE
0400
0810
1008
20F4
1F04
ENDCHAR
STARTCHAR U+2ED3
ENCODING 11987
SWIDTH 1000 0
DWIDTH 16 0
BBX 15 16 0 -2
BITMAP
1000
1008
1010
1020
10C0
1300
1000
FFFE
1200
1100
1080
1040
1020
1090
1308
0C06
ENDCHAR
STARTCHAR U+2ED4
ENCODING 11988
SWIDTH 1000 0
DWIDTH 16 0
BBX 15 16 0 -2
BITMAP
4000
27FC
1002
9002
8002
8002
8002
8002
8002
8002
8002
8002
8002
8002
8002
801C
ENDCHAR
STARTCHAR U+2ED5
ENCODING 11989
SWIDTH 1000 0
DWIDTH 16 0
BBX 12 16 2 -2
BITMAP
0800
0800
7FC0
8020
8020
FFC0
8000
FFC0
8020
8020
FFC0
8000
FFE0
8010
8010
7FE0
ENDCHAR
STARTCHAR U+2ED6
ENCODING 11990
SWIDTH 1000 0
DWIDTH 16 0
BBX 5 15 5 -2
BITMAP
70
88
88
90
90
A0
A0
90
90
88
88
88
F0
80
80
ENDCHAR
STARTCHAR U+2ED7
ENCODING 11991
SWIDTH 1000 0
DWIDTH 16 0
BBX 15 7 0 6
BITMAP
7FFC
0100
7FFC
8102
BD7A
0100
3D78
ENDCHAR
STARTCHAR U+2ED8
ENCODING 11992
SWIDTH 1000 0
DWIDTH 16 0
BBX 15 16 0 -2
BITMAP
0100
0100
7FFC
0100
3FF8
0100
FFFE
0000
0FE0
1010
1FF0
1010
1FF0
1010
1010
10E0
ENDCHAR
STARTCHAR U+2ED9
ENCODING 11993
SWIDTH 1000 0
DWIDTH 16 0
BBX 15 16 0 -2
BITMAP
0100
0100
0100
FFFE
0100
0100
7FFC
0100
0100
FFFC
0102
0102
0122
011C
0100
0100
ENDCHAR
STARTCHAR U+2EDA
ENCODING 11994
SWIDTH 1000 0
DWIDTH 16 0
BBX 15 15 0 -2
BITMAP
FFFE
0100
0200
0FE0
1010
1110
1110
1110
1110
1110
1110
0100
02E0
0C18
7004
ENDCHAR
STARTCHAR U+2EDB
ENCODING 11995
SWIDTH 1000 0
DWIDTH 16 0
BBX 15 15 0 -2
BITMAP
1FF0
2008
2048
2048
2848
2488
2288
2108
2188
2248
224A
242A
482A
500A
8004
ENDCHAR
STARTCHAR U+2EDC
ENCODING 11996
SWIDTH 1000 0
DWIDTH 16 0
BBX 15 15 0 -2
BITMAP
FF80
0044
0044
0048
0050
0060
0050
0048
0044
0024
0020
0020
0012
0012
000C
ENDCHAR
STARTCHAR U+2EDD
ENCODING 11997
SWIDTH 1000 0
DWIDTH 16 0
BBX 15 16 0 -2
BITMAP
0100
0280
0440
0920
1110
2FE8
D016
1FF0
1010
1010
1FE4
1108
10B0
1040
1330
0C0E
ENDCHAR
STARTCHAR U+2EDE
ENCODING 11998
SWIDTH 1000 0
DWIDTH 16 0
BBX 7 15 4 -1
BITMAP
10
10
28
7C
42
B8
44
7C
44
78
40
7C
40
40
3C
ENDCHAR
STARTCHAR U+2EDF
ENCODING 11999
SWIDTH 1000 0
DWIDTH 16 0
BBX 7 15 4 -1
BITMAP
10
10
28
54
52
B8
44
7C
44
78
50
48
44
4C
34
ENDCHAR
STARTCHAR U+2EE0
ENCODING 12000
SWIDTH 1000 0
DWIDTH 16 0
BBX 6 15 4 -1
BITMAP
20
20
20
38
44
44
A8
28
20
20
20
20
24
28
10
ENDCHAR
STARTCHAR U+2EE1
ENCODING 12001
SWIDTH 1000 0
DWIDTH 16 0
BBX 15 16 0 -2
BITMAP
0888
1110
2220
1110
0888
FFFE
0200
0400
1FF0
2008
3FF8
2008
3FF8
2008
2008
1FF0
ENDCHAR
STARTCHAR U+2EE2
ENCODING 12002
SWIDTH 1000 0
DWIDTH 16 0
BBX 15 15 0 -2
BITMAP
7FE0
0010
0810
0810
0810
1020
1020
0FFC
0002
0002
FFF2
0002
0002
0004
0038
ENDCHAR
STARTCHAR U+2EE3
ENCODING 12003
SWIDTH 1000 0
DWIDTH 16 0
BBX 15 15 0 -2
BITMAP
0FE0
1010
13F0
1410
7FFC
8002
8FE2
1010
1FF0
1010
1FF0
1010
1010
1010
10E0
ENDCHAR
STARTCHAR U+2EE4
ENCODING 12004
SWIDTH 1000 0
DWIDTH 16 0
BBX 15 16 0 -2
BITMAP
0400
0400
3FF8
4104
4104
7FFC
4104
4104
3FF8
0120
0950
0988
1172
1102
2102
C0FC
ENDCHAR
STARTCHAR U+2EE5
ENCODING 12005
SWIDTH 1000 0
DWIDTH 16 0
BBX 15 16 0 -2
BITMAP
0800
0F80
1040
2080
5FF0
A108
2108
2108
3FF8
2108
2108
2108
1FF0
0000
0000
FFFE
ENDCHAR
STARTCHAR U+2EE6
ENCODING 12006
SWIDTH 1000 0
DWIDTH 16 0
BBX 15 16 0 -2
BITMAP
0400
0400
1FE0
2010
2610
2110
2110
2060
2000
1FFC
0002
0002
FFF2
0002
0004
0038
ENDCHAR
STARTCHAR U+2EE7
ENCODING 12007
SWIDTH 1000 0
DWIDTH 16 0
BBX 14 16 1 -2
BITMAP
0200
0200
03FC
0200
0200
7FF0
8008
8048
9848
8688
8108
8288
8C48
B048
8008
7FF0
ENDCHAR
STARTCHAR U+2EE8
ENCODING 12008
SWIDTH 1000 0
DWIDTH 16 0
BBX 15 16 0 -2
BITMAP
0100
0100
FFFE
0100
7FFC
0100
0100
FFFE
0400
07E0
0810
3420
C240
0180
0E70
F00E
ENDCHAR
STARTCHAR U+2EE9
ENCODING 12009
SWIDTH 1000 0
DWIDTH 16 0
BBX 15 16 0 -2
BITMAP
0440
0440
7FFC
0440
0440
FFFE
0100
1FF0
2108
2108
3FF8
2108
2108
1FF0
0820
701C
ENDCHAR
STARTCHAR U+2EEA
ENCODING 12010
SWIDTH 1000 0
DWIDTH 16 0
BBX 15 15 0 -2
BITMAP
3FF0
4008
4008
3FF0
0200
7FF8
8204
8204
FFFC
8204
8204
7FFA
0202
0202
01FC
ENDCHAR
STARTCHAR U+2EEB
ENCODING 12011
SWIDTH 1000 0
DWIDTH 16 0
BBX 15 16 0 -2
BITMAP
0100
0100
FFFE
0820
0440
0380
1C70
F01E
1FF0
1010
1010
1FF0
1010
1010
2010
C010
ENDCHAR
STARTCHAR U+2EEC
ENCODING 12012
SWIDTH 1000 0
DWIDTH 16 0
BBX 15 16 0 -2
BITMAP
0100
0100
FFFE
1010
0820
0440
0380
1C70
E00E
0820
0820
0820
1020
1020
2020
C020
ENDCHAR
STARTCHAR U+2EED
ENCODING 12013
SWIDTH 1000 0
DWIDTH 16 0
BBX 15 16 0 -2
BITMAP
0100
11F8
1100
1100
FFFE
0000
4924
4524
4544
5FF4
4104
4384
4544
5934
4104
3FF8
ENDCHAR
STARTCHAR U+2EEE
ENCODING 12014
SWIDTH 1000 0
DWIDTH 16 0
BBX 15 16 0 -2
BITMAP
0100
1100
11FC
1100
1100
FFFE
0000
4104
4104
4104
4284
4244
4424
5824
4004
3FF8
ENDCHAR
STARTCHAR U+2EEF
ENCODING 12015
SWIDTH 1000 0
DWIDTH 16 0
BBX 15 16 0 -2
BITMAP
0100
0100
7FFC
0820
0440
FFFE
0000
1FF0
2108
2108
3FF8
2108
210A
1FF2
0102
00FC
ENDCHAR
STARTCHAR U+2EF0
ENCODING 12016
SWIDTH 1000 0
DWIDTH 16 0
BBX 15 16 0 -2
BITMAP
0220
0210
0210
0200
FFFE
0200
0288
0288
0490
04A0
04C0
0880
0982
1282
2C82
C07C
ENDCHAR
STARTCHAR U+2EF1
ENCODING 12017
SWIDTH 1000 0
DWIDTH 16 0
BBX 15 16 0 -2
BITMAP
0800
1F80
2040
FFF8
4284
3EF8
0280
72F8
0ACC
FEB4
0AB4
72CC
0AFA
FE82
0A82
71FC
ENDCHAR
STARTCHAR U+2EF2
ENCODING 12018
SWIDTH 1000 0
DWIDTH 16 0
BBX 15 16 0 -2
BITMAP
0800
0F80
1040
3FF0
E108
3FF8
2108
1FF0
0100
3FF8
4104
7FFC
4104
3FFA
0102
00FC
ENDCHAR
STARTCHAR U+2EF3
ENCODING 12019
SWIDTH 1000 0
DWIDTH 16 0
BBX 15 16 0 -2
BITMAP
0800
0800
1FC0
2020
C040
3FF8
4104
4104
7FFC
4104
4104
3FF8
0102
0102
0102
00FC
ENDCHAR
STARTCHAR U+2F00
ENCODING 12032
SWIDTH 1000 0
DWIDTH 16 0
BBX 15 1 0 6
BITMAP
FFFE
ENDCHAR
STARTCHAR U+2F01
ENCODING 12033
SWIDTH 1000 0
DWIDTH 16 0
BBX 1 16 7 -2
BITMAP
80
80
80
80
80
80
80
80
80
80
80
80
80
80
80
80
ENDCHAR
STARTCHAR U+2F02
ENCODING 12034
SWIDTH 1000 0
DWIDTH 16 0
BBX 8 11 3 1
BITMAP
80
40
20
10
08
08
04
02
02
01
01
ENDCHAR
STARTCHAR U+2F03
ENCODING 12035
SWIDTH 1000 0
DWIDTH 16 0
BBX 8 16 2 -2
BITMAP
01
01
01
01
01
01
01
01
01
01
01
02
02
04
18
E0
ENDCHAR
STARTCHAR U+2F04
ENCODING 12036
SWIDTH 1000 0
DWIDTH 16 0
BBX 15 15 0 -2
BITMAP
FFE0
0010
0010
0020
00C0
0300
0C00
1000
2000
2000
4000
4002
4002
2002
1FFC
ENDCHAR
STARTCHAR U+2F05
ENCODING 12037
SWIDTH 1000 0
DWIDTH 16 0
BBX 4 16 5 -2
BITMAP
10
10
10
10
10
10
10
10
10
10
10
10
10
10
10
E0
ENDCHAR
STARTCHAR U+2F06
ENCODING 12038
SWIDTH 1000 0
DWIDTH 16 0
BBX 15 12 0 0
BITMAP
3FF8
0000
0000
0000
0000
0000
0000
0000
0000
0000
0000
FFFE
ENDCHAR
STARTCHAR U+2F07
ENCODING 12039
SWIDTH 1000 0
DWIDTH 16 0
BBX 15 6 0 4
BITMAP
0100
0100
0100
0100
0100
FFFE
ENDCHAR
STARTCHAR U+2F08
ENCODING 12040
SWIDTH 1000 0
DWIDTH 16 0
BBX 15 16 0 -2
BITMAP
0100
0100
0100
0100
0100
0100
0280
0280
0280
0440
0440
0820
0820
1010
2008
C006
ENDCHAR
STARTCHAR U+2F09
ENCODING 12041
SWIDTH 1000 0
DWIDTH 16 0
BBX 15 16 0 -2
BITMAP
0440
0440
0440
0440
0440
0440
0440
0440
0440
0440
0440
0842
0842
1042
2042
C03C
ENDCHAR
STARTCHAR U+2F0A
ENCODING 12042
SWIDTH 1000 0
DWIDTH 16 0
BBX 15 15 0 -2
BITMAP
3E00
0100
0100
0100
0100
0100
0280
0280
0280
0440
0440
0820
1010
2008
C006
ENDCHAR
STARTCHAR U+2F0B
ENCODING 12043
SWIDTH 1000 0
DWIDTH 16 0
BBX 15 16 0 -2
BITMAP
0480
0480
0480
0480
0480
0480
0440
0440
0840
0820
0820
1010
1010
2008
4004
8002
ENDCHAR
STARTCHAR U+2F0C
ENCODING 12044
SWIDTH 1000 0
DWIDTH 16 0
BBX 13 15 1 -2
BITMAP
7FF0
8008
8008
8008
8008
8008
8008
8008
8008
8008
8008
8008
8008
8008
8070
ENDCHAR
STARTCHAR U+2F0D
ENCODING 12045
SWIDTH 1000 0
DWIDTH 16 0
BBX 15 5 0 4
BITMAP
7FFC
8002
8002
8002
8002
ENDCHAR
STARTCHAR U+2F0E
ENCODING 12046
SWIDTH 1000 0
DWIDTH 16 0
BBX 7 16 4 -2
BITMAP
40
20
10
10
10
00
02
04
04
08
10
10
20
40
40
80
ENDCHAR
STARTCHAR U+2F0F
ENCODING 12047
SWIDTH 1000 0
DWIDTH 16 0
BBX 15 15 0 -2
BITMAP
07C0
0820
0820
0820
0820
0820
0820
0820
0820
0820
0822
1022
1022
2022
C01C
ENDCHAR
STARTCHAR U+2F10
ENCODING 12048
SWIDTH 1000 0
DWIDTH 16 0
BBX 15 16 0 -2
BITMAP
8002
8002
8002
8002
8002
8002
8002
8002
8002
8002
8002
8002
8002
8002
8002
7FFC
ENDCHAR
STARTCHAR U+2F11
ENCODING 12049
SWIDTH 1000 0
DWIDTH 16 0
BBX 15 15 0 -2
BITMAP
FFFC
0202
0202
0202
0202
0202
0202
0202
0402
0402
0802
0804
1004
2088
C070
ENDCHAR
STARTCHAR U+2F12
ENCODING 12050
SWIDTH 1000 0
DWIDTH 16 0
BBX 15 16 0 -2
BITMAP
0200
0200
0200
0200
FFFC
0202
0202
0202
0202
0402
0402
0402
0804
1004
2088
C070
ENDCHAR
STARTCHAR U+2F13
ENCODING 12051
SWIDTH 1000 0
DWIDTH 16 0
BBX 15 16 0 -2
BITMAP
1000
1000
1000
1FFC
2002
2002
4002
8002
0002
0002
0002
0002
0004
0004
0088
0070
ENDCHAR
STARTCHAR U+2F14
ENCODING 12052
SWIDTH 1000 0
DWIDTH 16 0
BBX 15 16 0 -2
BITMAP
1000
1000
1000
1000
1004
1018
1060
1380
1C00
F000
1000
1000
1002
1002
1002
0FFC
ENDCHAR
STARTCHAR U+2F15
ENCODING 12053
SWIDTH 1000 0
DWIDTH 16 0
BBX 15 15 0 -2
BITMAP
7FFE
8000
8000
8000
8000
8000
8000
8000
8000
8000
8000
8000
8000
8000
7FFE
ENDCHAR
STARTCHAR U+2F16
ENCODING 12054
SWIDTH 1000 0
DWIDTH 16 0
BBX 15 15 0 -2
BITMAP
FFFE
4000
4000
4000
4000
4000
4000
4000
4000
4000
4000
4000
4000
4000
3FFE
ENDCHAR
STARTCHAR U+2F17
ENCODING 12055
SWIDTH 1000 0
DWIDTH 16 0
BBX 15 16 0 -2
BITMAP
0100
0100
0100
0100
0100
0100
FFFE
0100
0100
0100
0100
0100
0100
0100
0100
0100
ENDCHAR
STARTCHAR U+2F18
ENCODING 12056
SWIDTH 1000 0
DWIDTH 16 0
BBX 8 16 6 -2
BITMAP
80
80
80
80
80
E0
98
84
82
81
80
80
80
80
80
80
ENDCHAR
STARTCHAR U+2F19
ENCODING 12057
SWIDTH 1000 0
DWIDTH 16 0
BBX 8 15 4 -2
BITMAP
7E
81
81
81
81
81
81
81
81
91
8E
80
80
80
80
ENDCHAR
STARTCHAR U+2F1A
ENCODING 12058
SWIDTH 1000 0
DWIDTH 16 0
BBX 15 15 0 -2
BITMAP
1FFE
2000
2000
2000
2000
2000
2000
2000
2000
2000
2000
2000
4000
4000
8000
ENDCHAR
STARTCHAR U+2F1B
ENCODING 12059
SWIDTH 1000 0
DWIDTH 16 0
BBX 15 16 0 -2
BITMAP
0200
0200
0200
0200
0400
0400
0800
0800
1020
1010
2008
2008
4004
4004
80FA
7F02
ENDCHAR
STARTCHAR U+2F1C
ENCODING 12060
SWIDTH 1000 0
DWIDTH 16 0
BBX 15 15 0 -2
BITMAP
FFF0
1008
1008
1008
1008
0810
0810
0420
0440
0280
0100
0280
0C60
3018
C006
ENDCHAR
STARTCHAR U+2F1D
ENCODING 12061
SWIDTH 1000 0
DWIDTH 16 0
BBX 13 14 1 -1
BITMAP
7FF0
8008
8008
8008
8008
8008
8008
8008
8008
8008
8008
8008
8008
7FF0
ENDCHAR
STARTCHAR U+2F1E
ENCODING 12062
SWIDTH 1000 0
DWIDTH 16 0
BBX 15 15 0 -2
BITMAP
7FFC
8002
8002
8002
8002
8002
8002
8002
8002
8002
8002
8002
8002
8002
7FFC
ENDCHAR
STARTCHAR U+2F1F
ENCODING 12063
SWIDTH 1000 0
DWIDTH 16 0
BBX 15 16 0 -2
BITMAP
0100
0100
0100
0100
0100
0100
0100
7FFC
0100
0100
0100
0100
0100
0100
0100
FFFE
ENDCHAR
STARTCHAR U+2F20
ENCODING 12064
SWIDTH 1000 0
DWIDTH 16 0
BBX 15 16 0 -2
BITMAP
0100
0100
0100
0100
0100
0100
FFFE
0100
0100
0100
0100
0100
0100
0100
0100
7FFC
ENDCHAR
STARTCHAR U+2F21
ENCODING 12065
SWIDTH 1000 0
DWIDTH 16 0
BBX 15 16 0 -2
BITMAP
0400
0400
0400
07E0
0810
0C10
1220
2220
C140
0080
0180
0240
0420
0810
3008
C006
ENDCHAR
STARTCHAR U+2F22
ENCODING 12066
SWIDTH 1000 0
DWIDTH 16 0
BBX 15 16 0 -2
BITMAP
0200
0200
2200
27E0
1410
0810
1820
2420
C440
0280
0100
0280
0440
0820
3018
C006
ENDCHAR
STARTCHAR U+2F23
ENCODING 12067
SWIDTH 1000 0
DWIDTH 16 0
BBX 14 16 0 -2
BITMAP
0200
0200
03F8
0404
0404
0C08
1208
2110
C090
00A0
0040
0080
0100
0600
1800
E000
ENDCHAR
STARTCHAR U+2F24
ENCODING 12068
SWIDTH 1000 0
DWIDTH 16 0
BBX 15 16 0 -2
BITMAP
0100
0100
0100
0100
FFFE
0100
0280
0280
0280
0440
0440
0820
0820
1010
2008
C006
ENDCHAR
STARTCHAR U+2F25
ENCODING 12069
SWIDTH 1000 0
DWIDTH 16 0
BBX 15 16 0 -2
BITMAP
0200
0200
0200
0400
0400
FFFE
0420
0820
0820
1040
1040
0E80
0180
0260
0C18
F004
ENDCHAR
STARTCHAR U+2F26
ENCODING 12070
SWIDTH 1000 0
DWIDTH 16 0
BBX 15 15 0 -2
BITMAP
3FF0
0008
0008
0410
0220
0140
FFFE
0080
0040
0040
0040
0040
0040
0880
0700
ENDCHAR
STARTCHAR U+2F27
ENCODING 12071
SWIDTH 1000 0
DWIDTH 16 0
BBX 15 7 0 7
BITMAP
0100
0100
0100
7FFC
8002
8002
8002
ENDCHAR
STARTCHAR U+2F28
ENCODING 12072
SWIDTH 1000 0
DWIDTH 16 0
BBX 15 16 0 -2
BITMAP
0010
0010
0010
0010
FFFE
0010
1010
0810
0810
0410
0410
0010
0010
0010
0110
00E0
ENDCHAR
STARTCHAR U+2F29
ENCODING 12073
SWIDTH 1000 0
DWIDTH 16 0
BBX 15 16 0 -2
BITMAP
0100
0100
0100
1120
1110
1108
1108
1104
2104
2102
4102
8102
0100
0100
1100
0E00
ENDCHAR
STARTCHAR U+2F2A
ENCODING 12074
SWIDTH 1000 0
DWIDTH 16 0
BBX 15 16 0 -2
BITMAP
0200
0200
0200
0200
FFFE
0280
0280
0280
0280
0480
0480
0880
0882
1082
2082
C07C
ENDCHAR
STARTCHAR U+2F2B
ENCODING 12075
SWIDTH 1000 0
DWIDTH 16 0
BBX 15 15 0 -2
BITMAP
1FFC
2002
2002
2002
2002
3FFC
2000
2000
2000
2000
2000
2000
4000
4000
8000
ENDCHAR
STARTCHAR U+2F2C
ENCODING 12076
SWIDTH 1000 0
DWIDTH 16 0
BBX 11 16 2 -2
BITMAP
0400
0400
8420
8420
8420
8420
8420
8420
8420
8420
7FC0
0400
0400
0800
1000
E000
ENDCHAR
STARTCHAR U+2F2D
ENCODING 12077
SWIDTH 1000 0
DWIDTH 16 0
BBX 13 16 1 -2
BITMAP
0200
0200
0200
8208
8208
8208
8208
8208
8208
8208
8208
8208
8208
8208
8208
7FF0
ENDCHAR
STARTCHAR U+2F2E
ENCODING 12078
SWIDTH 1000 0
DWIDTH 16 0
BBX 14 16 0 -2
BITMAP
1084
1084
1084
2108
2108
4210
8420
8420
8420
4210
2108
2108
1084
1084
1084
1084
ENDCHAR
STARTCHAR U+2F2F
ENCODING 12079
SWIDTH 1000 0
DWIDTH 16 0
BBX 15 13 0 -1
BITMAP
7FFC
0100
0100
0100
0100
0100
0100
0100
0100
0100
0100
0100
FFFE
ENDCHAR
STARTCHAR U+2F30
ENCODING 12080
SWIDTH 1000 0
DWIDTH 16 0
BBX 15 15 0 -2
BITMAP
FFF0
0008
0008
0008
0008
3FF0
4000
4000
4000
4000
4000
4002
4002
4002
3FFC
ENDCHAR
STARTCHAR U+2F31
ENCODING 12081
SWIDTH 1000 0
DWIDTH 16 0
BBX 13 16 1 -2
BITMAP
0200
0200
0200
7FF0
8208
8208
8208
8208
8208
8208
8208
8208
8270
0200
0200
0200
ENDCHAR
STARTCHAR U+2F32
ENCODING 12082
SWIDTH 1000 0
DWIDTH 16 0
BBX 15 15 0 -2
BITMAP
7FFC
0100
0100
0100
0100
0100
FFFE
0100
0100
0100
0100
0100
0100
0100
0100
ENDCHAR
STARTCHAR U+2F33
ENCODING 12083
SWIDTH 1000 0
DWIDTH 16 0
BBX 15 16 0 -2
BITMAP
0200
0200
0400
0420
0820
1040
3040
0880
0500
0220
0210
0408
0804
11FE
FE02
0002
ENDCHAR
STARTCHAR U+2F34
ENCODING 12084
SWIDTH 1000 0
DWIDTH 16 0
BBX 15 15 0 -1
BITMAP
0080
0080
1FFE
2000
2000
2000
2000
2000
2000
2000
2000
2000
4000
4000
8000
ENDCHAR
STARTCHAR U+2F35
ENCODING 12085
SWIDTH 1000 0
DWIDTH 16 0
BBX 15 15 0 -2
BITMAP
F000
0800
1000
2000
4000
4000
3000
8800
8800
5000
5000
2000
3000
4C00
83FE
ENDCHAR
STARTCHAR U+2F36
ENCODING 12086
SWIDTH 1000 0
DWIDTH 16 0
BBX 15 16 0 -2
BITMAP
0820
0820
0820
0820
0820
0820
0820
FFFE
0820
0820
0820
0820
1020
1020
2020
C020
ENDCHAR
STARTCHAR U+2F37
ENCODING 12087
SWIDTH 1000 0
DWIDTH 16 0
BBX 15 16 0 -2
BITMAP
0220
0210
0208
0200
FFFE
0200
0200
0100
0100
0100
0080
0080
0042
0022
0012
000C
ENDCHAR
STARTCHAR U+2F38
ENCODING 12088
SWIDTH 1000 0
DWIDTH 16 0
BBX 15 15 0 -2
BITMAP
FFF8
0004
0004
0004
7FF8
8000
8000
8000
7FFC
0002
0002
0002
0004
0018
01E0
ENDCHAR
STARTCHAR U+2F39
ENCODING 12089
SWIDTH 1000 0
DWIDTH 16 0
BBX 15 14 0 -1
BITMAP
7FF0
0008
0008
0008
0008
0008
3FF8
0008
0008
0008
0008
0008
0008
FFFE
ENDCHAR
STARTCHAR U+2F3A
ENCODING 12090
SWIDTH 1000 0
DWIDTH 16 0
BBX 14 16 1 -2
BITMAP
0040
0080
0300
0C00
F010
0060
0080
0300
0C04
7008
0010
0060
0080
0300
1C00
E000
ENDCHAR
STARTCHAR U+2F3B
ENCODING 12091
SWIDTH 1000 0
DWIDTH 16 0
BBX 10 16 2 -2
BITMAP
0080
0100
0200
0400
1840
E080
0300
0400
1C00
E400
0400
0400
0400
0400
0400
0400
ENDCHAR
STARTCHAR U+2F3C
ENCODING 12092
SWIDTH 1000 0
DWIDTH 16 0
BBX 15 16 0 -2
BITMAP
0200
0100
0080
0880
0840
0840
2808
2804
2804
2802
4802
4812
8810
0810
0810
07E0
ENDCHAR
STARTCHAR U+2F3D
ENCODING 12093
SWIDTH 1000 0
DWIDTH 16 0
BBX 15 16 0 -2
BITMAP
0220
0210
0208
0200
FFFE
0200
0210
0110
0120
0140
0080
0140
0642
1822
E012
000C
ENDCHAR
STARTCHAR U+2F3E
ENCODING 12094
SWIDTH 1000 0
DWIDTH 16 0
BBX 14 16 0 -2
BITMAP
000C
0070
1F80
2000
3FF0
2008
2008
2008
2008
3FF0
2000
2000
2000
4000
4000
8000
ENDCHAR
STARTCHAR U+2F3F
ENCODING 12095
SWIDTH 1000 0
DWIDTH 16 0
BBX 15 16 0 -2
BITMAP
0008
0070
3F80
0080
0080
7FFC
0080
0080
0080
FFFE
0080
0080
0080
0080
0100
0E00
ENDCHAR
STARTCHAR U+2F40
ENCODING 12096
SWIDTH 1000 0
DWIDTH 16 0
BBX 15 16 0 -2
BITMAP
0100
0100
0100
FFFE
0100
0100
0100
7FE0
1010
0810
0420
0240
0180
0640
1830
E00E
ENDCHAR
STARTCHAR U+2F41
ENCODING 12097
SWIDTH 1000 0
DWIDTH 16 0
BBX 15 16 0 -2
BITMAP
0100
0100
0100
01FC
0100
0100
7FF0
0808
0410
0420
0240
0180
0280
0C60
3018
C006
ENDCHAR
STARTCHAR U+2F42
ENCODING 12098
SWIDTH 1000 0
DWIDTH 16 0
BBX 15 16 0 -2
BITMAP
0100
0100
0100
FFFE
1010
1010
1010
0820
0820
0440
0280
0100
0280
0C60
3018
C006
ENDCHAR
STARTCHAR U+2F43
ENCODING 12099
SWIDTH 1000 0
DWIDTH 16 0
BBX 15 16 0 -2
BITMAP
0020
0820
0420
4220
2120
1120
0820
0820
0020
003E
07E0
F820
0020
0020
0020
0020
ENDCHAR
STARTCHAR U+2F44
ENCODING 12100
SWIDTH 1000 0
DWIDTH 16 0
BBX 15 16 0 -2
BITMAP
0018
00E0
1F00
2000
2000
2000
3FFE
2040
2040
2040
2040
2040
4040
4040
8040
0040
ENDCHAR
STARTCHAR U+2F45
ENCODING 12101
SWIDTH 1000 0
DWIDTH 16 0
BBX 15 16 0 -2
BITMAP
0100
0100
0100
FFFE
0400
0400
0400
07F0
0408
0408
0408
0808
0808
1010
2110
C0E0
ENDCHAR
STARTCHAR U+2F46
ENCODING 12102
SWIDTH 1000 0
DWIDTH 16 0
BBX 15 15 0 -2
BITMAP
7FFC
0100
0100
0100
0100
FFFE
0100
0180
0280
0280
0480
0482
0882
3082
C07C
ENDCHAR
STARTCHAR U+2F47
ENCODING 12103
SWIDTH 1000 0
DWIDTH 16 0
BBX 11 15 2 -2
BITMAP
7FC0
8020
8020
8020
8020
8020
8020
FFE0
8020
8020
8020
8020
8020
8020
7FC0
ENDCHAR
STARTCHAR U+2F48
ENCODING 12104
SWIDTH 1000 0
DWIDTH 16 0
BBX 13 12 1 0
BITMAP
7FF0
8008
8008
8008
8008
FFC8
8008
8008
8008
8008
8008
7FF0
ENDCHAR
STARTCHAR U+2F49
ENCODING 12105
SWIDTH 1000 0
DWIDTH 16 0
BBX 13 15 0 -2
BITMAP
0FF0
1008
1008
1008
1FF8
1008
1008
1008
1FF8
1008
1008
1008
2008
2088
C070
ENDCHAR
STARTCHAR U+2F4A
ENCODING 12106
SWIDTH 1000 0
DWIDTH 16 0
BBX 15 16 0 -2
BITMAP
0100
0100
0100
FFFE
0100
0380
0540
0540
0920
0920
1110
2108
4104
8102
0100
0100
ENDCHAR
STARTCHAR U+2F4B
ENCODING 12107
SWIDTH 1000 0
DWIDTH 16 0
BBX 15 16 0 -2
BITMAP
0800
0800
0800
1FFC
1002
2102
4104
8118
0280
0280
0440
0440
0820
1010
2008
C006
ENDCHAR
STARTCHAR U+2F4C
ENCODING 12108
SWIDTH 1000 0
DWIDTH 16 0
BBX 15 16 0 -2
BITMAP
0100
0100
0100
0100
2100
2100
2100
21FC
2100
2100
2100
2100
2100
2100
2100
FFFE
ENDCHAR
STARTCHAR U+2F4D
ENCODING 12109
SWIDTH 1000 0
DWIDTH 16 0
BBX 15 15 0 -2
BITMAP
FFFE
0200
0200
0400
0FF0
1008
2008
D810
0620
0140
0080
0100
0600
1800
E000
ENDCHAR
STARTCHAR U+2F4E
ENCODING 12110
SWIDTH 1000 0
DWIDTH 16 0
BBX 15 15 0 -2
BITMAP
0780
0840
0840
0842
1042
203C
C000
3FE0
0810
0420
0240
0180
06C0
1830
E00E
ENDCHAR
STARTCHAR U+2F4F
ENCODING 12111
SWIDTH 1000 0
DWIDTH 16 0
BBX 15 15 0 -2
BITMAP
0FF0
1108
1108
1108
1108
1108
1108
FFFE
2210
2210
2210
2210
2210
2210
1FE0
ENDCHAR
STARTCHAR U+2F50
ENCODING 12112
SWIDTH 1000 0
DWIDTH 16 0
BBX 14 16 1 -2
BITMAP
8100
8100
8100
8100
8100
8108
FD30
81C0
8100
8100
8100
8104
8104
8504
9904
60F8
ENDCHAR
STARTCHAR U+2F51
ENCODING 12113
SWIDTH 1000 0
DWIDTH 16 0
BBX 15 16 0 -2
BITMAP
0018
01E0
7E00
0400
0400
7FF8
0400
0400
0400
FFFC
0400
0400
0402
0402
0402
03FC
ENDCHAR
STARTCHAR U+2F52
ENCODING 12114
SWIDTH 1000 0
DWIDTH 16 0
BBX 14 16 1 -2
BITMAP
0018
00E0
7F00
8200
8200
8200
8200
FFFC
8200
8100
8100
8084
8084
8244
8C24
7018
ENDCHAR
STARTCHAR U+2F53
ENCODING 12115
SWIDTH 1000 0
DWIDTH 16 0
BBX 15 16 0 -2
BITMAP
1000
1000
1FFC
2000
3FF8
4000
BFE0
0010
0010
0010
0010
0010
0012
000A
000A
0004
ENDCHAR
STARTCHAR U+2F54
ENCODING 12116
SWIDTH 1000 0
DWIDTH 16 0
BBX 15 16 0 -2
BITMAP
0100
0100
0100
0104
F988
0590
0560
0540
0920
0920
1110
2108
4104
8102
1100
0E00
ENDCHAR
STARTCHAR U+2F55
ENCODING 12117
SWIDTH 1000 0
DWIDTH 16 0
BBX 15 16 0 -2
BITMAP
0100
0100
0100
4104
4104
2108
2108
1290
0280
0280
0440
0440
0820
1010
2008
C006
ENDCHAR
STARTCHAR U+2F56
ENCODING 12118
SWIDTH 1000 0
DWIDTH 16 0
BBX 15 16 0 -2
BITMAP
000C
0078
1F88
2008
2108
2108
2108
2108
2108
2108
2104
2104
2104
4104
4102
8102
ENDCHAR
STARTCHAR U+2F57
ENCODING 12119
SWIDTH 1000 0
DWIDTH 16 0
BBX 15 16 0 -2
BITMAP
0440
0440
0820
1010
2008
C826
0820
0440
0440
0280
0100
0280
0440
0820
3018
C006
ENDCHAR
STARTCHAR U+2F58
ENCODING 12120
SWIDTH 1000 0
DWIDTH 16 0
BBX 15 16 0 -2
BITMAP
0010
3820
0640
0180
0260
1C10
E008
0444
0440
0280
0280
0100
0280
0440
1830
E00E
ENDCHAR
STARTCHAR U+2F59
ENCODING 12121
SWIDTH 1000 0
DWIDTH 16 0
BBX 13 16 0 -2
BITMAP
1008
1008
1008
1008
1008
0FF8
0008
0008
FFF8
0808
0808
0808
1008
1008
2008
C008
ENDCHAR
STARTCHAR U+2F5A
ENCODING 12122
SWIDTH 1000 0
DWIDTH 16 0
BBX 15 16 0 -2
BITMAP
2020
2020
2020
2020
2020
3FFE
2000
2000
3FE0
2010
2010
2010
2010
4010
4010
8010
ENDCHAR
STARTCHAR U+2F5B
ENCODING 12123
SWIDTH 1000 0
DWIDTH 16 0
BBX 15 15 0 -2
BITMAP
7FFC
0020
1020
1020
2020
2020
1FFE
0120
0220
0420
0820
3020
C020
0220
01C0
ENDCHAR
STARTCHAR U+2F5C
ENCODING 12124
SWIDTH 1000 0
DWIDTH 16 0
BBX 15 16 0 -2
BITMAP
0100
2100
2100
3FFC
4100
4100
8100
0100
FFFE
0100
0100
0100
0100
0100
0100
0100
ENDCHAR
STARTCHAR U+2F5D
ENCODING 12125
SWIDTH 1000 0
DWIDTH 16 0
BBX 15 16 0 -2
BITMAP
0110
0108
0108
0100
FFFE
0100
0100
0280
0280
0280
0440
0440
0820
1010
2008
C006
ENDCHAR
STARTCHAR U+2F5E
ENCODING 12126
SWIDTH 1000 0
DWIDTH 16 0
BBX 15 16 0 -2
BITMAP
0100
0100
0100
FFFE
0100
0200
1420
0840
0480
0500
0210
0408
0804
11FE
FE02
0002
ENDCHAR
STARTCHAR U+2F5F
ENCODING 12127
SWIDTH 1000 0
DWIDTH 16 0
BBX 15 15 0 -2
BITMAP
FFFE
0100
0100
0100
0100
0100
0100
7FFC
0100
0120
0110
0108
0108
0100
FFFE
ENDCHAR
STARTCHAR U+2F60
ENCODING 12128
SWIDTH 1000 0
DWIDTH 16 0
BBX 15 16 0 -2
BITMAP
000C
0078
1F88
2008
2208
2208
2208
2208
2208
2288
2244
2224
2224
4254
4192
8002
ENDCHAR
STARTCHAR U+2F61
ENCODING 12129
SWIDTH 1000 0
DWIDTH 16 0
BBX 15 15 0 -2
BITMAP
FFFE
1000
1000
1FC0
1020
1020
1420
1220
1120
1120
1020
1022
11E2
1E22
E01C
ENDCHAR
STARTCHAR U+2F62
ENCODING 12130
SWIDTH 1000 0
DWIDTH 16 0
BBX 15 16 0 -2
BITMAP
1010
1010
1010
1010
FFFE
1010
1010
1010
1010
1FF0
1010
1010
1010
1010
1010
0FE0
ENDCHAR
STARTCHAR U+2F63
ENCODING 12131
SWIDTH 1000 0
DWIDTH 16 0
BBX 15 16 0 -2
BITMAP
0100
2100
2100
2100
3FFC
2100
4100
4100
8100
3FF8
0100
0100
0100
0100
0100
FFFE
ENDCHAR
STARTCHAR U+2F64
ENCODING 12132
SWIDTH 1000 0
DWIDTH 16 0
BBX 14 15 0 -2
BITMAP
1FF8
2104
2104
2104
3FFC
2104
2104
2104
3FFC
2104
2104
2104
4104
4104
8038
ENDCHAR
STARTCHAR U+2F65
ENCODING 12133
SWIDTH 1000 0
DWIDTH 16 0
BBX 13 15 1 -2
BITMAP
7FF0
8208
8208
8208
8208
8208
8208
FFF8
8208
8208
8208
8208
8208
8208
7FF0
ENDCHAR
STARTCHAR U+2F66
ENCODING 12134
SWIDTH 1000 0
DWIDTH 16 0
BBX 15 15 0 -2
BITMAP
FFFC
0102
0102
0104
1108
1100
1100
11FC
1100
1100
1100
2900
2500
4300
80FE
ENDCHAR
STARTCHAR U+2F67
ENCODING 12135
SWIDTH 1000 0
DWIDTH 16 0
BBX 15 15 0 -1
BITMAP
0080
0080
1FFE
2000
A000
6000
2000
2000
6000
A000
2000
2000
4000
4000
8000
ENDCHAR
STARTCHAR U+2F68
ENCODING 12136
SWIDTH 1000 0
DWIDTH 16 0
BBX 15 8 0 3
BITMAP
1E10
4110
22A4
1444
0828
1010
2008
C006
ENDCHAR
STARTCHAR U+2F69
ENCODING 12137
SWIDTH 1000 0
DWIDTH 16 0
BBX 11 16 2 -2
BITMAP
0800
0800
1000
7FC0
8020
8020
8020
8020
8020
FFE0
8020
8020
8020
8020
8020
7FC0
ENDCHAR
STARTCHAR U+2F6A
ENCODING 12138
SWIDTH 1000 0
DWIDTH 16 0
BBX 15 16 0 -2
BITMAP
0100
0100
0100
1FFC
2102
2102
2104
3FF0
2808
2408
2210
2120
40C0
4120
8618
3806
ENDCHAR
STARTCHAR U+2F6B
ENCODING 12139
SWIDTH 1000 0
DWIDTH 16 0
BBX 15 14 0 -2
BITMAP
3FF8
4444
4444
4444
4444
4444
4444
4444
4444
4444
4444
4444
4444
FFFE
ENDCHAR
STARTCHAR U+2F6C
ENCODING 12140
SWIDTH 1000 0
DWIDTH 16 0
BBX 11 15 2 -2
BITMAP
7FC0
8020
8020
8020
FFE0
8020
8020
8020
8020
FFE0
8020
8020
8020
8020
7FC0
ENDCHAR
STARTCHAR U+2F6D
ENCODING 12141
SWIDTH 1000 0
DWIDTH 16 0
BBX 15 15 0 -2
BITMAP
7FF0
0008
0810
0460
0280
FFFC
0182
0282
048C
08B0
3080
C080
0080
0880
0700
ENDCHAR
STARTCHAR U+2F6E
ENCODING 12142
SWIDTH 1000 0
DWIDTH 16 0
BBX 15 16 0 -2
BITMAP
1000
1000
1FFC
2100
2100
4100
0100
FFFE
0280
0280
0440
0440
0820
1010
2008
C006
ENDCHAR
STARTCHAR U+2F6F
ENCODING 12143
SWIDTH 1000 0
DWIDTH 16 0
BBX 15 15 0 -2
BITMAP
FFFE
0400
0400
0800
0800
1000
2FF0
5008
9008
1008
1008
1008
1008
1008
0FF0
ENDCHAR
STARTCHAR U+2F70
ENCODING 12144
SWIDTH 1000 0
DWIDTH 16 0
BBX 15 15 0 -2
BITMAP
7FFC
0000
0000
0000
FFFE
0100
0100
1110
1108
2104
2104
4102
8102
0100
0E00
ENDCHAR
STARTCHAR U+2F71
ENCODING 12145
SWIDTH 1000 0
DWIDTH 16 0
BBX 13 16 1 -2
BITMAP
0200
0200
0200
7FF0
8408
8408
8808
8888
9048
9048
A3A8
9C28
8008
8008
8008
8070
ENDCHAR
STARTCHAR U+2F72
ENCODING 12146
SWIDTH 1000 0
DWIDTH 16 0
BBX 15 16 0 -2
BITMAP
000C
0070
7F80
0100
0100
0100
FFFE
0540
0540
0920
0920
1110
2108
C106
0100
0100
ENDCHAR
STARTCHAR U+2F73
ENCODING 12147
SWIDTH 1000 0
DWIDTH 16 0
BBX 15 16 0 -2
BITMAP
0100
0100
0100
7FFC
8002
8002
0440
0440
0440
0440
0820
0820
1010
1010
2008
C006
ENDCHAR
STARTCHAR U+2F74
ENCODING 12148
SWIDTH 1000 0
DWIDTH 16 0
BBX 15 16 0 -2
BITMAP
0100
0100
0100
7FFC
0000
1010
1010
0810
0810
0820
0420
0420
0440
0040
0080
FFFE
ENDCHAR
STARTCHAR U+2F75
ENCODING 12149
SWIDTH 1000 0
DWIDTH 16 0
BBX 15 16 0 -2
BITMAP
2080
2080
2080
7EFE
5108
5108
9208
1008
1008
1008
1008
1008
1008
1008
1008
1070
ENDCHAR
STARTCHAR U+2F76
ENCODING 12150
SWIDTH 1000 0
DWIDTH 16 0
BBX 15 16 0 -2
BITMAP
0100
2108
1108
0910
0920
0100
FFFE
0380
0540
0540
0920
1110
2108
C106
0100
0100
ENDCHAR
STARTCHAR U+2F77
ENCODING 12151
SWIDTH 1000 0
DWIDTH 16 0
BBX 15 16 0 -2
BITMAP
0200
0220
0420
2840
1880
0510
0208
0404
08FE
FF02
0100
0920
1110
2108
C106
0100
ENDCHAR
STARTCHAR U+2F78
ENCODING 12152
SWIDTH 1000 0
DWIDTH 16 0
BBX 15 16 0 -2
BITMAP
1000
1000
1FFC
2100
2100
4100
8100
FFFE
0100
0100
4104
4104
4104
4104
4104
3FF8
ENDCHAR
STARTCHAR U+2F79
ENCODING 12153
SWIDTH 1000 0
DWIDTH 16 0
BBX 13 15 1 -2
BITMAP
7FF0
8888
8888
8888
AA88
9988
8C88
8AC8
92A8
9128
A128
C208
8408
8008
8070
ENDCHAR
STARTCHAR U+2F7A
ENCODING 12154
SWIDTH 1000 0
DWIDTH 16 0
BBX 15 16 0 -2
BITMAP
0820
0420
0440
FFFE
0100
0100
0100
7FFC
0100
0100
0100
FFFE
0100
0100
0100
0100
ENDCHAR
STARTCHAR U+2F7B
ENCODING 12155
SWIDTH 1000 0
DWIDTH 16 0
BBX 14 15 0 -2
BITMAP
FDF8
0204
0204
060C
0A14
3224
C2C4
060C
0A14
3224
C2C4
0204
0204
0204
1C38
ENDCHAR
STARTCHAR U+2F7C
ENCODING 12156
SWIDTH 1000 0
DWIDTH 16 0
BBX 15 16 0 -2
BITMAP
0200
0208
7FF8
0210
0220
0240
FFFE
0100
0200
0C10
3860
CF80
0804
0804
0804
07F8
ENDCHAR
STARTCHAR U+2F7D
ENCODING 12157
SWIDTH 1000 0
DWIDTH 16 0
BBX 15 15 0 -2
BITMAP
FFFE
0200
0400
3FF8
4444
4444
4444
4444
4444
4444
4444
4444
4444
4444
4038
ENDCHAR
STARTCHAR U+2F7E
ENCODING 12158
SWIDTH 1000 0
DWIDTH 16 0
BBX 15 16 0 -2
BITMAP
0100
010E
01F0
FF00
0100
7FFC
0100
0100
FFFE
0100
0380
0540
0920
1110
2108
C106
ENDCHAR
STARTCHAR U+2F7F
ENCODING 12159
SWIDTH 1000 0
DWIDTH 16 0
BBX 15 15 0 -2
BITMAP
FFFE
1010
1010
1FF0
1010
1010
1010
1FF0
1010
1010
101E
17F0
F810
0010
0010
ENDCHAR
STARTCHAR U+2F80
ENCODING 12160
SWIDTH 1000 0
DWIDTH 16 0
BBX 15 16 0 -2
BITMAP
0100
0100
3FF0
0108
FFFE
0108
0108
3FF0
0100
0100
7FFC
0100
FFFE
0100
0100
0100
ENDCHAR
STARTCHAR U+2F81
ENCODING 12161
SWIDTH 1000 0
DWIDTH 16 0
BBX 13 16 1 -2
BITMAP
0200
0200
0200
7FF0
8208
8508
8508
8888
B268
8208
8508
8508
8888
B068
8008
8070
ENDCHAR
STARTCHAR U+2F82
ENCODING 12162
SWIDTH 1000 0
DWIDTH 16 0
BBX 14 15 1 -2
BITMAP
7FFC
8200
8200
8200
FFF0
8008
8008
8008
8008
FFF0
8200
8200
8200
8200
7FFC
ENDCHAR
STARTCHAR U+2F83
ENCODING 12163
SWIDTH 1000 0
DWIDTH 16 0
BBX 11 16 2 -2
BITMAP
0800
0800
1000
7FC0
8020
8020
8020
FFE0
8020
8020
8020
FFE0
8020
8020
8020
7FC0
ENDCHAR
STARTCHAR U+2F84
ENCODING 12164
SWIDTH 1000 0
DWIDTH 16 0
BBX 15 15 0 -2
BITMAP
FFFE
0400
0820
1010
2008
40F4
3F04
0100
0100
0100
7FFC
0100
0100
0100
FFFE
ENDCHAR
STARTCHAR U+2F85
ENCODING 12165
SWIDTH 1000 0
DWIDTH 16 0
BBX 13 16 1 -2
BITMAP
0200
0C00
71F0
8008
8008
8008
8008
8008
FDF8
8008
8008
8008
8008
8008
8008
7FF0
ENDCHAR
STARTCHAR U+2F86
ENCODING 12166
SWIDTH 1000 0
DWIDTH 16 0
BBX 15 16 0 -2
BITMAP
0018
01E0
7F00
0100
0100
0100
FFFE
0100
0100
0100
1FF0
2008
2008
2008
2008
1FF0
ENDCHAR
STARTCHAR U+2F87
ENCODING 12167
SWIDTH 1000 0
DWIDTH 16 0
BBX 15 16 0 -2
BITMAP
2008
2008
2008
3DFE
2248
2248
4248
6248
9448
1448
0BFE
0808
1008
2008
4008
8008
ENDCHAR
STARTCHAR U+2F88
ENCODING 12168
SWIDTH 1000 0
DWIDTH 16 0
BBX 15 16 0 -2
BITMAP
0200
0200
0FF0
1208
1108
1088
1088
1008
FFFE
1008
1108
1108
2108
2108
4008
8070
ENDCHAR
STARTCHAR U+2F89
ENCODING 12169
SWIDTH 1000 0
DWIDTH 16 0
BBX 13 15 2 -2
BITMAP
7FC0
8020
8020
FFE0
8020
8020
FFC0
8410
8220
82C0
8100
8080
8640
9820
6018
ENDCHAR
STARTCHAR U+2F8A
ENCODING 12170
SWIDTH 1000 0
DWIDTH 16 0
BBX 15 16 0 -2
BITMAP
0800
0FC0
1020
1040
3FF0
6108
A108
2108
2108
3FF0
2000
2000
2002
2002
2002
1FFC
ENDCHAR
STARTCHAR U+2F8B
ENCODING 12171
SWIDTH 1000 0
DWIDTH 16 0
BBX 15 16 0 -2
BITMAP
1010
1010
1010
9292
9292
9292
9292
9292
9292
9292
9292
7C7C
1010
1010
2010
C010
ENDCHAR
STARTCHAR U+2F8C
ENCODING 12172
SWIDTH 1000 0
DWIDTH 16 0
BBX 15 16 0 -2
BITMAP
0100
0100
01FC
0100
0100
1FFC
2002
2104
2100
2FFC
2100
2100
4102
4102
8102
00FC
ENDCHAR
STARTCHAR U+2F8D
ENCODING 12173
SWIDTH 1000 0
DWIDTH 16 0
BBX 15 16 0 -2
BITMAP
0100
0100
0100
3FF8
4104
4104
4104
4104
4104
3FF8
0110
0108
0104
0104
01FA
FE02
ENDCHAR
STARTCHAR U+2F8E
ENCODING 12174
SWIDTH 1000 0
DWIDTH 16 0
BBX 15 16 0 -2
BITMAP
0200
0200
0400
3FF8
4444
4444
4444
4444
4444
4444
4444
4444
4444
4444
4444
FFFE
ENDCHAR
STARTCHAR U+2F8F
ENCODING 12175
SWIDTH 1000 0
DWIDTH 16 0
BBX 15 16 0 -2
BITMAP
1000
13FC
2000
4800
8800
17FE
1010
2010
6010
A010
2010
2010
2010
2010
2010
20E0
ENDCHAR
STARTCHAR U+2F90
ENCODING 12176
SWIDTH 1000 0
DWIDTH 16 0
BBX 15 16 0 -2
BITMAP
0100
0100
0100
FFFE
0100
0280
0480
0884
1848
2850
C820
0820
0810
0888
0904
0602
ENDCHAR
STARTCHAR U+2F91
ENCODING 12177
SWIDTH 1000 0
DWIDTH 16 0
BBX 15 15 0 -2
BITMAP
FFFE
0440
0440
0440
3FF8
4444
4444
4444
4444
4444
4384
4004
4004
4004
4004
ENDCHAR
STARTCHAR U+2F92
ENCODING 12178
SWIDTH 1000 0
DWIDTH 16 0
BBX 15 15 0 -2
BITMAP
1FF0
2008
2008
3FF8
2008
2008
3FF8
2008
2008
1FF0
0440
0442
0842
3042
C03C
ENDCHAR
STARTCHAR U+2F93
ENCODING 12179
SWIDTH 1000 0
DWIDTH 16 0
BBX 14 16 0 -2
BITMAP
0400
07C0
0820
1040
2FF8
D084
1084
1FFC
1084
1084
1FFC
1004
1004
1004
2004
C038
ENDCHAR
STARTCHAR U+2F94
ENCODING 12180
SWIDTH 1000 0
DWIDTH 16 0
BBX 15 16 0 -2
BITMAP
0100
0100
FFFE
0000
0000
3FF8
0000
0000
3FF8
0000
0000
1FF0
2008
2008
2008
1FF0
ENDCHAR
STARTCHAR U+2F95
ENCODING 12181
SWIDTH 1000 0
DWIDTH 16 0
BBX 15 16 0 -2
BITMAP
0440
0820
1010
2108
4104
0280
0440
0820
1010
2008
CFE6
1010
1010
1010
1010
0FE0
ENDCHAR
STARTCHAR U+2F96
ENCODING 12182
SWIDTH 1000 0
DWIDTH 16 0
BBX 15 15 0 -2
BITMAP
FFFE
0000
0000
1FF0
2008
2008
2008
1FF0
0000
1020
0820
0440
0440
0080
FFFE
ENDCHAR
STARTCHAR U+2F97
ENCODING 12183
SWIDTH 1000 0
DWIDTH 16 0
BBX 15 15 0 -2
BITMAP
FFFE
0200
0400
0A04
3108
C290
0CA0
30C0
C160
0650
1848
E046
0040
0880
0700
ENDCHAR
STARTCHAR U+2F98
ENCODING 12184
SWIDTH 1000 0
DWIDTH 16 0
BBX 12 16 1 -2
BITMAP
0080
0100
0690
7860
04C0
0300
0D80
F140
0220
0C60
F090
0310
0C10
F010
0620
01C0
ENDCHAR
STARTCHAR U+2F99
ENCODING 12185
SWIDTH 1000 0
DWIDTH 16 0
BBX 15 15 0 -2
BITMAP
1FF0
2008
2008
3FF8
2008
2008
2008
3FF8
2008
2008
2008
1FF0
0000
1830
E00E
ENDCHAR
STARTCHAR U+2F9A
ENCODING 12186
SWIDTH 1000 0
DWIDTH 16 0
BBX 15 16 0 -2
BITMAP
0100
0100
7FFC
0100
0100
0100
FFFE
0440
2448
2444
2444
4442
8842
0842
1040
6380
ENDCHAR
STARTCHAR U+2F9B
ENCODING 12187
SWIDTH 1000 0
DWIDTH 16 0
BBX 15 16 0 -2
BITMAP
0100
0100
7FFC
0100
0100
0100
FFFE
0100
1100
1100
11FC
1100
1100
2900
2700
C1FE
ENDCHAR
STARTCHAR U+2F9C
ENCODING 12188
SWIDTH 1000 0
DWIDTH 16 0
BBX 15 15 0 -2
BITMAP
1FF0
2008
2008
2008
2008
1FF0
0100
0100
1100
11FC
1100
1100
2900
2700
C1FE
ENDCHAR
STARTCHAR U+2F9D
ENCODING 12189
SWIDTH 1000 0
DWIDTH 16 0
BBX 15 16 0 -2
BITMAP
0200
0200
0FE0
1010
1FF0
1010
1012
1FF4
1018
1010
7FF0
0090
0310
1C10
E110
00E0
ENDCHAR
STARTCHAR U+2F9E
ENCODING 12190
SWIDTH 1000 0
DWIDTH 16 0
BBX 15 16 0 -2
BITMAP
0100
0100
FFFE
0100
1FF0
2108
2108
3FF8
2108
2108
1FF0
0100
FFFE
0100
0100
0100
ENDCHAR
STARTCHAR U+2F9F
ENCODING 12191
SWIDTH 1000 0
DWIDTH 16 0
BBX 15 16 0 -2
BITMAP
0100
0100
7FFC
1020
0820
0420
0440
FFFE
0100
0100
0100
7FFC
0100
0100
0100
0100
ENDCHAR
STARTCHAR U+2FA0
ENCODING 12192
SWIDTH 1000 0
DWIDTH 16 0
BBX 15 15 0 -2
BITMAP
1FFE
2000
2000
2FF8
2000
2000
3FFE
2484
2448
2450
2420
4420
4490
8508
0206
ENDCHAR
STARTCHAR U+2FA1
ENCODING 12193
SWIDTH 1000 0
DWIDTH 16 0
BBX 15 16 0 -2
BITMAP
0030
00C0
0318
3C60
0184
3E18
0060
0380
7D00
0100
11FC
1100
1100
2900
2700
C1FE
ENDCHAR
STARTCHAR U+2FA2
ENCODING 12194
SWIDTH 1000 0
DWIDTH 16 0
BBX 14 15 1 -2
BITMAP
1FC0
2020
2020
2020
1FC0
0000
7FF0
8208
8208
8208
FFF0
8004
8004
8004
7FF8
ENDCHAR
STARTCHAR U+2FA3
ENCODING 12195
SWIDTH 1000 0
DWIDTH 16 0
BBX 15 15 0 -2
BITMAP
FFFE
0480
0480
3FF8
4484
4484
4484
4884
487C
7004
4004
7FFC
4004
4004
3FF8
ENDCHAR
STARTCHAR U+2FA4
ENCODING 12196
SWIDTH 1000 0
DWIDTH 16 0
BBX 15 16 0 -2
BITMAP
001C
01E8
7F08
2110
1110
1120
FFFE
0380
0540
0540
0920
1110
2108
C106
0100
0100
ENDCHAR
STARTCHAR U+2FA5
ENCODING 12197
SWIDTH 1000 0
DWIDTH 16 0
BBX 15 15 0 -2
BITMAP
1FF0
2108
2108
3FF8
2108
2108
2108
1FF0
0100
0100
7FFC
0100
0100
0100
FFFE
ENDCHAR
STARTCHAR U+2FA6
ENCODING 12198
SWIDTH 1000 0
DWIDTH 16 0
BBX 15 16 0 -2
BITMAP
0100
0100
0280
0440
0820
1010
2FE8
C106
0100
0100
7FFC
1110
1110
0920
0940
FFFE
ENDCHAR
STARTCHAR U+2FA7
ENCODING 12199
SWIDTH 1000 0
DWIDTH 16 0
BBX 15 15 0 -2
BITMAP
0FF8
1000
1000
1FF0
1000
1FF0
1000
FFFE
1104
1088
1050
1020
1090
1308
0C06
ENDCHAR
STARTCHAR U+2FA8
ENCODING 12200
SWIDTH 1000 0
DWIDTH 16 0
BBX 15 15 0 -2
BITMAP
7C7C
8282
FEFE
8282
8282
FC7E
8002
8002
8002
8002
8002
8002
8002
8002
801C
ENDCHAR
STARTCHAR U+2FA9
ENCODING 12201
SWIDTH 1000 0
DWIDTH 16 0
BBX 15 16 0 -2
BITMAP
0200
0200
1FF0
2008
2008
3FF0
2000
3FF8
2004
2004
1FF8
0100
FFFE
0100
0100
0100
ENDCHAR
STARTCHAR U+2FAA
ENCODING 12202
SWIDTH 1000 0
DWIDTH 16 0
BBX 15 16 0 -2
BITMAP
0100
0100
3FF0
0108
0108
FFFE
0108
0108
3FF0
4108
2188
1350
0D20
3118
C106
0E00
ENDCHAR
STARTCHAR U+2FAB
ENCODING 12203
SWIDTH 1000 0
DWIDTH 16 0
BBX 15 16 0 -2
BITMAP
0840
0840
0880
1FFC
1080
3080
5080
9FFC
1080
1080
1080
1FFC
1080
1080
1080
0FFE
ENDCHAR
STARTCHAR U+2FAC
ENCODING 12204
SWIDTH 1000 0
DWIDTH 16 0
BBX 15 15 0 -2
BITMAP
FFFE
0100
0100
3FF8
4104
5144
4924
4514
4104
5144
4924
4514
4104
4104
4138
ENDCHAR
STARTCHAR U+2FAD
ENCODING 12205
SWIDTH 1000 0
DWIDTH 16 0
BBX 15 16 0 -2
BITMAP
0100
0100
7FFC
0100
3FF8
0100
FFFE
0000
0FE0
1110
1110
1FF0
1010
1010
1010
10E0
ENDCHAR
STARTCHAR U+2FAE
ENCODING 12206
SWIDTH 1000 0
DWIDTH 16 0
BBX 15 16 0 -2
BITMAP
0440
0440
0440
FC7E
0440
0440
0440
7C7C
0440
0440
1C40
E47E
0840
0840
1040
6040
ENDCHAR
STARTCHAR U+2FAF
ENCODING 12207
SWIDTH 1000 0
DWIDTH 16 0
BBX 15 15 0 -2
BITMAP
FFFE
0200
0400
3FF8
4444
4444
47C4
4444
4444
4444
47C4
4444
4444
4444
3FF8
ENDCHAR
STARTCHAR U+2FB0
ENCODING 12208
SWIDTH 1000 0
DWIDTH 16 0
BBX 15 16 0 -2
BITMAP
0820
0820
FFFE
0820
07C0
0100
1FF0
2108
2108
2108
1FF0
0100
FFFE
0100
0100
0100
ENDCHAR
STARTCHAR U+2FB1
ENCODING 12209
SWIDTH 1000 0
DWIDTH 16 0
BBX 15 16 0 -2
BITMAP
0100
3FF0
0208
FFFE
0000
0FE0
1010
1010
0FE0
0040
FFFC
1040
2040
1FFE
0040
0040
ENDCHAR
STARTCHAR U+2FB2
ENCODING 12210
SWIDTH 1000 0
DWIDTH 16 0
BBX 15 16 0 -2
BITMAP
0440
0440
0440
FC7E
0440
0440
0440
7C7C
0440
0440
0440
FC7E
0440
0440
0440
FFFE
ENDCHAR
STARTCHAR U+2FB3
ENCODING 12211
SWIDTH 1000 0
DWIDTH 16 0
BBX 15 16 0 -2
BITMAP
0100
0100
7FFC
0820
0420
0440
FFFE
0000
0FE0
1010
1010
1FF0
1010
1010
1010
0FE0
ENDCHAR
STARTCHAR U+2FB4
ENCODING 12212
SWIDTH 1000 0
DWIDTH 16 0
BBX 15 15 0 -2
BITMAP
FFFE
0100
0200
0FE0
1010
1010
1FF0
1010
1010
1FF0
1010
1010
0FE0
0820
701C
ENDCHAR
STARTCHAR U+2FB5
ENCODING 12213
SWIDTH 1000 0
DWIDTH 16 0
BBX 15 15 0 -2
BITMAP
1FF0
2008
2068
2F88
2108
27C8
2928
2928
2928
27C8
212A
212A
41EA
5E2A
8004
ENDCHAR
STARTCHAR U+2FB6
ENCODING 12214
SWIDTH 1000 0
DWIDTH 16 0
BBX 15 15 0 -2
BITMAP
7FE4
0114
0D18
F114
1112
1112
FFEC
1110
1114
1114
1118
1114
2112
2112
C10C
ENDCHAR
STARTCHAR U+2FB7
ENCODING 12215
SWIDTH 1000 0
DWIDTH 16 0
BBX 15 16 0 -2
BITMAP
0100
0280
0440
0BA0
1010
2FE8
D016
1FF0
1010
1010
1FE4
1108
10B0
1040
1330
0C0E
ENDCHAR
STARTCHAR U+2FB8
ENCODING 12216
SWIDTH 1000 0
DWIDTH 16 0
BBX 15 16 0 -2
BITMAP
0820
0420
0440
FFFE
0200
0400
1FF0
2008
2008
3FF8
2008
2008
3FF8
2008
2008
1FF0
ENDCHAR
STARTCHAR U+2FB9
ENCODING 12217
SWIDTH 1000 0
DWIDTH 16 0
BBX 15 16 0 -2
BITMAP
0018
01E0
7F00
0100
0100
FFFE
0540
0920
3118
CFE6
1010
1010
1FF0
1010
1010
0FE0
ENDCHAR
STARTCHAR U+2FBA
ENCODING 12218
SWIDTH 1000 0
DWIDTH 16 0
BBX 15 15 0 -2
BITMAP
1FFC
2100
2100
3FF8
2100
3FF8
2100
2100
1FFC
0042
1222
4912
4482
4404
8038
ENDCHAR
STARTCHAR U+2FBB
ENCODING 12219
SWIDTH 1000 0
DWIDTH 16 0
BBX 15 15 0 -2
BITMAP
0FE0
1010
13F0
1410
7FFC
8002
8FE2
1010
1FF0
1010
1FF0
1010
1010
1010
10E0
ENDCHAR
STARTCHAR U+2FBC
ENCODING 12220
SWIDTH 1000 0
DWIDTH 16 0
BBX 15 16 0 -2
BITMAP
0100
0100
FFFE
0000
0FE0
1010
0FE0
0000
3FF8
4004
47C4
4824
4824
47C4
4004
4038
ENDCHAR
STARTCHAR U+2FBD
ENCODING 12221
SWIDTH 1000 0
DWIDTH 16 0
BBX 15 15 0 -2
BITMAP
1F08
2010
2020
3E40
2084
3E08
2010
2020
FFC2
2404
4208
4510
9920
60C0
0300
ENDCHAR
STARTCHAR U+2FBE
ENCODING 12222
SWIDTH 1000 0
DWIDTH 16 0
BBX 15 16 0 -2
BITMAP
8002
BEFA
8822
BEFA
8822
BEFA
8002
8002
8002
8002
8002
8002
8002
8002
8002
801C
ENDCHAR
STARTCHAR U+2FBF
ENCODING 12223
SWIDTH 1000 0
DWIDTH 16 0
BBX 14 16 1 -2
BITMAP
8448
B248
8888
A548
9228
8D28
B488
8248
7FF0
4020
40C0
4700
7804
4004
4004
3FF8
ENDCHAR
STARTCHAR U+2FC0
ENCODING 12224
SWIDTH 1000 0
DWIDTH 16 0
BBX 15 15 0 -2
BITMAP
FFFE
0000
0FE0
1010
0FE0
0000
3FF8
4484
4484
487C
7004
4FE4
4104
4104
4138
ENDCHAR
STARTCHAR U+2FC1
ENCODING 12225
SWIDTH 1000 0
DWIDTH 16 0
BBX 15 16 0 -2
BITMAP
0400
0400
3FF8
4104
4104
7FFC
4104
4104
3FF8
0120
0950
0988
1172
1102
2102
C0FC
ENDCHAR
STARTCHAR U+2FC2
ENCODING 12226
SWIDTH 1000 0
DWIDTH 16 0
BBX 15 16 0 -2
BITMAP
0800
0F80
1040
2080
5FF0
A108
2108
3FF8
2108
2108
2108
1FF0
0000
2444
4222
8222
ENDCHAR
STARTCHAR U+2FC3
ENCODING 12227
SWIDTH 1000 0
DWIDTH 16 0
BBX 15 16 0 -2
BITMAP
0400
0400
1FE0
2010
3FF0
2010
3FE0
2000
3FFE
2000
1FFC
1242
4922
4492
4484
8038
ENDCHAR
STARTCHAR U+2FC4
ENCODING 12228
SWIDTH 1000 0
DWIDTH 16 0
BBX 14 16 1 -2
BITMAP
0200
0200
03FC
0200
0200
7FF0
8208
8928
A548
9288
9328
8C98
B248
8148
8108
7FF0
ENDCHAR
STARTCHAR U+2FC5
ENCODING 12229
SWIDTH 1000 0
DWIDTH 16 0
BBX 15 16 0 -2
BITMAP
0100
0100
3FFE
4440
4440
7FF8
4444
4444
7FF8
5040
504C
5F70
5042
5042
9342
0C3C
ENDCHAR
STARTCHAR U+2FC6
ENCODING 12230
SWIDTH 1000 0
DWIDTH 16 0
BBX 15 16 0 -2
BITMAP
0100
0100
FFFE
1110
1110
2928
4BA4
8542
0A20
33D8
C426
0B20
30C0
0320
0C10
7008
ENDCHAR
STARTCHAR U+2FC7
ENCODING 12231
SWIDTH 1000 0
DWIDTH 16 0
BBX 15 16 0 -2
BITMAP
0080
0080
3FFE
4000
4410
4410
7FFE
4410
5554
5554
5554
5554
5554
5494
A512
0410
ENDCHAR
STARTCHAR U+2FC8
ENCODING 12232
SWIDTH 1000 0
DWIDTH 16 0
BBX 15 16 0 -2
BITMAP
0440
0440
7FFC
0440
0380
0000
FFFE
0100
1FF0
2108
3FF8
2108
2108
1FF0
0820
701C
ENDCHAR
STARTCHAR U+2FC9
ENCODING 12233
SWIDTH 1000 0
DWIDTH 16 0
BBX 15 16 0 -2
BITMAP
0038
3FC0
0100
FFFE
0540
0920
3298
C446
0920
3118
CD66
0100
0540
1930
E10E
0E00
ENDCHAR
STARTCHAR U+2FCA
ENCODING 12234
SWIDTH 1000 0
DWIDTH 16 0
BBX 15 15 0 -2
BITMAP
1FF0
2108
2928
2528
2548
2108
1FF0
0100
7FFC
0100
0100
FFFE
2888
4444
8222
ENDCHAR
STARTCHAR U+2FCB
ENCODING 12235
SWIDTH 1000 0
DWIDTH 16 0
BBX 15 16 0 -2
BITMAP
4444
2444
2448
0440
FFFE
1110
2108
5FF4
A10A
2548
2548
2548
2548
2948
2108
2170
ENDCHAR
STARTCHAR U+2FCC
ENCODING 12236
SWIDTH 1000 0
DWIDTH 16 0
BBX 15 15 0 -2
BITMAP
7FF8
8484
8484
7CF8
0480
7CF8
8484
8484
FCFC
8484
8484
7CFA
0482
0482
03FC
ENDCHAR
STARTCHAR U+2FCD
ENCODING 12237
SWIDTH 1000 0
DWIDTH 16 0
BBX 15 15 0 -2
BITMAP
07C0
4824
4FE4
4824
4FE4
4824
47C4
4004
3878
0480
FCFE
2484
2484
4484
8484
ENDCHAR
STARTCHAR U+2FCE
ENCODING 12238
SWIDTH 1000 0
DWIDTH 16 0
BBX 15 16 0 -2
BITMAP
1020
1020
FE20
11FE
7C20
0020
3820
45F8
4504
3884
4488
2450
2820
0E50
F088
0306
ENDCHAR
STARTCHAR U+2FCF
ENCODING 12239
SWIDTH 1000 0
DWIDTH 16 0
BBX 14 16 1 -2
BITMAP
0600
79F0
8008
F9F8
8008
7FF0
0000
A310
9290
8A50
A310
9290
8A54
8A34
9254
6188
ENDCHAR
STARTCHAR U+2FD0
ENCODING 12240
SWIDTH 1000 0
DWIDTH 16 0
BBX 15 16 0 -2
BITMAP
0200
0FE0
1010
1FF0
1010
1FF0
1010
3FF8
4104
7FFC
4104
3FF8
0000
FFFE
1020
E020
ENDCHAR
STARTCHAR U+2FD1
ENCODING 12241
SWIDTH 1000 0
DWIDTH 16 0
BBX 15 16 0 -2
BITMAP
0100
0100
FFFE
0284
F938
2548
2548
4554
9922
1010
1FF0
1010
1FF0
1010
2010
C010
ENDCHAR
STARTCHAR U+2FD2
ENCODING 12242
SWIDTH 1000 0
DWIDTH 16 0
BBX 15 16 0 -2
BITMAP
0100
1100
11FC
1100
1100
FFFE
0440
4444
4AA4
5114
7FFC
4444
4444
4AA4
5114
3FF8
ENDCHAR
STARTCHAR U+2FD3
ENCODING 12243
SWIDTH 1000 0
DWIDTH 16 0
BBX 15 16 0 -2
BITMAP
1080
1080
FFFE
4280
247C
FF02
007C
3C80
42FC
7E80
42FC
7E80
42FE
4282
4282
5C7C
ENDCHAR
STARTCHAR U+2FD4
ENCODING 12244
SWIDTH 1000 0
DWIDTH 16 0
BBX 15 16 0 -2
BITMAP
0800
1F80
2040
FFF8
4284
3EF8
0280
72F8
0ACC
FEB4
0AB4
72CC
0AFA
FE82
0A82
71FC
ENDCHAR
STARTCHAR U+2FD5
ENCODING 12245
SWIDTH 1000 0
DWIDTH 16 0
BBX 15 16 0 -2
BITMAP
0100
0280
0C60
37D8
C006
3BB8
4444
3BB8
0000
3FF8
4444
4444
7FFC
4444
4444
4478
ENDCHAR
STARTCHAR U+2FF0
ENCODING 12272
SWIDTH 1000 0
DWIDTH 16 0
BBX 15 15 0 -1
BITMAP
AAAA
0000
8102
0000
8102
0000
8102
0000
8102
0000
8102
0000
8102
0000
AAAA
ENDCHAR
STARTCHAR U+2FF1
ENCODING 12273
SWIDTH 1000 0
DWIDTH 16 0
BBX 15 15 0 -1
BITMAP
AAAA
0000
8002
0000
8002
0000
8002
2AA8
8002
0000
8002
0000
8002
0000
AAAA
ENDCHAR
STARTCHAR U+2FF2
ENCODING 12274
SWIDTH 1000 0
DWIDTH 16 0
BBX 15 15 0 -1
BITMAP
AAAA
0000
8442
0000
8442
0000
8442
0000
8442
0000
8442
0000
8442
0000
AAAA
ENDCHAR
STARTCHAR U+2FF3
ENCODING 12275
SWIDTH 1000 0
DWIDTH 16 0
BBX 15 15 0 -1
BITMAP
AAAA
0000
8002
0000
8002
2AA8
8002
0000
8002
2AA8
8002
0000
8002
0000
AAAA
ENDCHAR
STARTCHAR U+2FF4
ENCODING 12276
SWIDTH 1000 0
DWIDTH 16 0
BBX 15 15 0 -1
BITMAP
AAAA
0000
8002
0000
8AA2
0000
8822
0000
8822
0000
8AA2
0000
8002
0000
AAAA
ENDCHAR
STARTCHAR U+2FF5
ENCODING 12277
SWIDTH 1000 0
DWIDTH 16 0
BBX 15 15 0 -1
BITMAP
AAAA
0000
8002
0000
8AA2
0000
8822
0000
8822
0000
8822
0000
8822
0000
AAAA
ENDCHAR
STARTCHAR U+2FF6
ENCODING 12278
SWIDTH 1000 0
DWIDTH 16 0
BBX 15 15 0 -1
BITMAP
AAAA
0000
8822
0000
8822
0000
8822
0000
8822
0000
8AA2
0000
8002
0000
AAAA
ENDCHAR
STARTCHAR U+2FF7
ENCODING 12279
SWIDTH 1000 0
DWIDTH 16 0
BBX 15 15 0 -1
BITMAP
AAAA
0000
8002
0000
8AAA
0000
8802
0000
8802
0000
8AAA
0000
8002
0000
AAAA
ENDCHAR
STARTCHAR U+2FF8
ENCODING 12280
SWIDTH 1000 0
DWIDTH 16 0
BBX 15 15 0 -1
BITMAP
AAAA
0000
8002
0000
8AAA
0000
8802
0000
8802
0000
8802
0000
8802
0000
AAAA
ENDCHAR
STARTCHAR U+2FF9
ENCODING 12281
SWIDTH 1000 0
DWIDTH 16 0
BBX 15 15 0 -1
BITMAP
AAAA
0000
8002
0000
AAA2
0000
8022
0000
8022
0000
8022
0000
8022
0000
AAAA
ENDCHAR
STARTCHAR U+2FFA
ENCODING 12282
SWIDTH 1000 0
DWIDTH 16 0
BBX 15 15 0 -1
BITMAP
AAAA
0000
8802
0000
8802
0000
8802
0000
8802
0000
8AAA
0000
8002
0000
AAAA
ENDCHAR
STARTCHAR U+2FFB
ENCODING 12283
SWIDTH 1000 0
DWIDTH 16 0
BBX 15 15 0 -1
BITMAP
AAA0
0000
8020
0000
8AAA
0000
8822
0000
8822
0000
AAA2
0000
0802
0000
0AAA
ENDCHAR
STARTCHAR U+2FFC
ENCODING 12284
SWIDTH 1000 0
DWIDTH 16 0
BBX 15 15 0 -1
BITMAP
AAAA
0000
8002
0000
AAA2
0000
8022
0000
8022
0000
AAA2
0000
8002
0000
AAAA
ENDCHAR
STARTCHAR U+2FFD
ENCODING 12285
SWIDTH 1000 0
DWIDTH 16 0
BBX 15 15 0 -1
BITMAP
AAAA
0000
8022
0000
8022
0000
8022
0000
8022
0000
AAA2
0000
8002
0000
AAAA
ENDCHAR
STARTCHAR U+2FFE
ENCODING 12286
SWIDTH 1000 0
DWIDTH 16 0
BBX 15 15 0 -1
BITMAP
AAAA
0000
8002
0000
8002
0820
9012
2AA8
9012
0820
8002
0000
8002
0000
AAAA
ENDCHAR
STARTCHAR U+2FFF
ENCODING 12287
SWIDTH 1000 0
DWIDTH 16 0
BBX 15 15 0 -1
BITMAP
AAAA
0000
8002
1540
8012
0000
800A
0400
8812
1540
8802
0400
8002
0000
AAAA
ENDCHAR
STARTCHAR U+3000
ENCODING 12288
SWIDTH 1000 0
DWIDTH 16 0
BBX 0 0 0 0
BITMAP
ENDCHAR
STARTCHAR U+3001
ENCODING 12289
SWIDTH 1000 0
DWIDTH 16 0
BBX 5 6 0 -2
BITMAP
80
40
20
10
08
08
ENDCHAR
STARTCHAR U+3002
ENCODING 12290
SWIDTH 1000 0
DWIDTH 16 0
BBX 5 5 0 -2
BITMAP
70
88
88
88
70
ENDCHAR
STARTCHAR U+3003
ENCODING 12291
SWIDTH 1000 0
DWIDTH 16 0
BBX 7 6 3 4
BITMAP
22
22
22
44
44
88
ENDCHAR
STARTCHAR U+3005
ENCODING 12293
SWIDTH 1000 0
DWIDTH 16 0
BBX 12 14 0 -1
BITMAP
0400
0400
0400
0FE0
0810
1010
1020
2020
4440
8280
0100
0080
0040
0040
ENDCHAR
STARTCHAR U+3006
ENCODING 12294
SWIDTH 1000 0
DWIDTH 16 0
BBX 13 14 1 0
BITMAP
0008
0008
0010
0020
0020
1840
2480
4300
4100
8280
8440
8820
9020
6000
ENDCHAR
STARTCHAR U+3007
ENCODING 12295
SWIDTH 1000 0
DWIDTH 16 0
BBX 15 12 0 0
BITMAP
07C0
1830
2008
4004
8002
8002
8002
8002
4004
2008
1830
07C0
ENDCHAR
STARTCHAR U+3008
ENCODING 12296
SWIDTH 1000 0
DWIDTH 16 0
BBX 5 16 9 -2
BITMAP
08
08
10
10
20
40
40
80
80
40
40
20
10
10
08
08
ENDCHAR
STARTCHAR U+3009
ENCODING 12297
SWIDTH 1000 0
DWIDTH 16 0
BBX 5 16 1 -2
BITMAP
80
80
40
40
20
10
10
08
08
10
10
20
40
40
80
80
ENDCHAR
STARTCHAR U+300A
ENCODING 12298
SWIDTH 1000 0
DWIDTH 16 0
BBX 8 16 6 -2
BITMAP
09
09
12
12
24
48
48
90
90
48
48
24
12
12
09
09
ENDCHAR
STARTCHAR U+300B
ENCODING 12299
SWIDTH 1000 0
DWIDTH 16 0
BBX 8 16 1 -2
BITMAP
90
90
48
48
24
12
12
09
09
12
12
24
48
48
90
90
ENDCHAR
STARTCHAR U+300C
ENCODING 12300
SWIDTH 1000 0
DWIDTH 16 0
BBX 5 13 9 1
BITMAP
F8
80
80
80
80
80
80
80
80
80
80
80
80
ENDCHAR
STARTCHAR U+300D
ENCODING 12301
SWIDTH 1000 0
DWIDTH 16 0
BBX 5 13 1 -2
BITMAP
08
08
08
08
08
08
08
08
08
08
08
08
F8
ENDCHAR
STARTCHAR U+300E
ENCODING 12302
SWIDTH 1000 0
DWIDTH 16 0
BBX 6 13 8 1
BITMAP
FC
84
BC
A0
A0
A0
A0
A0
A0
A0
A0
A0
E0
ENDCHAR
STARTCHAR U+300F
ENCODING 12303
SWIDTH 1000 0
DWIDTH 16 0
BBX 6 13 1 -2
BITMAP
1C
14
14
14
14
14
14
14
14
14
F4
84
FC
ENDCHAR
STARTCHAR U+3010
ENCODING 12304
SWIDTH 1000 0
DWIDTH 16 0
BBX 5 16 9 -2
BITMAP
F8
E0
E0
C0
C0
C0
C0
C0
C0
C0
C0
C0
C0
E0
E0
F8
ENDCHAR
STARTCHAR U+3011
ENCODING 12305
SWIDTH 1000 0
DWIDTH 16 0
BBX 5 16 1 -2
BITMAP
F8
38
38
18
18
18
18
18
18
18
18
18
18
38
38
F8
ENDCHAR
STARTCHAR U+3012
ENCODING 12306
SWIDTH 1000 0
DWIDTH 16 0
BBX 14 15 0 -2
BITMAP
FFFC
FFFC
0000
0000
FFFC
FFFC
0300
0300
0300
0300
0300
0300
0300
0300
0300
ENDCHAR
STARTCHAR U+3013
ENCODING 12307
SWIDTH 1000 0
DWIDTH 16 0
BBX 11 7 2 3
BITMAP
FFE0
FFE0
0000
0000
0000
FFE0
FFE0
ENDCHAR
STARTCHAR U+3014
ENCODING 12308
SWIDTH 1000 0
DWIDTH 16 0
BBX 4 16 10 -2
BITMAP
10
20
40
80
80
80
80
80
80
80
80
80
80
40
20
10
ENDCHAR
STARTCHAR U+3015
ENCODING 12309
SWIDTH 1000 0
DWIDTH 16 0
BBX 4 16 1 -2
BITMAP
80
40
20
10
10
10
10
10
10
10
10
10
10
20
40
80
ENDCHAR
STARTCHAR U+3016
ENCODING 12310
SWIDTH 1000 0
DWIDTH 16 0
BBX 5 16 9 -2
BITMAP
F8
A0
A0
C0
C0
C0
C0
C0
C0
C0
C0
C0
C0
A0
A0
F8
ENDCHAR
STARTCHAR U+3017
ENCODING 12311
SWIDTH 1000 0
DWIDTH 16 0
BBX 5 16 1 -2
BITMAP
F8
28
28
18
18
18
18
18
18
18
18
18
18
28
28
F8
ENDCHAR
STARTCHAR U+301C
ENCODING 12316
SWIDTH 1000 0
DWIDTH 16 0
BBX 15 5 0 4
BITMAP
3C00
4200
8102
0084
0078
ENDCHAR
STARTCHAR U+301D
ENCODING 12317
SWIDTH 1000 0
DWIDTH 16 0
BBX 5 3 9 10
BITMAP
48
48
90
ENDCHAR
STARTCHAR U+301F
ENCODING 12319
SWIDTH 1000 0
DWIDTH 16 0
BBX 5 3 1 -1
BITMAP
48
48
90
ENDCHAR
STARTCHAR U+3021
ENCODING 12321
SWIDTH 1000 0
DWIDTH 16 0
BBX 1 16 7 -2
BITMAP
80
80
80
80
80
80
80
80
80
80
80
80
80
80
80
80
ENDCHAR
STARTCHAR U+3022
ENCODING 12322
SWIDTH 1000 0
DWIDTH 16 0
BBX 7 16 4 -2
BITMAP
02
82
82
82
82
82
82
82
82
82
82
82
82
82
82
02
ENDCHAR
STARTCHAR U+3023
ENCODING 12323
SWIDTH 1000 0
DWIDTH 16 0
BBX 9 16 3 -2
BITMAP
0080
8080
8880
8880
8880
8880
8880
8880
8880
8880
8880
8880
8880
8880
8080
0080
ENDCHAR
STARTCHAR U+3024
ENCODING 12324
SWIDTH 1000 0
DWIDTH 16 0
BBX 13 16 0 -2
BITMAP
0008
0008
1808
0410
0210
0120
00A0
0040
0040
00A0
0120
0210
0410
0808
3008
C000
ENDCHAR
STARTCHAR U+3025
ENCODING 12325
SWIDTH 1000 0
DWIDTH 16 0
BBX 11 16 2 -2
BITMAP
1040
2040
4040
4080
2080
1900
0600
1980
2040
4020
4020
8020
8020
8020
4040
3F80
ENDCHAR
STARTCHAR U+3026
ENCODING 12326
SWIDTH 1000 0
DWIDTH 16 0
BBX 15 16 0 -2
BITMAP
0100
0100
0100
0100
0100
0100
0100
0100
0100
0100
0100
0100
0100
0100
0100
FFFE
ENDCHAR
STARTCHAR U+3027
ENCODING 12327
SWIDTH 1000 0
DWIDTH 16 0
BBX 15 16 0 -2
BITMAP
0100
0100
0100
0100
0100
0100
0100
0100
0100
0100
0100
0100
FFFE
0000
0000
7FFC
ENDCHAR
STARTCHAR U+3028
ENCODING 12328
SWIDTH 1000 0
DWIDTH 16 0
BBX 15 16 0 -2
BITMAP
0100
0100
0100
0100
0100
0100
0100
0100
0100
FFFE
0000
0000
7FFC
0000
0000
7FFC
ENDCHAR
STARTCHAR U+3029
ENCODING 12329
SWIDTH 1000 0
DWIDTH 16 0
BBX 15 16 0 -2
BITMAP
0100
0100
0100
0100
FFF8
4004
2008
2008
1010
0820
0440
0280
0100
06C0
1830
E00E
ENDCHAR
STARTCHAR U+3038
ENCODING 12344
SWIDTH 1000 0
DWIDTH 16 0
BBX 15 16 0 -2
BITMAP
0100
0100
0100
0100
0100
0100
0100
FFFE
0100
0100
0100
0100
0100
0100
0100
0100
ENDCHAR
STARTCHAR U+3039
ENCODING 12345
SWIDTH 1000 0
DWIDTH 16 0
BBX 15 16 0 -2
BITMAP
0820
0820
0820
0820
0820
0820
0820
FFFE
0820
0820
0820
0820
0820
0820
0820
0820
ENDCHAR
STARTCHAR U+303A
ENCODING 12346
SWIDTH 1000 0
DWIDTH 16 0
BBX 15 16 0 -2
BITMAP
1010
1110
1110
1110
1110
1110
1110
FFFE
1110
1110
1110
1110
1110
2110
2010
4010
ENDCHAR
STARTCHAR U+3041
ENCODING 12353
SWIDTH 1000 0
DWIDTH 16 0
BBX 9 11 3 -2
BITMAP
1000
1000
7E00
1000
1E00
3500
5480
9880
A880
4100
0600
ENDCHAR
STARTCHAR U+3042
ENCODING 12354
SWIDTH 1000 0
DWIDTH 16 0
BBX 12 15 2 -1
BITMAP
0400
0400
0400
0FC0
F800
0900
1FC0
2920
4A10
4A10
8C10
8810
9420
6040
0380
ENDCHAR
STARTCHAR U+3043
ENCODING 12355
SWIDTH 1000 0
DWIDTH 16 0
BBX 10 8 3 -1
BITMAP
4100
8080
8040
8040
8040
4000
4000
3000
ENDCHAR
STARTCHAR U+3044
ENCODING 12356
SWIDTH 1000 0
DWIDTH 16 0
BBX 12 12 2 0
BITMAP
4000
4080
8040
8020
8020
8010
8010
8010
4010
4000
2000
1000
ENDCHAR
STARTCHAR U+3045
ENCODING 12357
SWIDTH 1000 0
DWIDTH 16 0
BBX 6 11 5 -2
BITMAP
40
38
00
38
C4
04
04
04
04
08
30
ENDCHAR
STARTCHAR U+3046
ENCODING 12358
SWIDTH 1000 0
DWIDTH 16 0
BBX 10 16 2 -2
BITMAP
1000
0C00
0300
0000
0000
1F00
6080
8040
0040
0040
0040
0080
0080
0100
0200
0C00
ENDCHAR
STARTCHAR U+3047
ENCODING 12359
SWIDTH 1000 0
DWIDTH 16 0
BBX 9 10 3 -1
BITMAP
1000
0C00
0000
1E00
6400
0800
1400
2400
4400
8380
ENDCHAR
STARTCHAR U+3048
ENCODING 12360
SWIDTH 1000 0
DWIDTH 16 0
BBX 12 15 2 -1
BITMAP
1000
0C00
0300
0000
0E00
7100
0100
0200
0400
0800
1400
2200
4200
8200
81F0
ENDCHAR
STARTCHAR U+3049
ENCODING 12361
SWIDTH 1000 0
DWIDTH 16 0
BBX 9 9 3 -1
BITMAP
2000
2100
F880
2080
3F00
6080
A080
A080
4700
ENDCHAR
STARTCHAR U+304A
ENCODING 12362
SWIDTH 1000 0
DWIDTH 16 0
BBX 13 15 1 -1
BITMAP
1000
1000
1020
3E10
D008
1008
1000
17E0
1810
3008
5008
9008
9108
9110
60E0
ENDCHAR
STARTCHAR U+304B
ENCODING 12363
SWIDTH 1000 0
DWIDTH 16 0
BBX 15 15 0 -1
BITMAP
0400
0400
0400
0800
1F10
E888
0844
1044
1042
1042
2042
2080
2080
4100
4600
ENDCHAR
STARTCHAR U+304C
ENCODING 12364
SWIDTH 1000 0
DWIDTH 16 0
BBX 15 15 0 -1
BITMAP
0404
0412
040A
0808
1F10
E888
0844
1044
1042
1042
2042
2080
2080
4100
4600
ENDCHAR
STARTCHAR U+304D
ENCODING 12365
SWIDTH 1000 0
DWIDTH 16 0
BBX 9 15 3 -2
BITMAP
1000
1000
1F00
E800
0400
0F80
F200
0100
0080
0080
8000
8000
4000
3000
0F00
ENDCHAR
STARTCHAR U+304E
ENCODING 12366
SWIDTH 1000 0
DWIDTH 16 0
BBX 13 16 2 -2
BITMAP
0010
0848
0828
0FA0
F400
0200
03C0
7D00
0080
0040
0040
4000
4000
2000
1800
0780
ENDCHAR
STARTCHAR U+304F
ENCODING 12367
SWIDTH 1000 0
DWIDTH 16 0
BBX 7 16 3 -2
BITMAP
04
04
08
08
10
20
40
80
80
40
20
10
08
04
02
02
ENDCHAR
STARTCHAR U+3050
ENCODING 12368
SWIDTH 1000 0
DWIDTH 16 0
BBX 11 16 3 -2
BITMAP
0400
0400
0800
0840
1120
20A0
4080
8000
8000
4000
2000
1000
0800
0400
0200
0200
ENDCHAR
STARTCHAR U+3051
ENCODING 12369
SWIDTH 1000 0
DWIDTH 16 0
BBX 13 16 2 -2
BITMAP
0040
4040
4040
4040
4040
83F8
8C40
8040
8040
8040
8040
8040
8080
4080
4100
0600
ENDCHAR
STARTCHAR U+3052
ENCODING 12370
SWIDTH 1000 0
DWIDTH 16 0
BBX 14 16 1 -2
BITMAP
0048
4064
4054
4050
4040
83FC
8C40
8040
8040
8040
8040
8040
8080
4080
4100
0600
ENDCHAR
STARTCHAR U+3053
ENCODING 12371
SWIDTH 1000 0
DWIDTH 16 0
BBX 11 11 2 0
BITMAP
3E00
0180
0000
0000
0000
0000
0000
8000
8000
6000
1FE0
ENDCHAR
STARTCHAR U+3054
ENCODING 12372
SWIDTH 1000 0
DWIDTH 16 0
BBX 12 14 2 0
BITMAP
0020
0090
0050
3E40
0180
0000
0000
0000
0000
0000
8000
8000
6000
1FE0
ENDCHAR
STARTCHAR U+3055
ENCODING 12373
SWIDTH 1000 0
DWIDTH 16 0
BBX 10 16 2 -2
BITMAP
0800
0800
0800
0400
0400
07C0
FA00
0100
0080
0040
0040
4000
4000
2000
1800
0700
ENDCHAR
STARTCHAR U+3056
ENCODING 12374
SWIDTH 1000 0
DWIDTH 16 0
BBX 13 16 2 -2
BITMAP
0810
0848
0828
0420
0400
07C0
FA00
0100
0080
0040
0040
4000
4000
2000
1800
0700
ENDCHAR
STARTCHAR U+3057
ENCODING 12375
SWIDTH 1000 0
DWIDTH 16 0
BBX 10 14 4 -1
BITMAP
8000
8000
8000
8000
8000
8000
8000
8000
8000
8000
8040
8080
4300
3C00
ENDCHAR
STARTCHAR U+3058
ENCODING 12376
SWIDTH 1000 0
DWIDTH 16 0
BBX 10 14 4 -1
BITMAP
8000
8100
8480
8280
8200
8000
8000
8000
8000
8000
8040
8080
4300
3C00
ENDCHAR
STARTCHAR U+3059
ENCODING 12377
SWIDTH 1000 0
DWIDTH 16 0
BBX 15 14 0 -1
BITMAP
0080
0080
0080
0FFE
F080
0680
0980
0880
0880
0980
0680
0080
0100
0E00
ENDCHAR
STARTCHAR U+305A
ENCODING 12378
SWIDTH 1000 0
DWIDTH 16 0
BBX 15 15 0 -1
BITMAP
0004
0092
008A
0088
0FFE
F080
0680
0980
0880
0880
0980
0680
0080
0100
0E00
ENDCHAR
STARTCHAR U+305B
ENCODING 12379
SWIDTH 1000 0
DWIDTH 16 0
BBX 14 14 0 -1
BITMAP
0040
0840
0840
0840
0FFC
F840
0840
0840
0840
0880
0800
0800
0400
03F0
ENDCHAR
STARTCHAR U+305C
ENCODING 12380
SWIDTH 1000 0
DWIDTH 16 0
BBX 15 15 0 -1
BITMAP
0004
0052
084A
0848
0840
0FFE
F840
0840
0840
0840
0880
0800
0800
0400
03F0
ENDCHAR
STARTCHAR U+305D
ENCODING 12381
SWIDTH 1000 0
DWIDTH 16 0
BBX 12 15 1 -2
BITMAP
1F00
2080
0100
0200
0400
0BF0
FC80
0100
0200
0400
0400
0400
0400
0200
0180
ENDCHAR
STARTCHAR U+305E
ENCODING 12382
SWIDTH 1000 0
DWIDTH 16 0
BBX 14 15 1 -2
BITMAP
1F08
20A4
0114
0210
0400
0BF0
FC80
0100
0200
0400
0400
0400
0400
0200
0180
ENDCHAR
STARTCHAR U+305F
ENCODING 12383
SWIDTH 1000 0
DWIDTH 16 0
BBX 13 14 1 -1
BITMAP
1000
1000
1000
1F00
F000
21F0
2000
2000
4000
4000
4400
8400
8300
00F8
ENDCHAR
STARTCHAR U+3060
ENCODING 12384
SWIDTH 1000 0
DWIDTH 16 0
BBX 14 15 1 -1
BITMAP
0008
1024
1014
1010
1F00
F000
21F0
2000
2000
4000
4000
4400
8400
8300
00F8
ENDCHAR
STARTCHAR U+3061
ENCODING 12385
SWIDTH 1000 0
DWIDTH 16 0
BBX 12 15 1 -1
BITMAP
0800
0800
0800
1000
1F00
F000
1000
21C0
2620
2810
3010
0010
0020
00C0
0700
ENDCHAR
STARTCHAR U+3062
ENCODING 12386
SWIDTH 1000 0
DWIDTH 16 0
BBX 13 15 1 -1
BITMAP
0800
0810
0848
1028
1F20
F000
1000
21C0
2620
2810
3010
0010
0020
00C0
0700
ENDCHAR
STARTCHAR U+3063
ENCODING 12387
SWIDTH 1000 0
DWIDTH 16 0
BBX 10 7 2 -1
BITMAP
1F80
E040
0040
0040
0040
0080
0F00
ENDCHAR
STARTCHAR U+3064
ENCODING 12388
SWIDTH 1000 0
DWIDTH 16 0
BBX 13 10 1 0
BITMAP
07E0
3810
C008
0008
0008
0008
0010
0010
0060
0780
ENDCHAR
STARTCHAR U+3065
ENCODING 12389
SWIDTH 1000 0
DWIDTH 16 0
BBX 14 14 1 0
BITMAP
0008
0024
0014
0010
07E0
3810
C008
0008
0008
0008
0010
0010
0060
0F80
ENDCHAR
STARTCHAR U+3066
ENCODING 12390
SWIDTH 1000 0
DWIDTH 16 0
BBX 14 12 0 -1
BITMAP
07FC
F880
0100
0200
0200
0400
0400
0400
0400
0200
0100
00F0
ENDCHAR
STARTCHAR U+3067
ENCODING 12391
SWIDTH 1000 0
DWIDTH 16 0
BBX 15 12 0 -1
BITMAP
07F4
F892
010A
0208
0200
0400
0400
0400
0400
0200
0100
00F0
ENDCHAR
STARTCHAR U+3068
ENCODING 12392
SWIDTH 1000 0
DWIDTH 16 0
BBX 9 15 3 -1
BITMAP
2000
2000
2000
2000
2000
2000
1780
1800
2000
4000
8000
8000
8000
4000
3F80
ENDCHAR
STARTCHAR U+3069
ENCODING 12393
SWIDTH 1000 0
DWIDTH 16 0
BBX 11 15 3 -1
BITMAP
2040
2120
20A0
2080
2000
2000
1780
1800
2000
4000
8000
8000
8000
4000
3F80
ENDCHAR
STARTCHAR U+306A
ENCODING 12394
SWIDTH 1000 0
DWIDTH 16 0
BBX 14 15 1 -1
BITMAP
1000
1000
1000
1E60
F018
2004
2040
4040
4040
4040
8040
87C0
0870
084C
0780
ENDCHAR
STARTCHAR U+306B
ENCODING 12395
SWIDTH 1000 0
DWIDTH 16 0
BBX 12 14 2 -1
BITMAP
4000
4000
4780
8060
8000
8000
8000
8000
8000
8800
8800
8600
41F0
4000
ENDCHAR
STARTCHAR U+306C
ENCODING 12396
SWIDTH 1000 0
DWIDTH 16 0
BBX 14 13 1 0
BITMAP
0100
0100
2100
27C0
3920
2210
5208
5408
8808
89E8
9610
6218
01E4
ENDCHAR
STARTCHAR U+306D
ENCODING 12397
SWIDTH 1000 0
DWIDTH 16 0
BBX 14 15 1 -1
BITMAP
1000
1000
1000
1000
7DE0
9210
1408
1808
1008
3008
51D0
5230
9228
91C4
1000
ENDCHAR
STARTCHAR U+306E
ENCODING 12398
SWIDTH 1000 0
DWIDTH 16 0
BBX 13 12 1 0
BITMAP
0780
1A60
2210
4210
4208
8408
8408
8808
8810
9010
6060
0380
ENDCHAR
STARTCHAR U+306F
ENCODING 12399
SWIDTH 1000 0
DWIDTH 16 0
BBX 14 14 1 -1
BITMAP
4040
4040
4040
4040
8078
87C0
8040
8040
8040
8040
83C0
8470
444C
4380
ENDCHAR
STARTCHAR U+3070
ENCODING 12400
SWIDTH 1000 0
DWIDTH 16 0
BBX 14 15 1 -1
BITMAP
0008
40A4
4094
4090
4080
80F8
8F80
8080
8080
8080
8080
8780
88E0
4898
4704
ENDCHAR
STARTCHAR U+3071
ENCODING 12401
SWIDTH 1000 0
DWIDTH 16 0
BBX 14 15 1 -1
BITMAP
0018
40A4
40A4
4098
4080
80F8
8F80
8080
8080
8080
8080
8780
88E0
4898
4704
ENDCHAR
STARTCHAR U+3072
ENCODING 12402
SWIDTH 1000 0
DWIDTH 16 0
BBX 14 12 1 -1
BITMAP
7040
8860
1050
2050
2048
4044
4040
4080
4080
4100
2200
1C00
ENDCHAR
STARTCHAR U+3073
ENCODING 12403
SWIDTH 1000 0
DWIDTH 16 0
BBX 15 14 0 -1
BITMAP
0004
0012
704A
8868
1050
2050
2048
4044
4042
4080
4080
4100
2200
1C00
ENDCHAR
STARTCHAR U+3074
ENCODING 12404
SWIDTH 1000 0
DWIDTH 16 0
BBX 15 14 0 -1
BITMAP
000C
0012
7052
886C
1050
2050
2048
4044
4042
4080
4080
4100
2200
1C00
ENDCHAR
STARTCHAR U+3075
ENCODING 12405
SWIDTH 1000 0
DWIDTH 16 0
BBX 15 14 0 -1
BITMAP
0200
0100
00C0
0000
0000
0400
0210
0108
1084
1042
2042
4042
8440
0380
ENDCHAR
STARTCHAR U+3076
ENCODING 12406
SWIDTH 1000 0
DWIDTH 16 0
BBX 15 14 0 -1
BITMAP
0200
0104
00D2
000A
0008
0400
0210
0108
1084
1042
2042
4042
8440
0380
ENDCHAR
STARTCHAR U+3077
ENCODING 12407
SWIDTH 1000 0
DWIDTH 16 0
BBX 15 14 0 -1
BITMAP
0200
010C
00D2
0012
000C
0400
0210
0108
1084
1042
2042
4042
8440
0380
ENDCHAR
STARTCHAR U+3078
ENCODING 12408
SWIDTH 1000 0
DWIDTH 16 0
BBX 14 9 1 2
BITMAP
1800
2400
2200
4100
4080
4040
8020
8010
000C
ENDCHAR
STARTCHAR U+3079
ENCODING 12409
SWIDTH 1000 0
DWIDTH 16 0
BBX 14 11 1 2
BITMAP
0020
0090
1850
2440
2200
4100
4080
4040
8020
8010
000C
ENDCHAR
STARTCHAR U+307A
ENCODING 12410
SWIDTH 1000 0
DWIDTH 16 0
BBX 14 11 1 2
BITMAP
0060
0090
1890
2460
2200
4100
4080
4040
8020
8010
000C
ENDCHAR
STARTCHAR U+307B
ENCODING 12411
SWIDTH 1000 0
DWIDTH 16 0
BBX 14 14 1 -1
BITMAP
4000
47F0
4040
8040
8040
8078
87C0
8040
8040
8040
83C0
4470
444C
2380
ENDCHAR
STARTCHAR U+307C
ENCODING 12412
SWIDTH 1000 0
DWIDTH 16 0
BBX 14 15 1 -1
BITMAP
0008
4024
47D4
4050
8040
8040
8078
87C0
8040
8040
8040
83C0
4470
444C
2380
ENDCHAR
STARTCHAR U+307D
ENCODING 12413
SWIDTH 1000 0
DWIDTH 16 0
BBX 14 15 1 -1
BITMAP
0018
4024
47E4
4058
8040
8040
8078
87C0
8040
8040
8040
83C0
4470
444C
2380
ENDCHAR
STARTCHAR U+307E
ENCODING 12414
SWIDTH 1000 0
DWIDTH 16 0
BBX 11 15 2 -1
BITMAP
0400
0400
0400
07E0
FC00
0400
07C0
7C00
0400
0400
0400
3F00
44C0
4420
3800
ENDCHAR
STARTCHAR U+307F
ENCODING 12415
SWIDTH 1000 0
DWIDTH 16 0
BBX 14 13 1 -1
BITMAP
3C00
4200
0200
0220
0410
0410
3F90
4870
8818
9024
9040
6080
0300
ENDCHAR
STARTCHAR U+3080
ENCODING 12416
SWIDTH 1000 0
DWIDTH 16 0
BBX 13 15 1 -1
BITMAP
1000
1000
1020
1E10
F008
1008
1000
7000
9000
9000
9010
7010
1010
1020
0FC0
ENDCHAR
STARTCHAR U+3081
ENCODING 12417
SWIDTH 1000 0
DWIDTH 16 0
BBX 13 14 1 -1
BITMAP
0100
0100
2100
2380
2D60
3110
2208
5208
5408
8808
9410
A210
4060
0380
ENDCHAR
STARTCHAR U+3082
ENCODING 12418
SWIDTH 1000 0
DWIDTH 16 0
BBX 12 15 1 -1
BITMAP
0400
0400
0400
0800
4800
3E00
0840
1020
9020
9010
7E10
1010
1010
0820
07C0
ENDCHAR
STARTCHAR U+3083
ENCODING 12419
SWIDTH 1000 0
DWIDTH 16 0
BBX 12 11 1 -1
BITMAP
0400
0200
0100
13E0
1410
3810
C910
08E0
0400
0200
0200
ENDCHAR
STARTCHAR U+3084
ENCODING 12420
SWIDTH 1000 0
DWIDTH 16 0
BBX 15 14 0 -1
BITMAP
0100
08C0
1020
10F8
1304
0C02
1802
6444
8438
0200
0200
0100
0100
0080
ENDCHAR
STARTCHAR U+3085
ENCODING 12421
SWIDTH 1000 0
DWIDTH 16 0
BBX 10 12 3 -2
BITMAP
4800
5400
4F00
9480
A440
C440
8440
5480
4F00
0400
0800
3000
ENDCHAR
STARTCHAR U+3086
ENCODING 12422
SWIDTH 1000 0
DWIDTH 16 0
BBX 13 15 1 -2
BITMAP
0300
4080
41E0
4290
8488
8888
9088
9088
A088
A490
43E0
4080
0080
0300
1C00
ENDCHAR
STARTCHAR U+3087
ENCODING 12423
SWIDTH 1000 0
DWIDTH 16 0
BBX 9 11 3 -1
BITMAP
0800
0800
0800
0F00
0800
0800
0800
7800
8E00
8980
7000
ENDCHAR
STARTCHAR U+3088
ENCODING 12424
SWIDTH 1000 0
DWIDTH 16 0
BBX 11 15 2 -1
BITMAP
0800
0400
0400
0400
07C0
0420
0400
0400
0400
0400
0400
7F00
84C0
8420
7800
ENDCHAR
STARTCHAR U+3089
ENCODING 12425
SWIDTH 1000 0
DWIDTH 16 0
BBX 10 15 3 -1
BITMAP
1000
0C00
0300
2000
4000
4000
8000
8000
8F00
B080
C040
0040
0040
0180
0E00
ENDCHAR
STARTCHAR U+308A
ENCODING 12426
SWIDTH 1000 0
DWIDTH 16 0
BBX 9 15 3 -2
BITMAP
4000
4E00
9100
A080
C080
8080
8080
8080
8080
8080
0080
0100
0100
0200
1C00
ENDCHAR
STARTCHAR U+308B
ENCODING 12427
SWIDTH 1000 0
DWIDTH 16 0
BBX 11 14 2 -1
BITMAP
3E00
4100
0100
0200
0400
0800
1F80
2040
4020
8020
8C20
1220
1240
0F80
ENDCHAR
STARTCHAR U+308C
ENCODING 12428
SWIDTH 1000 0
DWIDTH 16 0
BBX 14 15 1 -1
BITMAP
1000
1000
1000
10E0
7910
9210
1410
1810
1010
3010
5020
5024
9024
9018
1000
ENDCHAR
STARTCHAR U+308D
ENCODING 12429
SWIDTH 1000 0
DWIDTH 16 0
BBX 11 14 2 -1
BITMAP
3E00
4100
0200
0400
0800
1000
3F80
6040
8020
0020
0020
0040
0180
1E00
ENDCHAR
STARTCHAR U+308E
ENCODING 12430
SWIDTH 1000 0
DWIDTH 16 0
BBX 10 10 2 -2
BITMAP
1000
1000
7B00
1480
1840
3040
5040
9080
1300
1000
ENDCHAR
STARTCHAR U+308F
ENCODING 12431
SWIDTH 1000 0
DWIDTH 16 0
BBX 13 15 1 -1
BITMAP
1000
1000
1000
1000
7C00
91E0
1610
1808
1008
3008
5008
5010
9060
9380
1000
ENDCHAR
STARTCHAR U+3090
ENCODING 12432
SWIDTH 1000 0
DWIDTH 16 0
BBX 13 14 1 -1
BITMAP
3C00
4200
0200
0400
0400
1FC0
2420
4810
4808
9008
9308
A488
4490
03E0
ENDCHAR
STARTCHAR U+3091
ENCODING 12433
SWIDTH 1000 0
DWIDTH 16 0
BBX 15 14 0 -1
BITMAP
0F80
1040
0180
0200
07E0
0810
1310
04A0
07C0
0800
1C78
2284
4102
8102
ENDCHAR
STARTCHAR U+3092
ENCODING 12434
SWIDTH 1000 0
DWIDTH 16 0
BBX 12 15 1 -1
BITMAP
0400
0400
07C0
FC00
0400
0800
1800
2430
C2C0
0700
0A00
1200
1000
1000
0FE0
ENDCHAR
STARTCHAR U+3093
ENCODING 12435
SWIDTH 1000 0
DWIDTH 16 0
BBX 13 14 1 -1
BITMAP
0200
0200
0400
0400
0800
0800
1000
1008
2C08
2208
4208
4210
8210
81E0
ENDCHAR
STARTCHAR U+3094
ENCODING 12436
SWIDTH 1000 0
DWIDTH 16 0
BBX 13 16 2 -2
BITMAP
1010
0C48
0328
0020
0000
1F00
6080
8040
0040
0040
0040
0080
0080
0100
0200
0C00
ENDCHAR
STARTCHAR U+3095
ENCODING 12437
SWIDTH 1000 0
DWIDTH 16 0
BBX 10 10 3 -1
BITMAP
1000
1000
1100
3C80
D240
1240
2240
2200
4400
9800
ENDCHAR
STARTCHAR U+3096
ENCODING 12438
SWIDTH 1000 0
DWIDTH 16 0
BBX 10 11 2 -2
BITMAP
0100
4100
4100
47C0
9900
8100
8100
8100
4200
4200
0C00
ENDCHAR
STARTCHAR U+309B
ENCODING 12443
SWIDTH 1000 0
DWIDTH 16 0
BBX 4 4 0 10
BITMAP
20
90
50
40
ENDCHAR
STARTCHAR U+309C
ENCODING 12444
SWIDTH 1000 0
DWIDTH 16 0
BBX 4 4 0 10
BITMAP
60
90
90
60
ENDCHAR
STARTCHAR U+309D
ENCODING 12445
SWIDTH 1000 0
DWIDTH 16 0
BBX 7 10 5 1
BITMAP
80
40
20
10
08
04
04
02
02
3C
ENDCHAR
STARTCHAR U+309E
ENCODING 12446
SWIDTH 1000 0
DWIDTH 16 0
BBX 9 11 4 1
BITMAP
0100
8080
4480
2200
1200
0800
0400
0400
0200
0200
3C00
ENDCHAR
STARTCHAR U+30A1
ENCODING 12449
SWIDTH 1000 0
DWIDTH 16 0
BBX 9 8 3 -1
BITMAP
FF00
0080
0880
0B00
0800
0800
1000
6000
ENDCHAR
STARTCHAR U+30A2
ENCODING 12450
SWIDTH 1000 0
DWIDTH 16 0
BBX 12 12 2 -1
BITMAP
FFE0
0010
0210
0220
0240
0380
0200
0400
0400
0800
1000
6000
ENDCHAR
STARTCHAR U+30A3
ENCODING 12451
SWIDTH 1000 0
DWIDTH 16 0
BBX 8 10 3 -2
BITMAP
01
02
04
08
38
C8
08
08
08
08
ENDCHAR
STARTCHAR U+30A4
ENCODING 12452
SWIDTH 1000 0
DWIDTH 16 0
BBX 9 14 2 -1
BITMAP
0080
0080
0100
0200
0400
0C00
3400
C400
0400
0400
0400
0400
0400
0400
ENDCHAR
STARTCHAR U+30A5
ENCODING 12453
SWIDTH 1000 0
DWIDTH 16 0
BBX 8 11 4 -2
BITMAP
10
10
10
7E
81
81
82
02
04
08
30
ENDCHAR
STARTCHAR U+30A6
ENCODING 12454
SWIDTH 1000 0
DWIDTH 16 0
BBX 11 14 2 -1
BITMAP
0400
0400
0400
7FC0
8020
8020
8020
8020
0040
0040
0080
0100
0200
0C00
ENDCHAR
STARTCHAR U+30A7
ENCODING 12455
SWIDTH 1000 0
DWIDTH 16 0
BBX 9 6 3 0
BITMAP
7F00
0800
0800
0800
0800
FF80
ENDCHAR
STARTCHAR U+30A8
ENCODING 12456
SWIDTH 1000 0
DWIDTH 16 0
BBX 13 9 1 1
BITMAP
7FF0
0200
0200
0200
0200
0200
0200
0200
FFF8
ENDCHAR
STARTCHAR U+30A9
ENCODING 12457
SWIDTH 1000 0
DWIDTH 16 0
BBX 10 10 2 -1
BITMAP
0200
0200
0200
7FC0
0600
0A00
1200
2200
D200
0C00
ENDCHAR
STARTCHAR U+30AA
ENCODING 12458
SWIDTH 1000 0
DWIDTH 16 0
BBX 13 14 1 -1
BITMAP
0080
0080
0080
0080
7FF8
0180
0280
0280
0480
0880
3080
C080
0480
0300
ENDCHAR
STARTCHAR U+30AB
ENCODING 12459
SWIDTH 1000 0
DWIDTH 16 0
BBX 11 13 2 0
BITMAP
0400
0400
0400
0400
FFC0
0420
0820
0820
0820
1020
1040
2440
C380
ENDCHAR
STARTCHAR U+30AC
ENCODING 12460
SWIDTH 1000 0
DWIDTH 16 0
BBX 14 13 1 0
BITMAP
0408
0424
0414
0410
FFC0
0420
0820
0820
0820
1020
1040
2440
C380
ENDCHAR
STARTCHAR U+30AD
ENCODING 12461
SWIDTH 1000 0
DWIDTH 16 0
BBX 12 14 2 -1
BITMAP
0400
0400
0400
0400
7FC0
0400
0400
0400
FFF0
0200
0200
0200
0200
0200
ENDCHAR
STARTCHAR U+30AE
ENCODING 12462
SWIDTH 1000 0
DWIDTH 16 0
BBX 13 15 2 -1
BITMAP
0010
0448
0428
0420
0400
7FC0
0400
0400
0400
FFF0
0200
0200
0200
0200
0200
ENDCHAR
STARTCHAR U+30AF
ENCODING 12463
SWIDTH 1000 0
DWIDTH 16 0
BBX 10 14 2 -1
BITMAP
1000
1000
1F80
1040
2040
2040
4080
8080
0100
0100
0200
0400
1800
6000
ENDCHAR
STARTCHAR U+30B0
ENCODING 12464
SWIDTH 1000 0
DWIDTH 16 0
BBX 14 15 1 -1
BITMAP
0008
1024
1014
1F90
1040
2040
2040
4080
8080
0100
0100
0200
0400
1800
6000
ENDCHAR
STARTCHAR U+30B1
ENCODING 12465
SWIDTH 1000 0
DWIDTH 16 0
BBX 12 13 2 -1
BITMAP
1000
1000
1000
1FF0
2080
2080
4080
8100
0100
0200
0400
0800
3000
ENDCHAR
STARTCHAR U+30B2
ENCODING 12466
SWIDTH 1000 0
DWIDTH 16 0
BBX 14 14 1 -1
BITMAP
0008
1024
1014
1010
1FE0
2080
2080
4080
8100
0100
0200
0400
0800
3000
ENDCHAR
STARTCHAR U+30B3
ENCODING 12467
SWIDTH 1000 0
DWIDTH 16 0
BBX 9 9 3 1
BITMAP
FF00
0080
0080
0080
0080
0080
0080
0080
FF00
ENDCHAR
STARTCHAR U+30B4
ENCODING 12468
SWIDTH 1000 0
DWIDTH 16 0
BBX 13 12 2 1
BITMAP
0010
0048
0028
FF20
0080
0080
0080
0080
0080
0080
0080
FF00
ENDCHAR
STARTCHAR U+30B5
ENCODING 12469
SWIDTH 1000 0
DWIDTH 16 0
BBX 13 14 1 -1
BITMAP
0080
1080
1080
1080
1080
FFF8
1080
1080
1080
0080
0100
0100
0200
0C00
ENDCHAR
STARTCHAR U+30B6
ENCODING 12470
SWIDTH 1000 0
DWIDTH 16 0
BBX 14 15 1 -1
BITMAP
0008
00A4
1094
1090
1080
1080
FFF8
1080
1080
1080
0080
0100
0100
0200
0C00
ENDCHAR
STARTCHAR U+30B7
ENCODING 12471
SWIDTH 1000 0
DWIDTH 16 0
BBX 12 11 2 0
BITMAP
4000
2000
1800
8010
4010
3020
0040
0080
0300
0C00
F000
ENDCHAR
STARTCHAR U+30B8
ENCODING 12472
SWIDTH 1000 0
DWIDTH 16 0
BBX 13 13 2 0
BITMAP
0010
0008
4048
2020
1820
8000
4010
3020
0040
0080
0300
0C00
F000
ENDCHAR
STARTCHAR U+30B9
ENCODING 12473
SWIDTH 1000 0
DWIDTH 16 0
BBX 11 11 2 0
BITMAP
7F00
0080
0080
0100
0100
0200
0500
0880
1040
2020
C020
ENDCHAR
STARTCHAR U+30BA
ENCODING 12474
SWIDTH 1000 0
DWIDTH 16 0
BBX 13 14 2 0
BITMAP
0010
0048
0028
7F20
0080
0080
0100
0100
0200
0500
0880
1040
2020
C020
ENDCHAR
STARTCHAR U+30BB
ENCODING 12475
SWIDTH 1000 0
DWIDTH 16 0
BBX 12 13 1 0
BITMAP
0800
0800
0800
0800
FFE0
0810
0810
0820
0840
0800
0800
0400
03F0
ENDCHAR
STARTCHAR U+30BC
ENCODING 12476
SWIDTH 1000 0
DWIDTH 16 0
BBX 14 14 1 0
BITMAP
0008
0824
0814
0810
0800
FFE0
0810
0810
0820
0840
0800
0800
0400
03F0
ENDCHAR
STARTCHAR U+30BD
ENCODING 12477
SWIDTH 1000 0
DWIDTH 16 0
BBX 11 12 2 -1
BITMAP
8020
4020
2020
2020
0040
0040
0080
0080
0100
0200
0C00
3000
ENDCHAR
STARTCHAR U+30BE
ENCODING 12478
SWIDTH 1000 0
DWIDTH 16 0
BBX 14 15 1 -1
BITMAP
0008
0024
0014
8010
4040
2040
2040
0040
0080
0080
0100
0100
0200
0400
1800
ENDCHAR
STARTCHAR U+30BF
ENCODING 12479
SWIDTH 1000 0
DWIDTH 16 0
BBX 10 14 2 -1
BITMAP
1000
1000
1F80
1040
2040
3040
4C80
8280
0100
0100
0200
0400
1800
6000
ENDCHAR
STARTCHAR U+30C0
ENCODING 12480
SWIDTH 1000 0
DWIDTH 16 0
BBX 14 15 1 -1
BITMAP
0008
1024
1014
1F90
1040
2040
3040
4C80
8280
0100
0100
0200
0400
1800
6000
ENDCHAR
STARTCHAR U+30C1
ENCODING 12481
SWIDTH 1000 0
DWIDTH 16 0
BBX 14 14 1 -1
BITMAP
0020
00C0
0700
7900
0100
0100
FFFC
0100
0100
0100
0200
0200
0400
1800
ENDCHAR
STARTCHAR U+30C2
ENCODING 12482
SWIDTH 1000 0
DWIDTH 16 0
BBX 14 14 1 -1
BITMAP
0048
01A4
0614
7910
0100
0100
FFFC
0100
0100
0100
0200
0200
0400
1800
ENDCHAR
STARTCHAR U+30C3
ENCODING 12483
SWIDTH 1000 0
DWIDTH 16 0
BBX 10 9 2 -2
BITMAP
1040
8840
4840
4080
0080
0100
0200
0400
1800
ENDCHAR
STARTCHAR U+30C4
ENCODING 12484
SWIDTH 1000 0
DWIDTH 16 0
BBX 12 13 1 -1
BITMAP
1000
0810
8410
4410
2010
2020
0020
0040
0040
0080
0100
0600
1800
ENDCHAR
STARTCHAR U+30C5
ENCODING 12485
SWIDTH 1000 0
DWIDTH 16 0
BBX 14 15 1 -1
BITMAP
0008
0024
1014
0810
8440
4440
2040
2040
0080
0080
0100
0100
0200
0400
1800
ENDCHAR
STARTCHAR U+30C6
ENCODING 12486
SWIDTH 1000 0
DWIDTH 16 0
BBX 13 12 1 -1
BITMAP
3FE0
0000
0000
0000
FFF8
0100
0100
0100
0200
0200
0400
3800
ENDCHAR
STARTCHAR U+30C7
ENCODING 12487
SWIDTH 1000 0
DWIDTH 16 0
BBX 14 14 1 -1
BITMAP
0008
0024
3FD4
0010
0000
0000
FFF0
0100
0100
0100
0200
0200
0400
3800
ENDCHAR
STARTCHAR U+30C8
ENCODING 12488
SWIDTH 1000 0
DWIDTH 16 0
BBX 9 14 5 -1
BITMAP
8000
8000
8000
8000
8000
F000
8C00
8200
8100
8080
8000
8000
8000
8000
ENDCHAR
STARTCHAR U+30C9
ENCODING 12489
SWIDTH 1000 0
DWIDTH 16 0
BBX 9 14 5 -1
BITMAP
8100
8480
8280
8200
8000
F000
8C00
8200
8100
8080
8000
8000
8000
8000
ENDCHAR
STARTCHAR U+30CA
ENCODING 12490
SWIDTH 1000 0
DWIDTH 16 0
BBX 13 14 1 -1
BITMAP
0100
0100
0100
0100
0100
FFF8
0100
0100
0100
0100
0200
0200
0400
1800
ENDCHAR
STARTCHAR U+30CB
ENCODING 12491
SWIDTH 1000 0
DWIDTH 16 0
BBX 13 8 1 2
BITMAP
3FE0
0000
0000
0000
0000
0000
0000
FFF8
ENDCHAR
STARTCHAR U+30CC
ENCODING 12492
SWIDTH 1000 0
DWIDTH 16 0
BBX 11 11 2 0
BITMAP
7F00
0080
0080
1100
0D00
0200
0500
0880
1040
2020
C000
ENDCHAR
STARTCHAR U+30CD
ENCODING 12493
SWIDTH 1000 0
DWIDTH 16 0
BBX 12 15 2 -1
BITMAP
0800
0400
0200
0000
7F00
0080
0100
0200
0580
0C40
3420
C410
0400
0400
0400
ENDCHAR
STARTCHAR U+30CE
ENCODING 12494
SWIDTH 1000 0
DWIDTH 16 0
BBX 10 12 2 0
BITMAP
0040
0040
0040
0080
0080
0100
0100
0200
0400
0800
3000
C000
ENDCHAR
STARTCHAR U+30CF
ENCODING 12495
SWIDTH 1000 0
DWIDTH 16 0
BBX 13 10 1 1
BITMAP
0800
0880
0840
0820
1020
1010
2010
2008
4008
8008
ENDCHAR
STARTCHAR U+30D0
ENCODING 12496
SWIDTH 1000 0
DWIDTH 16 0
BBX 14 12 1 1
BITMAP
0008
0024
0814
0890
0840
0820
1020
1010
2010
2008
4008
8008
ENDCHAR
STARTCHAR U+30D1
ENCODING 12497
SWIDTH 1000 0
DWIDTH 16 0
BBX 14 12 1 1
BITMAP
0018
0024
0824
0898
0840
0820
1020
1010
2010
2008
4008
8008
ENDCHAR
STARTCHAR U+30D2
ENCODING 12498
SWIDTH 1000 0
DWIDTH 16 0
BBX 9 12 4 0
BITMAP
8000
8000
8000
8100
8600
F800
8000
8000
8000
8000
4000
3F80
ENDCHAR
STARTCHAR U+30D3
ENCODING 12499
SWIDTH 1000 0
DWIDTH 16 0
BBX 12 13 3 0
BITMAP
0020
8090
8050
8040
8100
8600
F800
8000
8000
8000
8000
4000
3F80
ENDCHAR
STARTCHAR U+30D4
ENCODING 12500
SWIDTH 1000 0
DWIDTH 16 0
BBX 12 13 3 0
BITMAP
0060
8090
8090
8060
8100
8600
F800
8000
8000
8000
8000
4000
3F80
ENDCHAR
STARTCHAR U+30D5
ENCODING 12501
SWIDTH 1000 0
DWIDTH 16 0
BBX 10 11 3 0
BITMAP
FF80
0040
0040
0040
0080
0080
0100
0200
0400
1800
6000
ENDCHAR
STARTCHAR U+30D6
ENCODING 12502
SWIDTH 1000 0
DWIDTH 16 0
BBX 13 13 2 0
BITMAP
0010
0048
0028
FFA0
0040
0040
0080
0080
0100
0200
0400
1800
6000
ENDCHAR
STARTCHAR U+30D7
ENCODING 12503
SWIDTH 1000 0
DWIDTH 16 0
BBX 13 13 2 0
BITMAP
0030
0048
0048
FFB0
0040
0040
0080
0080
0100
0200
0400
1800
6000
ENDCHAR
STARTCHAR U+30D8
ENCODING 12504
SWIDTH 1000 0
DWIDTH 16 0
BBX 13 8 1 2
BITMAP
0C00
1200
1100
2080
2040
4020
8010
0008
ENDCHAR
STARTCHAR U+30D9
ENCODING 12505
SWIDTH 1000 0
DWIDTH 16 0
BBX 13 11 1 2
BITMAP
0020
0090
0050
0C40
1200
1100
2080
2040
4020
8010
0008
ENDCHAR
STARTCHAR U+30DA
ENCODING 12506
SWIDTH 1000 0
DWIDTH 16 0
BBX 13 11 1 2
BITMAP
0060
0090
0090
0C60
1200
1100
2080
2040
4020
8010
0008
ENDCHAR
STARTCHAR U+30DB
ENCODING 12507
SWIDTH 1000 0
DWIDTH 16 0
BBX 13 13 1 0
BITMAP
0200
0200
0200
0200
FFF8
0200
0200
2240
2220
4210
4208
9208
0C00
ENDCHAR
STARTCHAR U+30DC
ENCODING 12508
SWIDTH 1000 0
DWIDTH 16 0
BBX 14 14 1 0
BITMAP
0008
0224
0214
0210
0200
FFF8
0200
0200
2240
2220
4210
4208
9208
0C00
ENDCHAR
STARTCHAR U+30DD
ENCODING 12509
SWIDTH 1000 0
DWIDTH 16 0
BBX 14 14 1 0
BITMAP
0018
0224
0224
0218
0200
FFF8
0200
0200
2240
2220
4210
4208
9208
0C00
ENDCHAR
STARTCHAR U+30DE
ENCODING 12510
SWIDTH 1000 0
DWIDTH 16 0
BBX 11 9 2 1
BITMAP
FFC0
0020
0020
2040
1080
0900
0600
0200
0200
ENDCHAR
STARTCHAR U+30DF
ENCODING 12511
SWIDTH 1000 0
DWIDTH 16 0
BBX 10 13 3 -1
BITMAP
7800
0700
0080
0000
3800
0600
0100
0000
0000
F000
0E00
0180
0040
ENDCHAR
STARTCHAR U+30E0
ENCODING 12512
SWIDTH 1000 0
DWIDTH 16 0
BBX 12 12 2 0
BITMAP
0400
0400
0800
0800
1000
1100
2080
4040
8020
83E0
7C10
0010
ENDCHAR
STARTCHAR U+30E1
ENCODING 12513
SWIDTH 1000 0
DWIDTH 16 0
BBX 11 12 2 0
BITMAP
0040
0040
2080
1880
0500
0200
0300
0480
0840
1020
2000
C000
ENDCHAR
STARTCHAR U+30E2
ENCODING 12514
SWIDTH 1000 0
DWIDTH 16 0
BBX 13 12 1 0
BITMAP
7FE0
0400
0400
0400
0400
FFF8
0400
0400
0400
0400
0200
01F0
ENDCHAR
STARTCHAR U+30E3
ENCODING 12515
SWIDTH 1000 0
DWIDTH 16 0
BBX 10 9 3 -2
BITMAP
2000
2780
3840
D080
1300
0800
0800
0400
0400
ENDCHAR
STARTCHAR U+30E4
ENCODING 12516
SWIDTH 1000 0
DWIDTH 16 0
BBX 13 13 1 -1
BITMAP
0800
0800
08F0
0708
1C08
E410
0220
0240
0200
0100
0100
0080
0080
ENDCHAR
STARTCHAR U+30E5
ENCODING 12517
SWIDTH 1000 0
DWIDTH 16 0
BBX 10 6 2 0
BITMAP
3C00
0200
0200
0200
0200
FFC0
ENDCHAR
STARTCHAR U+30E6
ENCODING 12518
SWIDTH 1000 0
DWIDTH 16 0
BBX 13 8 1 2
BITMAP
3F00
0080
0080
0080
0080
0080
0080
FFF8
ENDCHAR
STARTCHAR U+30E7
ENCODING 12519
SWIDTH 1000 0
DWIDTH 16 0
BBX 7 8 4 -1
BITMAP
FC
02
02
FE
02
02
02
FC
ENDCHAR
STARTCHAR U+30E8
ENCODING 12520
SWIDTH 1000 0
DWIDTH 16 0
BBX 9 10 3 1
BITMAP
FF00
0080
0080
0080
FF80
0080
0080
0080
0080
FF00
ENDCHAR
STARTCHAR U+30E9
ENCODING 12521
SWIDTH 1000 0
DWIDTH 16 0
BBX 10 13 2 -1
BITMAP
7F80
0000
0000
0000
FF80
0040
0040
0080
0080
0100
0200
0400
1800
ENDCHAR
STARTCHAR U+30EA
ENCODING 12522
SWIDTH 1000 0
DWIDTH 16 0
BBX 7 14 4 -1
BITMAP
02
82
82
82
82
82
82
82
02
02
04
04
08
30
ENDCHAR
STARTCHAR U+30EB
ENCODING 12523
SWIDTH 1000 0
DWIDTH 16 0
BBX 14 12 1 0
BITMAP
1100
1100
1100
1100
1100
1100
1100
1104
2104
2108
4110
80E0
ENDCHAR
STARTCHAR U+30EC
ENCODING 12524
SWIDTH 1000 0
DWIDTH 16 0
BBX 10 12 4 0
BITMAP
8000
8000
8000
8000
8000
8000
8040
8080
8100
8200
8C00
7000
ENDCHAR
STARTCHAR U+30ED
ENCODING 12525
SWIDTH 1000 0
DWIDTH 16 0
BBX 10 10 3 1
BITMAP
7F80
8040
8040
8040
8040
8040
8040
8040
8040
7F80
ENDCHAR
STARTCHAR U+30EE
ENCODING 12526
SWIDTH 1000 0
DWIDTH 16 0
BBX 7 8 4 -2
BITMAP
7C
82
82
82
02
04
08
30
ENDCHAR
STARTCHAR U+30EF
ENCODING 12527
SWIDTH 1000 0
DWIDTH 16 0
BBX 10 11 3 0
BITMAP
7F80
8040
8040
8040
8040
0040
0080
0080
0100
0600
3800
ENDCHAR
STARTCHAR U+30F0
ENCODING 12528
SWIDTH 1000 0
DWIDTH 16 0
BBX 12 14 2 -1
BITMAP
0100
0100
0100
0100
7FE0
1100
1100
1100
1100
FFF0
0100
0100
0100
0100
ENDCHAR
STARTCHAR U+30F1
ENCODING 12529
SWIDTH 1000 0
DWIDTH 16 0
BBX 13 9 1 1
BITMAP
3FC0
0020
0220
0240
0280
0200
0200
0200
FFF8
ENDCHAR
STARTCHAR U+30F2
ENCODING 12530
SWIDTH 1000 0
DWIDTH 16 0
BBX 10 12 2 -1
BITMAP
FF80
0040
0040
0040
FFC0
0080
0080
0100
0100
0200
0400
1800
ENDCHAR
STARTCHAR U+30F3
ENCODING 12531
SWIDTH 1000 0
DWIDTH 16 0
BBX 12 11 2 0
BITMAP
4000
3000
0C00
0010
0010
0020
0040
0080
0300
0C00
F000
ENDCHAR
STARTCHAR U+30F4
ENCODING 12532
SWIDTH 1000 0
DWIDTH 16 0
BBX 13 15 2 -1
BITMAP
0010
0848
0828
0820
7F80
8040
8040
8040
8040
0080
0080
0100
0200
0400
1800
ENDCHAR
STARTCHAR U+30F5
ENCODING 12533
SWIDTH 1000 0
DWIDTH 16 0
BBX 9 10 3 -1
BITMAP
1000
1000
1000
FF00
1080
1080
2080
2080
4900
8600
ENDCHAR
STARTCHAR U+30F6
ENCODING 12534
SWIDTH 1000 0
DWIDTH 16 0
BBX 10 10 2 -1
BITMAP
1000
1000
1000
3FC0
2100
4100
8100
0200
0400
1800
ENDCHAR
STARTCHAR U+30F7
ENCODING 12535
SWIDTH 1000 0
DWIDTH 16 0
BBX 12 14 3 0
BITMAP
0020
0090
0050
7F40
8080
8080
8080
8080
0080
0100
0100
0200
0C00
7000
ENDCHAR
STARTCHAR U+30F8
ENCODING 12536
SWIDTH 1000 0
DWIDTH 16 0
BBX 13 15 2 -1
BITMAP
0010
0148
0128
0120
0100
7FE0
1100
1100
1100
1100
FFF0
0100
0100
0100
0100
ENDCHAR
STARTCHAR U+30F9
ENCODING 12537
SWIDTH 1000 0
DWIDTH 16 0
BBX 14 13 1 1
BITMAP
0008
0024
0014
0010
3FC0
0020
0220
0240
0280
0200
0200
0200
FFF8
ENDCHAR
STARTCHAR U+30FA
ENCODING 12538
SWIDTH 1000 0
DWIDTH 16 0
BBX 13 15 2 -1
BITMAP
0010
0048
0028
FFA0
0040
0040
0040
FFC0
0080
0080
0100
0100
0200
0400
1800
ENDCHAR
STARTCHAR U+30FB
ENCODING 12539
SWIDTH 1000 0
DWIDTH 16 0
BBX 3 3 6 5
BITMAP
40
E0
40
ENDCHAR
STARTCHAR U+30FC
ENCODING 12540
SWIDTH 1000 0
DWIDTH 16 0
BBX 13 1 1 6
BITMAP
FFF8
ENDCHAR
STARTCHAR U+30FD
ENCODING 12541
SWIDTH 1000 0
DWIDTH 16 0
BBX 7 9 4 1
BITMAP
80
40
20
10
08
04
04
02
02
ENDCHAR
STARTCHAR U+30FE
ENCODING 12542
SWIDTH 1000 0
DWIDTH 16 0
BBX 9 11 3 1
BITMAP
0100
0080
8480
4200
2200
1000
0800
0400
0400
0200
0200
ENDCHAR
STARTCHAR U+3105
ENCODING 12549
SWIDTH 1000 0
DWIDTH 16 0
BBX 11 14 2 -1
BITMAP
2000
2000
4000
4000
8000
7FC0
0020
0020
0020
0020
0020
0040
0440
0380
ENDCHAR
STARTCHAR U+3106
ENCODING 12550
SWIDTH 1000 0
DWIDTH 16 0
BBX 11 14 2 -1
BITMAP
2000
2000
4000
4000
3F80
0040
3040
0C80
0280
0100
0280
0440
1820
E000
ENDCHAR
STARTCHAR U+3107
ENCODING 12551
SWIDTH 1000 0
DWIDTH 16 0
BBX 10 13 3 -1
BITMAP
7F80
8040
8040
8040
8040
8040
8040
8040
8040
8040
8040
8040
8040
ENDCHAR
STARTCHAR U+3108
ENCODING 12552
SWIDTH 1000 0
DWIDTH 16 0
BBX 13 13 1 -1
BITMAP
FFF8
2000
2000
2000
2000
2000
2000
2000
2000
2000
2000
2000
1FF8
ENDCHAR
STARTCHAR U+3109
ENCODING 12553
SWIDTH 1000 0
DWIDTH 16 0
BBX 11 14 2 -1
BITMAP
2000
2000
4000
4000
8000
7FC0
0820
0820
1020
1020
2020
2040
4440
8380
ENDCHAR
STARTCHAR U+310A
ENCODING 12554
SWIDTH 1000 0
DWIDTH 16 0
BBX 13 14 1 -1
BITMAP
0400
0400
0400
0400
FFF8
0800
0800
1080
1040
2020
2010
41F0
3E08
0008
ENDCHAR
STARTCHAR U+310B
ENCODING 12555
SWIDTH 1000 0
DWIDTH 16 0
BBX 12 14 1 -1
BITMAP
FE00
0100
0200
0400
0800
07E0
0010
0010
0010
0010
0010
0020
0220
01C0
ENDCHAR
STARTCHAR U+310C
ENCODING 12556
SWIDTH 1000 0
DWIDTH 16 0
BBX 12 14 1 -1
BITMAP
1100
1100
2100
2100
4200
3FE0
0210
0410
0410
0810
1010
2020
4220
81C0
ENDCHAR
STARTCHAR U+310D
ENCODING 12557
SWIDTH 1000 0
DWIDTH 16 0
BBX 12 14 2 -1
BITMAP
0420
0420
0840
1080
2100
4200
8400
8400
4200
2100
1080
0840
0420
0210
ENDCHAR
STARTCHAR U+310E
ENCODING 12558
SWIDTH 1000 0
DWIDTH 16 0
BBX 13 13 1 -1
BITMAP
FFF8
0800
1000
1000
2000
1FE0
0010
0010
0010
0010
0020
0220
01C0
ENDCHAR
STARTCHAR U+310F
ENCODING 12559
SWIDTH 1000 0
DWIDTH 16 0
BBX 13 13 1 -1
BITMAP
1FF8
2000
2000
2000
2000
2000
2000
2000
2000
2000
4000
4000
8000
ENDCHAR
STARTCHAR U+3110
ENCODING 12560
SWIDTH 1000 0
DWIDTH 16 0
BBX 8 14 4 -1
BITMAP
01
81
81
81
81
81
81
81
83
8D
71
01
01
01
ENDCHAR
STARTCHAR U+3111
ENCODING 12561
SWIDTH 1000 0
DWIDTH 16 0
BBX 11 14 2 -1
BITMAP
0040
0080
0100
0600
1800
6000
8000
8000
6000
1800
0600
0180
0040
0020
ENDCHAR
STARTCHAR U+3112
ENCODING 12562
SWIDTH 1000 0
DWIDTH 16 0
BBX 13 13 1 -1
BITMAP
FFF8
0200
0200
0200
0200
0200
0200
0200
0200
0200
0200
0200
0200
ENDCHAR
STARTCHAR U+3113
ENCODING 12563
SWIDTH 1000 0
DWIDTH 16 0
BBX 13 14 1 -1
BITMAP
0200
0200
4210
4210
4210
4210
4210
4210
4210
3FE0
0200
0200
0200
FFF8
ENDCHAR
STARTCHAR U+3114
ENCODING 12564
SWIDTH 1000 0
DWIDTH 16 0
BBX 10 14 2 -1
BITMAP
0080
0100
0200
0440
1880
E300
0400
1C00
E400
0400
0400
0400
0400
0400
ENDCHAR
STARTCHAR U+3115
ENCODING 12565
SWIDTH 1000 0
DWIDTH 16 0
BBX 13 13 1 -1
BITMAP
3FF0
0008
0008
0008
1FF0
2000
2000
2000
2000
2000
4000
4000
8000
ENDCHAR
STARTCHAR U+3116
ENCODING 12566
SWIDTH 1000 0
DWIDTH 16 0
BBX 10 13 3 -1
BITMAP
7F80
8040
8040
8040
9040
8840
8440
8240
8240
8040
8040
8040
7F80
ENDCHAR
STARTCHAR U+3117
ENCODING 12567
SWIDTH 1000 0
DWIDTH 16 0
BBX 13 13 1 -1
BITMAP
FFF0
0408
0408
0408
0408
0408
0410
0510
04E0
0400
0400
0400
0400
ENDCHAR
STARTCHAR U+3118
ENCODING 12568
SWIDTH 1000 0
DWIDTH 16 0
BBX 13 14 1 -1
BITMAP
0800
0800
0800
FFF8
1000
1000
2000
1FE0
0010
0020
0020
0040
0080
0300
ENDCHAR
STARTCHAR U+3119
ENCODING 12569
SWIDTH 1000 0
DWIDTH 16 0
BBX 12 14 2 -1
BITMAP
0800
0800
0800
0800
1000
1000
1000
2100
2080
4040
4020
83E0
7C10
0010
ENDCHAR
STARTCHAR U+311A
ENCODING 12570
SWIDTH 1000 0
DWIDTH 16 0
BBX 11 14 2 -1
BITMAP
8020
4020
2040
1080
1100
0200
0400
0400
0400
0400
0400
0400
0400
0400
ENDCHAR
STARTCHAR U+311B
ENCODING 12571
SWIDTH 1000 0
DWIDTH 16 0
BBX 13 13 1 -1
BITMAP
FFF8
0200
0200
0200
0200
0C00
1000
2000
2000
2000
2020
1040
0F80
ENDCHAR
STARTCHAR U+311C
ENCODING 12572
SWIDTH 1000 0
DWIDTH 16 0
BBX 13 14 1 -1
BITMAP
0200
0200
0200
FFF8
0200
0200
0C00
1000
2000
2000
2000
2020
1040
0F80
ENDCHAR
STARTCHAR U+311D
ENCODING 12573
SWIDTH 1000 0
DWIDTH 16 0
BBX 13 14 1 -1
BITMAP
1040
1040
1040
1040
FFF8
1040
1040
1040
1040
1040
1000
1000
0800
07F0
ENDCHAR
STARTCHAR U+311E
ENCODING 12574
SWIDTH 1000 0
DWIDTH 16 0
BBX 14 13 1 -1
BITMAP
FFFC
0100
1100
1100
2100
4200
3FE0
0210
0410
0820
1020
2040
C180
ENDCHAR
STARTCHAR U+311F
ENCODING 12575
SWIDTH 1000 0
DWIDTH 16 0
BBX 13 14 1 -1
BITMAP
1800
2400
C400
0400
0400
0200
0200
0100
0100
0080
0040
0020
0010
0008
ENDCHAR
STARTCHAR U+3120
ENCODING 12576
SWIDTH 1000 0
DWIDTH 16 0
BBX 12 14 2 -1
BITMAP
0800
0800
1080
2080
4100
8200
7C00
0900
1080
2040
4020
83E0
7C10
0010
ENDCHAR
STARTCHAR U+3121
ENCODING 12577
SWIDTH 1000 0
DWIDTH 16 0
BBX 12 12 2 0
BITMAP
7FC0
0020
0020
3040
0C40
0280
0100
0280
0440
0820
3010
C000
ENDCHAR
STARTCHAR U+3122
ENCODING 12578
SWIDTH 1000 0
DWIDTH 16 0
BBX 13 13 1 -1
BITMAP
FF80
0040
1040
2080
2080
4100
3FF0
0008
0008
0010
0010
0020
0040
ENDCHAR
STARTCHAR U+3123
ENCODING 12579
SWIDTH 1000 0
DWIDTH 16 0
BBX 12 14 2 -1
BITMAP
1000
1000
2000
2000
4000
8000
7FE0
0010
0010
0020
0020
0040
0080
0100
ENDCHAR
STARTCHAR U+3124
ENCODING 12580
SWIDTH 1000 0
DWIDTH 16 0
BBX 13 14 1 -1
BITMAP
0400
0400
0400
0400
FFF8
0400
0500
0900
0900
1100
1100
2100
4100
80F8
ENDCHAR
STARTCHAR U+3125
ENCODING 12581
SWIDTH 1000 0
DWIDTH 16 0
BBX 13 13 1 0
BITMAP
0200
0200
0200
0400
0400
0800
0800
1000
1000
2000
4000
81F8
7E00
ENDCHAR
STARTCHAR U+3126
ENCODING 12582
SWIDTH 1000 0
DWIDTH 16 0
BBX 13 14 1 -1
BITMAP
1080
1080
1080
1080
1080
1080
1080
1080
1080
1080
2080
2080
4080
8078
ENDCHAR
STARTCHAR U+3127
ENCODING 12583
SWIDTH 1000 0
DWIDTH 16 0
BBX 13 1 1 6
BITMAP
FFF8
ENDCHAR
STARTCHAR U+3128
ENCODING 12584
SWIDTH 1000 0
DWIDTH 16 0
BBX 13 14 1 -1
BITMAP
0010
0010
6010
1820
0420
0240
0140
0080
0140
0220
0410
0808
3008
C000
ENDCHAR
STARTCHAR U+3129
ENCODING 12585
SWIDTH 1000 0
DWIDTH 16 0
BBX 10 13 3 -1
BITMAP
8040
8040
8040
8040
8040
8040
8040
8040
8040
8040
8040
8040
7F80
ENDCHAR
STARTCHAR U+312A
ENCODING 12586
SWIDTH 1000 0
DWIDTH 16 0
BBX 13 13 1 -1
BITMAP
FFF8
0200
0200
0200
0400
07E0
0810
0810
1010
1010
2020
4220
81C0
ENDCHAR
STARTCHAR U+312B
ENCODING 12587
SWIDTH 1000 0
DWIDTH 16 0
BBX 13 13 1 -1
BITMAP
FFF8
1080
1080
1080
1080
1080
1080
1080
1080
2080
2080
4080
8078
ENDCHAR
STARTCHAR U+312C
ENCODING 12588
SWIDTH 1000 0
DWIDTH 16 0
BBX 13 14 1 -1
BITMAP
0100
0100
0100
1FF8
2000
2000
2000
2000
2000
2000
2000
4000
4000
8000
ENDCHAR
STARTCHAR U+312D
ENCODING 12589
SWIDTH 1000 0
DWIDTH 16 0
BBX 13 13 1 -1
BITMAP
FFF8
0200
0200
0200
3FE0
4210
4210
4210
4210
4210
4210
0200
0200
ENDCHAR
STARTCHAR U+312E
ENCODING 12590
SWIDTH 1000 0
DWIDTH 16 0
BBX 13 14 1 -1
BITMAP
0300
0300
0000
FFF8
0200
0200
0C00
1000
2000
2000
2000
2020
1040
0F80
ENDCHAR
STARTCHAR U+312F
ENCODING 12591
SWIDTH 1000 0
DWIDTH 16 0
BBX 13 14 1 -1
BITMAP
FE00
0100
0200
0400
0800
07F0
0408
0408
0408
0408
0410
0510
04E0
0400
ENDCHAR
STARTCHAR U+3231
ENCODING 12849
SWIDTH 1000 0
DWIDTH 16 0
BBX 15 15 0 -1
BITMAP
1010
2948
4944
49F4
BE42
8842
9FFA
9A42
AAE2
C8D2
894A
4A44
4844
2848
1010
ENDCHAR
STARTCHAR U+3232
ENCODING 12850
SWIDTH 1000 0
DWIDTH 16 0
BBX 15 15 0 -1
BITMAP
1010
2208
4204
7FF4
8402
8782
8C42
97C2
A442
C442
87C2
4444
4444
2588
1010
ENDCHAR
STARTCHAR U+3239
ENCODING 12857
SWIDTH 1000 0
DWIDTH 16 0
BBX 15 15 0 -1
BITMAP
1010
2488
44A4
4494
8882
8FFA
9882
A882
C882
8842
8842
4844
4824
2838
1010
ENDCHAR
STARTCHAR U+32A4
ENCODING 12964
SWIDTH 1000 0
DWIDTH 16 0
BBX 15 16 0 -2
BITMAP
07C0
1830
2108
4104
4104
8102
81E2
8102
8102
8102
8102
5FF4
4004
2008
1830
07C0
ENDCHAR
STARTCHAR U+32A5
ENCODING 12965
SWIDTH 1000 0
DWIDTH 16 0
BBX 15 16 0 -2
BITMAP
07C0
1830
2108
4104
4104
8FE2
9112
9112
9112
8FE2
8102
4104
4104
2108
1830
07C0
ENDCHAR
STARTCHAR U+32A6
ENCODING 12966
SWIDTH 1000 0
DWIDTH 16 0
BBX 15 16 0 -2
BITMAP
07C0
1830
2008
4004
5FF4
8102
8102
81C2
8122
8102
8102
4104
4104
2108
1830
07C0
ENDCHAR
STARTCHAR U+32A7
ENCODING 12967
SWIDTH 1000 0
DWIDTH 16 0
BBX 15 16 0 -2
BITMAP
07C0
1830
2208
4204
4204
BFF2
8402
8402
8FE2
8882
9082
6084
4FF4
2008
1830
07C0
ENDCHAR
STARTCHAR U+32A8
ENCODING 12968
SWIDTH 1000 0
DWIDTH 16 0
BBX 15 16 0 -2
BITMAP
07C0
1830
2208
4204
4204
BFF2
8402
8402
8BC2
9422
A422
4424
43C4
2008
1830
07C0
ENDCHAR
STARTCHAR U+32FF
ENCODING 13055
SWIDTH 1000 0
DWIDTH 16 0
BBX 15 12 0 0
BITMAP
1010
2860
45C0
B244
09FA
004A
FCEA
02DA
054A
6844
1040
0840
ENDCHAR
STARTCHAR U+3303
ENCODING 13059
SWIDTH 1000 0
DWIDTH 16 0
BBX 15 15 0 -2
BITMAP
1F00
E200
1400
1900
10FE
1000
2000
2100
4500
0500
0510
0520
0940
0980
1100
ENDCHAR
STARTCHAR U+330D
ENCODING 13069
SWIDTH 1000 0
DWIDTH 16 0
BBX 15 16 0 -2
BITMAP
1000
1046
1E7A
F242
1242
2244
2244
447C
8844
0400
4400
44FE
4400
4400
0800
3000
ENDCHAR
STARTCHAR U+3314
ENCODING 13076
SWIDTH 1000 0
DWIDTH 16 0
BBX 15 15 0 -1
BITMAP
1000
1000
1000
1C00
F000
1000
1000
1E4E
E872
0842
0842
0844
0844
007C
0044
ENDCHAR
STARTCHAR U+3318
ENCODING 13080
SWIDTH 1000 0
DWIDTH 16 0
BBX 14 16 0 -2
BITMAP
2100
24B8
3AC0
451C
45E4
8808
0808
1010
2160
C100
0100
0200
0240
05E0
1E10
0010
ENDCHAR
STARTCHAR U+3322
ENCODING 13090
SWIDTH 1000 0
DWIDTH 16 0
BBX 15 16 0 -2
BITMAP
2080
2060
3F00
E202
2404
2098
2060
1F00
00C0
0F00
0100
03F8
3D00
0100
0200
0C00
ENDCHAR
STARTCHAR U+3323
ENCODING 13091
SWIDTH 1000 0
DWIDTH 16 0
BBX 15 16 0 -2
BITMAP
2080
2040
3F20
E202
2404
2098
2060
1F00
0200
0200
0200
0380
0240
0220
0200
0200
ENDCHAR
STARTCHAR U+3326
ENCODING 13094
SWIDTH 1000 0
DWIDTH 16 0
BBX 13 16 2 -2
BITMAP
8400
9200
8A00
8800
E000
9000
8800
8080
8280
8280
8280
0288
0490
04A0
08C0
1080
ENDCHAR
STARTCHAR U+3327
ENCODING 13095
SWIDTH 1000 0
DWIDTH 16 0
BBX 12 14 3 0
BITMAP
8000
8000
8000
8000
E000
9000
8000
8400
8300
8010
8020
0040
0480
0700
ENDCHAR
STARTCHAR U+332B
ENCODING 13099
SWIDTH 1000 0
DWIDTH 16 0
BBX 15 15 0 -1
BITMAP
1380
0A80
2780
2400
227E
4200
8200
0000
4010
4210
5990
E83C
5052
4090
3B10
ENDCHAR
STARTCHAR U+3336
ENCODING 13110
SWIDTH 1000 0
DWIDTH 16 0
BBX 15 16 0 -2
BITMAP
0040
1040
1878
2448
2288
4110
0120
0040
4080
4008
7828
4828
ABAA
102A
204C
4088
ENDCHAR
STARTCHAR U+333B
ENCODING 13115
SWIDTH 1000 0
DWIDTH 16 0
BBX 14 15 1 -1
BITMAP
0700
0500
3700
2800
44FC
4400
8200
0200
0820
0650
1020
0C00
0040
1180
0E00
ENDCHAR
STARTCHAR U+3349
ENCODING 13129
SWIDTH 1000 0
DWIDTH 16 0
BBX 14 15 0 -2
BITMAP
6000
1800
0400
0000
6004
1044
0844
0044
C044
3044
0804
0404
0008
0008
0030
ENDCHAR
STARTCHAR U+334A
ENCODING 13130
SWIDTH 1000 0
DWIDTH 16 0
BBX 15 16 0 -2
BITMAP
3808
0448
0048
3848
0448
0008
7010
0810
0460
0008
2A28
5528
502A
4BAA
484C
8888
ENDCHAR
STARTCHAR U+334D
ENCODING 13133
SWIDTH 1000 0
DWIDTH 16 0
BBX 15 16 0 -2
BITMAP
0400
0400
4800
3100
10FE
2800
4400
8010
2050
2050
2050
3852
2694
2098
2110
2200
ENDCHAR
STARTCHAR U+3351
ENCODING 13137
SWIDTH 1000 0
DWIDTH 16 0
BBX 14 16 1 -2
BITMAP
0800
8800
8800
8888
8A48
8950
1110
1020
60C0
2000
2020
38A0
24A4
20A8
20B0
2120
ENDCHAR
STARTCHAR U+3357
ENCODING 13143
SWIDTH 1000 0
DWIDTH 16 0
BBX 13 15 1 -2
BITMAP
9E00
E200
8248
8528
04A8
0890
1020
2440
0480
0400
0700
0480
0440
0400
0400
ENDCHAR
STARTCHAR U+337B
ENCODING 13179
SWIDTH 1000 0
DWIDTH 16 0
BBX 15 12 0 0
BITMAP
000C
7E0A
107E
5488
54CA
10AA
FFAC
10A8
10C8
1094
1166
1002
ENDCHAR
STARTCHAR U+337C
ENCODING 13180
SWIDTH 1000 0
DWIDTH 16 0
BBX 15 12 0 0
BITMAP
3C10
0A60
4BC0
AA44
B3FA
EC4A
A4EA
AADA
AB4A
4A44
0440
0040
ENDCHAR
STARTCHAR U+337D
ENCODING 13181
SWIDTH 1000 0
DWIDTH 16 0
BBX 15 13 0 0
BITMAP
1000
11FC
1020
FE20
10A0
10A0
10BC
28A0
28A0
28A0
44A0
45FE
8200
ENDCHAR
STARTCHAR U+337E
ENCODING 13182
SWIDTH 1000 0
DWIDTH 16 0
BBX 15 14 0 -1
BITMAP
0088
0448
4A48
AA94
AE52
EA5E
AA02
AE40
AA4C
4A52
0A92
1292
128C
2C00
ENDCHAR
STARTCHAR U+338E
ENCODING 13198
SWIDTH 1000 0
DWIDTH 16 0
BBX 12 10 2 -1
BITMAP
F0D0
A930
A910
A910
A910
A930
A8D0
A810
0110
00E0
ENDCHAR
STARTCHAR U+338F
ENCODING 13199
SWIDTH 1000 0
DWIDTH 16 0
BBX 12 14 2 -1
BITMAP
8000
8000
8000
8000
88D0
9130
A110
C110
A110
9130
88D0
8810
0110
00E0
ENDCHAR
STARTCHAR U+339C
ENCODING 13212
SWIDTH 1000 0
DWIDTH 16 0
BBX 12 8 2 1
BITMAP
F1E0
A950
A950
A950
A950
A950
A950
A950
ENDCHAR
STARTCHAR U+339D
ENCODING 13213
SWIDTH 1000 0
DWIDTH 16 0
BBX 12 8 2 1
BITMAP
71E0
8950
8950
8150
8150
8950
8950
7150
ENDCHAR
STARTCHAR U+339E
ENCODING 13214
SWIDTH 1000 0
DWIDTH 16 0
BBX 12 12 2 1
BITMAP
8000
8000
8000
8000
89E0
9150
A150
C150
A150
9150
8950
8950
ENDCHAR
STARTCHAR U+33A1
ENCODING 13217
SWIDTH 1000 0
DWIDTH 16 0
BBX 11 12 3 1
BITMAP
00C0
0120
0020
00C0
ED00
93E0
9200
9200
9200
9200
9200
9200
ENDCHAR
STARTCHAR U+33C4
ENCODING 13252
SWIDTH 1000 0
DWIDTH 16 0
BBX 12 8 2 1
BITMAP
70E0
8910
8910
8100
8100
8910
8910
70E0
ENDCHAR
STARTCHAR U+33CD
ENCODING 13261
SWIDTH 1000 0
DWIDTH 16 0
BBX 14 13 1 -1
BITMAP
8910
8910
9120
9120
A140
C180
A140
9120
9120
8910
8910
8D14
0404
ENDCHAR
STARTCHAR U+3427
ENCODING 13351
SWIDTH 1000 0
DWIDTH 16 0
BBX 15 16 0 -2
BITMAP
0080
3080
0880
0480
0280
0080
FFFC
0182
0282
048C
08B0
3080
C080
0080
0880
0700
ENDCHAR
STARTCHAR U+342E
ENCODING 13358
SWIDTH 1000 0
DWIDTH 16 0
BBX 15 16 0 -2
BITMAP
0100
0100
FFFE
0820
F45E
0440
7FFC
0440
3FF8
0440
FFFE
0284
0C58
F0A0
1318
0C06
ENDCHAR
STARTCHAR U+34C1
ENCODING 13505
SWIDTH 1000 0
DWIDTH 16 0
BBX 15 5 0 8
BITMAP
7FFC
8002
8462
1818
6004
ENDCHAR
STARTCHAR U+353E
ENCODING 13630
SWIDTH 1000 0
DWIDTH 16 0
BBX 14 15 1 -2
BITMAP
7FC0
8020
8020
8020
8020
8020
8020
8020
81C0
8000
8000
8004
8004
8004
7FF8
ENDCHAR
STARTCHAR U+38FA
ENCODING 14586
SWIDTH 1000 0
DWIDTH 16 0
BBX 10 16 3 -2
BITMAP
1000
1000
1000
5900
5480
5240
5240
9000
1000
1000
1000
1000
1000
1000
1000
1000
ENDCHAR
STARTCHAR U+3C16
ENCODING 15382
SWIDTH 1000 0
DWIDTH 16 0
BBX 15 16 0 -2
BITMAP
2010
23D0
251E
FFA0
2440
27BE
7500
6BF0
AA08
A3F8
2208
23F8
220A
21F2
2122
2E1C
ENDCHAR
STARTCHAR U+3FB1
ENCODING 16305
SWIDTH 1000 0
DWIDTH 16 0
BBX 15 16 0 -2
BITMAP
0080
0080
1FFE
2010
A7D4
6924
2A18
27F0
692E
B120
2FFE
2120
4122
4222
8422
181C
ENDCHAR
STARTCHAR U+40EF
ENCODING 16623
SWIDTH 1000 0
DWIDTH 16 0
BBX 15 16 0 -2
BITMAP
0040
0040
F8E2
2514
2318
21F0
7318
4D14
C8E2
4840
4FFE
48E0
4950
3148
0244
0C42
ENDCHAR
STARTCHAR U+4264
ENCODING 16996
SWIDTH 1000 0
DWIDTH 16 0
BBX 15 16 0 -2
BITMAP
2080
2080
7DFE
5120
AA50
2A40
FF7E
1CC8
2A48
C928
1028
FF90
1210
3428
0E44
F182
ENDCHAR
STARTCHAR U+432B
ENCODING 17195
SWIDTH 1000 0
DWIDTH 16 0
BBX 15 16 0 -2
BITMAP
2010
21D0
4ABE
8BE0
5220
2BDC
4680
FDF0
1108
59F8
5508
55F8
550A
90F2
1092
170C
ENDCHAR
STARTCHAR U+4525
ENCODING 17701
SWIDTH 1000 0
DWIDTH 16 0
BBX 15 16 0 -2
BITMAP
0820
FFFE
0920
3FF0
0108
FFFE
0108
3FF0
2928
2548
2308
3FF8
2188
2548
5928
8108
ENDCHAR
STARTCHAR U+4E00
ENCODING 19968
SWIDTH 1000 0
DWIDTH 16 0
BBX 15 1 0 6
BITMAP
FFFE
ENDCHAR
STARTCHAR U+4E01
ENCODING 19969
SWIDTH 1000 0
DWIDTH 16 0
BBX 15 15 0 -2
BITMAP
FFFE
0080
0080
0080
0080
0080
0080
0080
0080
0080
0080
0080
0080
0880
0700
ENDCHAR
STARTCHAR U+4E02
ENCODING 19970
SWIDTH 1000 0
DWIDTH 16 0
BBX 15 15 0 -2
BITMAP
FFFE
0800
1000
1000
2000
2000
1FF8
0004
0004
0004
0004
0008
0008
0030
01C0
ENDCHAR
STARTCHAR U+4E03
ENCODING 19971
SWIDTH 1000 0
DWIDTH 16 0
BBX 15 16 0 -2
BITMAP
1000
1000
1000
1000
1000
101E
13E0
FC00
1000
1000
1000
1000
1004
1004
1004
0FF8
ENDCHAR
STARTCHAR U+4E04
ENCODING 19972
SWIDTH 1000 0
DWIDTH 16 0
BBX 15 16 0 -2
BITMAP
0100
0100
0100
0100
0100
0100
0100
0100
0100
0100
0100
0100
0100
0100
0100
FFFE
ENDCHAR
STARTCHAR U+4E05
ENCODING 19973
SWIDTH 1000 0
DWIDTH 16 0
BBX 15 15 0 -2
BITMAP
FFFE
0100
0100
0100
0100
0100
0100
0100
0100
0100
0100
0100
0100
0100
0100
ENDCHAR
STARTCHAR U+4E06
ENCODING 19974
SWIDTH 1000 0
DWIDTH 16 0
BBX 15 11 0 2
BITMAP
FFFE
0040
0040
0080
0080
0100
0100
0200
0400
1800
E000
ENDCHAR
STARTCHAR U+4E07
ENCODING 19975
SWIDTH 1000 0
DWIDTH 16 0
BBX 15 15 0 -2
BITMAP
FFFE
0400
0400
0400
07F0
0408
0408
0408
0808
0808
0808
1010
1010
2220
C1C0
ENDCHAR
STARTCHAR U+4E08
ENCODING 19976
SWIDTH 1000 0
DWIDTH 16 0
BBX 15 16 0 -2
BITMAP
0100
0100
0100
FFFE
0100
0900
0900
0900
0900
0500
0500
0200
0300
0480
1860
E01E
ENDCHAR
STARTCHAR U+4E09
ENCODING 19977
SWIDTH 1000 0
DWIDTH 16 0
BBX 15 14 0 -1
BITMAP
7FFC
0000
0000
0000
0000
0000
3FF8
0000
0000
0000
0000
0000
0000
FFFE
ENDCHAR
STARTCHAR U+4E0A
ENCODING 19978
SWIDTH 1000 0
DWIDTH 16 0
BBX 15 16 0 -2
BITMAP
0200
0200
0200
0200
0200
03FC
0200
0200
0200
0200
0200
0200
0200
0200
0200
FFFE
ENDCHAR
STARTCHAR U+4E0B
ENCODING 19979
SWIDTH 1000 0
DWIDTH 16 0
BBX 15 15 0 -2
BITMAP
FFFE
0200
0200
0200
0380
0260
0218
0204
0200
0200
0200
0200
0200
0200
0200
ENDCHAR
STARTCHAR U+4E0C
ENCODING 19980
SWIDTH 1000 0
DWIDTH 16 0
BBX 15 15 0 -2
BITMAP
FFFE
0420
0420
0420
0420
0420
0420
0420
0420
0420
0820
0820
1020
2020
C020
ENDCHAR
STARTCHAR U+4E0D
ENCODING 19981
SWIDTH 1000 0
DWIDTH 16 0
BBX 15 15 0 -2
BITMAP
FFFE
0020
0040
0080
0100
0360
0D18
3104
C102
0100
0100
0100
0100
0100
0100
ENDCHAR
STARTCHAR U+4E0E
ENCODING 19982
SWIDTH 1000 0
DWIDTH 16 0
BBX 15 16 0 -2
BITMAP
1000
1000
1FFE
1000
1000
1000
0FF0
0008
0008
0008
FFC8
0008
0010
0010
0020
03C0
ENDCHAR
STARTCHAR U+4E0F
ENCODING 19983
SWIDTH 1000 0
DWIDTH 16 0
BBX 15 15 0 -2
BITMAP
FFFE
0100
0100
21F8
2104
2104
2104
1FFC
0004
0004
0004
0008
0008
0030
01C0
ENDCHAR
STARTCHAR U+4E10
ENCODING 19984
SWIDTH 1000 0
DWIDTH 16 0
BBX 15 15 0 -2
BITMAP
FFFE
0100
0100
21FC
2100
2100
2100
1FF8
0004
0004
0004
0008
0008
0030
01C0
ENDCHAR
STARTCHAR U+4E11
ENCODING 19985
SWIDTH 1000 0
DWIDTH 16 0
BBX 15 15 0 -2
BITMAP
7FE0
0410
0410
0410
0410
0410
0410
7FF0
0810
0810
0810
0810
0810
0810
FFFE
ENDCHAR
STARTCHAR U+4E12
ENCODING 19986
SWIDTH 1000 0
DWIDTH 16 0
BBX 15 15 0 -2
BITMAP
FFF8
0204
0204
1A04
0604
0304
0484
0484
0444
0848
1008
2110
C0E0
0000
FFFE
ENDCHAR
STARTCHAR U+4E13
ENCODING 19987
SWIDTH 1000 0
DWIDTH 16 0
BBX 15 16 0 -2
BITMAP
0200
0200
0200
7FFC
0400
0400
FFFE
0800
0800
07E0
0010
0010
0C20
0340
00C0
0020
ENDCHAR
STARTCHAR U+4E14
ENCODING 19988
SWIDTH 1000 0
DWIDTH 16 0
BBX 15 15 0 -2
BITMAP
0FE0
1010
1010
1010
1FF0
1010
1010
1010
1FF0
1010
1010
1010
1010
1010
FFFE
ENDCHAR
STARTCHAR U+4E15
ENCODING 19989
SWIDTH 1000 0
DWIDTH 16 0
BBX 15 15 0 -2
BITMAP
FFFE
0080
0100
0100
0360
0510
0908
3104
C102
0102
0100
0100
0100
0000
FFFE
ENDCHAR
STARTCHAR U+4E16
ENCODING 19990
SWIDTH 1000 0
DWIDTH 16 0
BBX 15 16 0 -2
BITMAP
2210
2210
2210
2210
2210
FFFE
2210
2210
2210
2210
2210
21E0
2000
2000
2000
1FFE
ENDCHAR
STARTCHAR U+4E17
ENCODING 19991
SWIDTH 1000 0
DWIDTH 16 0
BBX 15 16 0 -2
BITMAP
2108
2108
2108
2108
2108
2108
FFFE
2108
2108
2108
2108
2108
2108
2108
2108
1FF0
ENDCHAR
STARTCHAR U+4E18
ENCODING 19992
SWIDTH 1000 0
DWIDTH 16 0
BBX 15 16 0 -2
BITMAP
0008
0070
0F80
1000
1000
1000
1FFC
1020
1020
1020
1020
1020
1020
1020
1020
FFFE
ENDCHAR
STARTCHAR U+4E19
ENCODING 19993
SWIDTH 1000 0
DWIDTH 16 0
BBX 15 15 0 -2
BITMAP
FFFE
0100
0100
3FF8
4104
4104
4284
4244
4424
4814
7014
4004
4004
4004
4038
ENDCHAR
STARTCHAR U+4E1A
ENCODING 19994
SWIDTH 1000 0
DWIDTH 16 0
BBX 15 16 0 -2
BITMAP
0440
0440
0440
0440
4444
4444
2444
2444
2448
2448
0440
0440
0440
0440
0440
FFFE
ENDCHAR
STARTCHAR U+4E1B
ENCODING 19995
SWIDTH 1000 0
DWIDTH 16 0
BBX 15 16 0 -2
BITMAP
0820
0820
0820
0820
0820
0820
0820
0820
1450
1250
1148
2088
4104
8602
0000
FFFE
ENDCHAR
STARTCHAR U+4E1C
ENCODING 19996
SWIDTH 1000 0
DWIDTH 16 0
BBX 15 16 0 -2
BITMAP
0400
0400
0400
FFFE
0800
1100
1100
2100
1FF8
0100
0960
0910
1108
2104
C104
0E00
ENDCHAR
STARTCHAR U+4E1D
ENCODING 19997
SWIDTH 1000 0
DWIDTH 16 0
BBX 15 16 0 -2
BITMAP
0810
0810
1020
1224
2244
4488
4488
3870
1020
2040
4080
468C
3870
0000
0000
FFFE
ENDCHAR
STARTCHAR U+4E1E
ENCODING 19998
SWIDTH 1000 0
DWIDTH 16 0
BBX 15 15 0 -2
BITMAP
3FE0
0010
0210
0160
F984
0548
0550
0920
1110
2108
C104
0102
0E00
0000
FFFE
ENDCHAR
STARTCHAR U+4E1F
ENCODING 19999
SWIDTH 1000 0
DWIDTH 16 0
BBX 15 15 0 -2
BITMAP
FFFE
0100
0100
0100
7FFC
0100
0100
0100
FFFE
0400
0820
1010
2008
40F4
3F04
ENDCHAR
STARTCHAR U+4E20
ENCODING 20000
SWIDTH 1000 0
DWIDTH 16 0
BBX 15 16 0 -2
BITMAP
0480
0480
0480
0484
FC84
0498
04E0
0480
0C80
3482
C482
0482
047C
0400
0000
FFFE
ENDCHAR
STARTCHAR U+4E21
ENCODING 20001
SWIDTH 1000 0
DWIDTH 16 0
BBX 15 15 0 -2
BITMAP
FFFE
0100
0100
3FF8
4104
4104
4924
4924
4924
4924
4924
47C4
4004
4004
4038
ENDCHAR
STARTCHAR U+4E22
ENCODING 20002
SWIDTH 1000 0
DWIDTH 16 0
BBX 15 16 0 -2
BITMAP
0008
0070
3F80
0100
0100
7FFC
0100
0100
0100
FFFE
0400
0820
1010
2008
40F4
3F04
ENDCHAR
STARTCHAR U+4E23
ENCODING 20003
SWIDTH 1000 0
DWIDTH 16 0
BBX 15 15 0 -2
BITMAP
FFFE
0440
0440
0440
3C78
4444
4444
4444
4444
3C78
0440
0840
0840
3040
C040
ENDCHAR
STARTCHAR U+4E24
ENCODING 20004
SWIDTH 1000 0
DWIDTH 16 0
BBX 15 15 0 -2
BITMAP
FFFE
0440
0440
3FF8
4444
4444
4444
4AA4
4AA4
5114
5114
6204
4004
4004
4038
ENDCHAR
STARTCHAR U+4E25
ENCODING 20005
SWIDTH 1000 0
DWIDTH 16 0
BBX 15 15 0 -2
BITMAP
7FFE
0240
2244
1244
1248
0240
1FFE
2000
2000
2000
2000
2000
4000
4000
8000
ENDCHAR
STARTCHAR U+4E26
ENCODING 20006
SWIDTH 1000 0
DWIDTH 16 0
BBX 15 16 0 -2
BITMAP
0820
0420
0440
0080
7FFC
0440
4444
4444
2444
2444
2448
2448
2448
0440
0440
FFFE
ENDCHAR
STARTCHAR U+4E27
ENCODING 20007
SWIDTH 1000 0
DWIDTH 16 0
BBX 15 16 0 -2
BITMAP
0100
0100
FFFE
0100
2108
1110
0920
0100
FFFE
1100
1084
1088
1050
10A0
1318
0C06
ENDCHAR
STARTCHAR U+4E28
ENCODING 20008
SWIDTH 1000 0
DWIDTH 16 0
BBX 1 16 7 -2
BITMAP
80
80
80
80
80
80
80
80
80
80
80
80
80
80
80
80
ENDCHAR
STARTCHAR U+4E2A
ENCODING 20010
SWIDTH 1000 0
DWIDTH 16 0
BBX 15 16 0 -2
BITMAP
0100
0100
0280
0440
0820
1110
2108
C106
0100
0100
0100
0100
0100
0100
0100
0100
ENDCHAR
STARTCHAR U+4E2B
ENCODING 20011
SWIDTH 1000 0
DWIDTH 16 0
BBX 12 16 1 -2
BITMAP
C010
2010
1020
0840
0880
0200
0200
0200
0200
0200
0200
0200
0200
0200
0200
0200
ENDCHAR
STARTCHAR U+4E2C
ENCODING 20012
SWIDTH 1000 0
DWIDTH 16 0
BBX 4 16 5 -2
BITMAP
10
10
10
90
50
50
50
10
10
30
50
90
10
10
10
10
ENDCHAR
STARTCHAR U+4E2D
ENCODING 20013
SWIDTH 1000 0
DWIDTH 16 0
BBX 15 16 0 -2
BITMAP
0100
0100
0100
0100
7FFC
8102
8102
8102
8102
8102
7FFC
0100
0100
0100
0100
0100
ENDCHAR
STARTCHAR U+4E30
ENCODING 20016
SWIDTH 1000 0
DWIDTH 16 0
BBX 15 16 0 -2
BITMAP
0100
0100
0100
FFFE
0100
0100
0100
7FFC
0100
0100
0100
FFFE
0100
0100
0100
0100
ENDCHAR
STARTCHAR U+4E31
ENCODING 20017
SWIDTH 1000 0
DWIDTH 16 0
BBX 15 16 0 -2
BITMAP
0440
0440
4442
4442
4442
4442
4442
4442
4442
4442
3C7C
0440
0840
0840
3040
C040
ENDCHAR
STARTCHAR U+4E32
ENCODING 20018
SWIDTH 1000 0
DWIDTH 16 0
BBX 15 16 0 -2
BITMAP
0100
0100
3FF8
4104
4104
4104
3FF8
0100
7FFC
8102
8102
8102
7FFC
0100
0100
0100
ENDCHAR
STARTCHAR U+4E33
ENCODING 20019
SWIDTH 1000 0
DWIDTH 16 0
BBX 15 16 0 -2
BITMAP
0440
0440
3FF8
4444
4444
4444
3FF8
0440
7FFC
8442
8442
8442
7FFC
0840
1040
E040
ENDCHAR
STARTCHAR U+4E34
ENCODING 20020
SWIDTH 1000 0
DWIDTH 16 0
BBX 15 16 0 -2
BITMAP
1080
1080
90FE
9100
9160
9210
9408
9008
9000
91FC
9222
9222
9222
9222
1222
11FC
ENDCHAR
STARTCHAR U+4E36
ENCODING 20022
SWIDTH 1000 0
DWIDTH 16 0
BBX 8 11 3 1
BITMAP
80
40
20
10
08
08
04
02
02
01
01
ENDCHAR
STARTCHAR U+4E38
ENCODING 20024
SWIDTH 1000 0
DWIDTH 16 0
BBX 15 16 0 -2
BITMAP
0400
0400
0400
0400
FFC0
0420
0420
6420
1820
0C20
0A20
0A22
1122
1122
2022
C01C
ENDCHAR
STARTCHAR U+4E39
ENCODING 20025
SWIDTH 1000 0
DWIDTH 16 0
BBX 15 15 0 -2
BITMAP
0FE0
1010
1210
1110
1090
1090
1010
FFFE
1010
1010
1010
1010
2010
2110
C0E0
ENDCHAR
STARTCHAR U+4E3A
ENCODING 20026
SWIDTH 1000 0
DWIDTH 16 0
BBX 14 16 0 -2
BITMAP
0200
3200
0A00
0A00
0200
FFF8
0204
0204
0284
0444
0424
0424
0808
1008
2110
C0E0
ENDCHAR
STARTCHAR U+4E3B
ENCODING 20027
SWIDTH 1000 0
DWIDTH 16 0
BBX 15 16 0 -2
BITMAP
0600
0180
0040
0000
FFFE
0100
0100
0100
0100
7FFC
0100
0100
0100
0100
0100
FFFE
ENDCHAR
STARTCHAR U+4E3C
ENCODING 20028
SWIDTH 1000 0
DWIDTH 16 0
BBX 15 16 0 -2
BITMAP
0820
0820
0820
0820
FFFE
0820
0B20
08A0
08A0
0820
FFFE
0820
1020
1020
2020
C020
ENDCHAR
STARTCHAR U+4E3D
ENCODING 20029
SWIDTH 1000 0
DWIDTH 16 0
BBX 15 15 0 -2
BITMAP
FFFE
0000
0000
3C78
4284
4284
62C4
52A4
4A94
4A94
4284
4284
4284
4284
5CB8
ENDCHAR
STARTCHAR U+4E3E
ENCODING 20030
SWIDTH 1000 0
DWIDTH 16 0
BBX 15 16 0 -2
BITMAP
2208
1108
0910
FFFE
0820
0920
1110
2108
5FF4
8102
0100
7FFC
0100
0100
0100
0100
ENDCHAR
STARTCHAR U+4E3F
ENCODING 20031
SWIDTH 1000 0
DWIDTH 16 0
BBX 8 16 2 -2
BITMAP
01
01
01
01
01
01
01
01
01
01
01
02
02
04
18
E0
ENDCHAR
STARTCHAR U+4E41
ENCODING 20033
SWIDTH 1000 0
DWIDTH 16 0
BBX 15 15 0 -2
BITMAP
FF80
0040
0040
0040
0040
0040
0040
0040
0020
0020
0020
0010
0010
0008
0006
ENDCHAR
STARTCHAR U+4E42
ENCODING 20034
SWIDTH 1000 0
DWIDTH 16 0
BBX 15 16 0 -2
BITMAP
2008
2008
2008
2008
1010
1010
0820
0820
0440
0280
0100
0280
0440
0820
3018
C006
ENDCHAR
STARTCHAR U+4E43
ENCODING 20035
SWIDTH 1000 0
DWIDTH 16 0
BBX 15 15 0 -2
BITMAP
FFE0
0410
0410
0410
0420
0420
041C
0402
0802
0802
0802
1004
1004
2088
C070
ENDCHAR
STARTCHAR U+4E45
ENCODING 20037
SWIDTH 1000 0
DWIDTH 16 0
BBX 15 16 0 -2
BITMAP
0400
0400
0400
07E0
0810
0810
1020
2020
4040
0080
0180
0240
0420
0810
3008
C006
ENDCHAR
STARTCHAR U+4E48
ENCODING 20040
SWIDTH 1000 0
DWIDTH 16 0
BBX 15 16 0 -2
BITMAP
0200
0200
0400
0420
0820
1040
2040
4080
8100
0220
0410
0808
1004
201C
43E2
3C02
ENDCHAR
STARTCHAR U+4E49
ENCODING 20041
SWIDTH 1000 0
DWIDTH 16 0
BBX 15 16 0 -2
BITMAP
0600
0108
2088
2088
1010
1010
0820
0820
0440
0280
0100
0280
0440
0820
3018
C006
ENDCHAR
STARTCHAR U+4E4B
ENCODING 20043
SWIDTH 1000 0
DWIDTH 16 0
BBX 15 16 0 -2
BITMAP
0100
0100
0100
FFF0
0008
0008
0010
0020
0040
0180
2200
2C00
3000
5000
4C00
83FE
ENDCHAR
STARTCHAR U+4E4C
ENCODING 20044
SWIDTH 1000 0
DWIDTH 16 0
BBX 15 16 0 -2
BITMAP
0400
0400
1FE0
2010
2010
2010
20E0
2000
2000
1FFC
0002
0002
FFF2
0002
0004
0038
ENDCHAR
STARTCHAR U+4E4D
ENCODING 20045
SWIDTH 1000 0
DWIDTH 16 0
BBX 15 16 0 -2
BITMAP
1000
1000
1000
3FFE
2100
2100
4100
41FC
8100
0100
0100
01FC
0100
0100
0100
0100
ENDCHAR
STARTCHAR U+4E4E
ENCODING 20046
SWIDTH 1000 0
DWIDTH 16 0
BBX 15 16 0 -2
BITMAP
000C
00F0
7F08
2108
1108
1110
1110
0100
FFFE
0100
0100
0100
0100
0100
0100
0E00
ENDCHAR
STARTCHAR U+4E4F
ENCODING 20047
SWIDTH 1000 0
DWIDTH 16 0
BBX 15 16 0 -2
BITMAP
0018
01E0
7F00
0100
0100
FFE0
0010
0010
0020
0040
2180
2200
2C00
5000
4C00
83FE
ENDCHAR
STARTCHAR U+4E50
ENCODING 20048
SWIDTH 1000 0
DWIDTH 16 0
BBX 15 16 0 -2
BITMAP
000C
00F0
1F00
2000
2100
2100
4100
4100
3FFE
0100
0930
0908
1104
2102
C102
0E00
ENDCHAR
STARTCHAR U+4E52
ENCODING 20050
SWIDTH 1000 0
DWIDTH 16 0
BBX 15 16 0 -2
BITMAP
0010
00E0
0F00
1000
1000
1FFC
1020
1020
1020
1020
FFFE
0000
0200
0400
1800
6000
ENDCHAR
STARTCHAR U+4E53
ENCODING 20051
SWIDTH 1000 0
DWIDTH 16 0
BBX 15 16 0 -2
BITMAP
0010
00E0
0F00
1000
1000
1FFC
1020
1020
1020
1020
FFFE
0000
0080
0040
0030
000C
ENDCHAR
STARTCHAR U+4E54
ENCODING 20052
SWIDTH 1000 0
DWIDTH 16 0
BBX 15 16 0 -2
BITMAP
000C
00F0
7F00
0100
0100
FFFE
0440
0820
3018
C826
0820
0820
0820
1020
2020
C020
ENDCHAR
STARTCHAR U+4E55
ENCODING 20053
SWIDTH 1000 0
DWIDTH 16 0
BBX 15 16 0 -2
BITMAP
000C
00F0
1F80
2080
3FFE
2080
2080
3FFE
2080
2080
27F8
2884
4884
4884
88B8
0080
ENDCHAR
STARTCHAR U+4E56
ENCODING 20054
SWIDTH 1000 0
DWIDTH 16 0
BBX 15 16 0 -2
BITMAP
001C
01E0
7F00
0100
FFFE
0100
0540
0542
FD4C
0570
0540
0D42
3542
C542
053C
0100
ENDCHAR
STARTCHAR U+4E57
ENCODING 20055
SWIDTH 1000 0
DWIDTH 16 0
BBX 15 16 0 -2
BITMAP
000C
00F0
7F00
0100
7FFC
1110
1110
FFFE
1110
1110
7FFC
0540
0920
1110
2108
C106
ENDCHAR
STARTCHAR U+4E58
ENCODING 20056
SWIDTH 1000 0
DWIDTH 16 0
BBX 15 16 0 -2
BITMAP
0078
3F80
0100
FFFE
0100
0544
FD78
0542
0D42
37BC
C540
0540
0920
3118
C106
0100
ENDCHAR
STARTCHAR U+4E59
ENCODING 20057
SWIDTH 1000 0
DWIDTH 16 0
BBX 15 15 0 -2
BITMAP
FFE0
0010
0010
0020
00C0
0300
0C00
1000
2000
2000
4000
4002
4002
2002
1FFC
ENDCHAR
STARTCHAR U+4E5A
ENCODING 20058
SWIDTH 1000 0
DWIDTH 16 0
BBX 13 16 2 -2
BITMAP
8000
8000
8000
8000
8000
8000
8000
8000
8000
8000
8000
8000
8008
8008
4008
3FF0
ENDCHAR
STARTCHAR U+4E5B
ENCODING 20059
SWIDTH 1000 0
DWIDTH 16 0
BBX 15 5 0 8
BITMAP
FFFC
0002
0002
0004
0008
ENDCHAR
STARTCHAR U+4E5D
ENCODING 20061
SWIDTH 1000 0
DWIDTH 16 0
BBX 15 16 0 -2
BITMAP
0400
0400
0400
0400
FFC0
0420
0420
0420
0420
0420
0420
0820
0822
1022
2022
C01C
ENDCHAR
STARTCHAR U+4E5E
ENCODING 20062
SWIDTH 1000 0
DWIDTH 16 0
BBX 15 16 0 -2
BITMAP
0800
0800
1000
1FFE
2000
4000
BF80
0040
0180
0200
0C00
1000
2002
4002
4002
3FFC
ENDCHAR
STARTCHAR U+4E5F
ENCODING 20063
SWIDTH 1000 0
DWIDTH 16 0
BBX 15 16 0 -2
BITMAP
0100
1100
1100
1130
11C8
1708
3908
D108
1108
1108
1170
1100
1102
1002
1002
0FFC
ENDCHAR
STARTCHAR U+4E60
ENCODING 20064
SWIDTH 1000 0
DWIDTH 16 0
BBX 14 15 1 -2
BITMAP
FFF8
0004
0004
3004
0804
0404
0204
0204
0024
00C4
0704
F804
0004
0004
0038
ENDCHAR
STARTCHAR U+4E61
ENCODING 20065
SWIDTH 1000 0
DWIDTH 16 0
BBX 13 16 1 -2
BITMAP
0400
0800
1040
2040
4080
3F00
0208
0C08
3008
41F0
3E10
0020
0040
0180
0600
F800
ENDCHAR
STARTCHAR U+4E62
ENCODING 20066
SWIDTH 1000 0
DWIDTH 16 0
BBX 15 16 0 -2
BITMAP
1040
1040
1040
9240
9240
9240
9240
9240
9240
9240
9240
9240
7C42
0042
0042
003C
ENDCHAR
STARTCHAR U+4E66
ENCODING 20070
SWIDTH 1000 0
DWIDTH 16 0
BBX 15 16 0 -2
BITMAP
0210
0208
0204
7FE4
0210
0210
0210
0210
FFFC
0202
0202
0202
0204
0238
0200
0200
ENDCHAR
STARTCHAR U+4E69
ENCODING 20073
SWIDTH 1000 0
DWIDTH 16 0
BBX 15 16 0 -2
BITMAP
1040
1040
1040
1F40
1040
1040
1040
1040
7C40
8240
8240
8240
8242
8242
7C42
003C
ENDCHAR
STARTCHAR U+4E70
ENCODING 20080
SWIDTH 1000 0
DWIDTH 16 0
BBX 15 15 0 -2
BITMAP
FFFC
0002
1082
0884
4488
2480
1080
1080
0080
FFFE
0100
0260
0418
1804
E002
ENDCHAR
STARTCHAR U+4E71
ENCODING 20081
SWIDTH 1000 0
DWIDTH 16 0
BBX 15 16 0 -2
BITMAP
0140
0640
F840
0840
0840
FFC0
0840
0840
0840
3E40
4140
4142
4142
4142
3E42
003C
ENDCHAR
STARTCHAR U+4E73
ENCODING 20083
SWIDTH 1000 0
DWIDTH 16 0
BBX 15 16 0 -2
BITMAP
0740
F940
9140
4A40
2A40
2040
FE40
0140
2240
1440
1F40
E842
0842
0842
0842
703C
ENDCHAR
STARTCHAR U+4E7E
ENCODING 20094
SWIDTH 1000 0
DWIDTH 16 0
BBX 15 16 0 -2
BITMAP
1080
1080
FE80
11FE
3900
4600
45F0
7C08
4410
4420
3840
1080
FE82
1102
1102
10FC
ENDCHAR
STARTCHAR U+4E80
ENCODING 20096
SWIDTH 1000 0
DWIDTH 16 0
BBX 15 16 0 -2
BITMAP
0800
0F80
1040
3FF0
E108
3FF8
2108
1FF0
0100
3FF8
4104
7FFC
4104
3FFA
0102
00FC
ENDCHAR
STARTCHAR U+4E82
ENCODING 20098
SWIDTH 1000 0
DWIDTH 16 0
BBX 15 16 0 -2
BITMAP
07A0
F920
5120
2A20
7F20
1120
0A20
3F20
48A0
56A0
4AA0
40A2
7CA2
52A2
4CA2
731C
ENDCHAR
STARTCHAR U+4E85
ENCODING 20101
SWIDTH 1000 0
DWIDTH 16 0
BBX 4 16 5 -2
BITMAP
10
10
10
10
10
10
10
10
10
10
10
10
10
10
10
E0
ENDCHAR
STARTCHAR U+4E86
ENCODING 20102
SWIDTH 1000 0
DWIDTH 16 0
BBX 15 15 0 -2
BITMAP
FFFC
0002
0002
0204
0118
0160
0080
0080
0080
0080
0080
0080
0080
1100
0E00
ENDCHAR
STARTCHAR U+4E88
ENCODING 20104
SWIDTH 1000 0
DWIDTH 16 0
BBX 15 15 0 -2
BITMAP
7FF0
0008
0808
0410
0220
FFFC
0102
0102
0104
0118
0100
0100
0100
0100
0E00
ENDCHAR
STARTCHAR U+4E89
ENCODING 20105
SWIDTH 1000 0
DWIDTH 16 0
BBX 15 16 0 -2
BITMAP
0400
0780
0840
1040
7FF0
0108
0108
FFFE
0108
0108
7FF0
0100
0100
0100
0100
0E00
ENDCHAR
STARTCHAR U+4E8A
ENCODING 20106
SWIDTH 1000 0
DWIDTH 16 0
BBX 15 16 0 -2
BITMAP
0100
0100
FFFE
1110
0920
3FF0
0108
0108
FFFE
0108
0108
3FF0
0100
0100
0100
0600
ENDCHAR
STARTCHAR U+4E8B
ENCODING 20107
SWIDTH 1000 0
DWIDTH 16 0
BBX 15 16 0 -2
BITMAP
0100
0100
FFFE
0100
1FF0
2108
1FF0
0100
3FF0
0108
FFFE
0108
3FF0
0100
0100
0E00
ENDCHAR
STARTCHAR U+4E8C
ENCODING 20108
SWIDTH 1000 0
DWIDTH 16 0
BBX 15 12 0 0
BITMAP
3FF8
0000
0000
0000
0000
0000
0000
0000
0000
0000
0000
FFFE
ENDCHAR
STARTCHAR U+4E8E
ENCODING 20110
SWIDTH 1000 0
DWIDTH 16 0
BBX 15 15 0 -2
BITMAP
7FFC
0100
0100
0100
0100
0100
FFFE
0100
0100
0100
0100
0100
0100
0100
0600
ENDCHAR
STARTCHAR U+4E8F
ENCODING 20111
SWIDTH 1000 0
DWIDTH 16 0
BBX 15 15 0 -2
BITMAP
7FFC
0000
0000
0000
FFFE
0800
0800
1000
0FF0
0008
0008
0008
0008
0110
00E0
ENDCHAR
STARTCHAR U+4E90
ENCODING 20112
SWIDTH 1000 0
DWIDTH 16 0
BBX 15 15 0 -2
BITMAP
7FFC
0400
0400
0400
FFFE
0800
0800
1000
0FF0
0008
0008
0008
0008
0110
00E0
ENDCHAR
STARTCHAR U+4E91
ENCODING 20113
SWIDTH 1000 0
DWIDTH 16 0
BBX 15 14 0 -2
BITMAP
7FFC
0000
0000
0000
FFFE
0400
0400
0840
0820
1010
1008
2078
4384
3C04
ENDCHAR
STARTCHAR U+4E92
ENCODING 20114
SWIDTH 1000 0
DWIDTH 16 0
BBX 15 15 0 -2
BITMAP
FFFE
1000
1000
1000
1FE0
1010
1010
1010
1010
1010
0FF0
0010
0010
0010
FFFE
ENDCHAR
STARTCHAR U+4E94
ENCODING 20116
SWIDTH 1000 0
DWIDTH 16 0
BBX 15 15 0 -2
BITMAP
FFFE
0400
0400
0400
0400
0400
7FE0
0810
0810
0810
0810
0810
0810
0810
FFFE
ENDCHAR
STARTCHAR U+4E95
ENCODING 20117
SWIDTH 1000 0
DWIDTH 16 0
BBX 15 16 0 -2
BITMAP
0820
0820
0820
0820
7FFC
0820
0820
0820
0820
0820
FFFE
0820
1020
1020
2020
C020
ENDCHAR
STARTCHAR U+4E96
ENCODING 20118
SWIDTH 1000 0
DWIDTH 16 0
BBX 15 15 0 -2
BITMAP
7FFC
0000
0000
0000
0000
FFFE
0000
0000
0000
7FFC
0000
0000
0000
0000
FFFE
ENDCHAR
STARTCHAR U+4E98
ENCODING 20120
SWIDTH 1000 0
DWIDTH 16 0
BBX 15 15 0 -2
BITMAP
FFFE
0000
0000
0FE0
1010
1010
1010
1FF0
1010
1010
1010
0FE0
0000
0000
FFFE
ENDCHAR
STARTCHAR U+4E99
ENCODING 20121
SWIDTH 1000 0
DWIDTH 16 0
BBX 15 15 0 -2
BITMAP
FFFE
1000
1000
1FE0
1010
1210
1110
1090
1090
1410
1210
1110
0110
0010
FFFE
ENDCHAR
STARTCHAR U+4E9A
ENCODING 20122
SWIDTH 1000 0
DWIDTH 16 0
BBX 15 15 0 -2
BITMAP
FFFE
0440
0440
0440
4444
4444
2444
2444
2448
2448
0440
0440
0440
0440
FFFE
ENDCHAR
STARTCHAR U+4E9B
ENCODING 20123
SWIDTH 1000 0
DWIDTH 16 0
BBX 15 16 0 -2
BITMAP
0880
0880
4884
4F84
4898
48E0
4882
4B82
5C82
E07C
0000
0000
7FFC
0000
0000
FFFE
ENDCHAR
STARTCHAR U+4E9C
ENCODING 20124
SWIDTH 1000 0
DWIDTH 16 0
BBX 15 15 0 -2
BITMAP
FFFE
0440
0440
0440
3FF8
4444
4444
4444
4444
4444
3FF8
0440
0440
0440
FFFE
ENDCHAR
STARTCHAR U+4E9E
ENCODING 20126
SWIDTH 1000 0
DWIDTH 16 0
BBX 15 15 0 -2
BITMAP
FFFE
0440
0440
0440
3C78
4004
4004
4004
4004
4004
3C78
0440
0440
0440
FFFE
ENDCHAR
STARTCHAR U+4E9F
ENCODING 20127
SWIDTH 1000 0
DWIDTH 16 0
BBX 15 15 0 -2
BITMAP
FFFE
0400
0400
0800
0F78
7084
88A4
88A8
8898
8890
70A8
0146
0600
0000
FFFE
ENDCHAR
STARTCHAR U+4EA0
ENCODING 20128
SWIDTH 1000 0
DWIDTH 16 0
BBX 15 6 0 8
BITMAP
0100
0100
0100
0100
0100
FFFE
ENDCHAR
STARTCHAR U+4EA1
ENCODING 20129
SWIDTH 1000 0
DWIDTH 16 0
BBX 15 16 0 -2
BITMAP
0100
0100
0100
0100
FFFE
1000
1000
1000
1000
1000
1000
1000
1000
1000
1000
0FFC
ENDCHAR
STARTCHAR U+4EA2
ENCODING 20130
SWIDTH 1000 0
DWIDTH 16 0
BBX 15 16 0 -2
BITMAP
0100
0100
0100
FFFE
0000
0000
0780
0840
0840
0840
0840
0840
1042
1042
2042
C03C
ENDCHAR
STARTCHAR U+4EA4
ENCODING 20132
SWIDTH 1000 0
DWIDTH 16 0
BBX 15 16 0 -2
BITMAP
0100
0100
0100
FFFE
0440
0820
3458
C446
0280
0280
0100
0280
0440
0820
3018
C006
ENDCHAR
STARTCHAR U+4EA5
ENCODING 20133
SWIDTH 1000 0
DWIDTH 16 0
BBX 15 16 0 -2
BITMAP
0100
0100
0100
FFFE
0200
0420
1820
2040
1F88
0110
0220
0C40
70A0
0310
0C08
7004
ENDCHAR
STARTCHAR U+4EA6
ENCODING 20134
SWIDTH 1000 0
DWIDTH 16 0
BBX 15 16 0 -2
BITMAP
0100
0100
0100
FFFE
0440
0440
2440
2448
2444
2444
4442
4842
8842
1040
2440
C380
ENDCHAR
STARTCHAR U+4EA7
ENCODING 20135
SWIDTH 1000 0
DWIDTH 16 0
BBX 15 16 0 -2
BITMAP
0100
0100
FFFE
0820
0420
0440
1FFE
2000
2000
2000
2000
2000
2000
4000
4000
8000
ENDCHAR
STARTCHAR U+4EA8
ENCODING 20136
SWIDTH 1000 0
DWIDTH 16 0
BBX 15 16 0 -2
BITMAP
0100
0100
FFFE
0000
1FF0
2008
1FF0
0000
7FF8
0004
0118
00E0
0080
0080
0080
0700
ENDCHAR
STARTCHAR U+4EA9
ENCODING 20137
SWIDTH 1000 0
DWIDTH 16 0
BBX 15 16 0 -2
BITMAP
0100
0100
0100
FFFE
0000
0000
1FF0
2108
2108
2108
3FF8
2108
2108
2108
2108
1FF0
ENDCHAR
STARTCHAR U+4EAB
ENCODING 20139
SWIDTH 1000 0
DWIDTH 16 0
BBX 15 16 0 -2
BITMAP
0100
0100
FFFE
0000
1FF0
2008
1FF0
0000
3FF0
0008
0210
FFFE
0080
0080
0080
0700
ENDCHAR
STARTCHAR U+4EAC
ENCODING 20140
SWIDTH 1000 0
DWIDTH 16 0
BBX 15 16 0 -2
BITMAP
0100
0100
FFFE
0000
0000
1FF0
2008
2008
2008
1FF0
0100
0920
1110
2108
C106
0E00
ENDCHAR
STARTCHAR U+4EAD
ENCODING 20141
SWIDTH 1000 0
DWIDTH 16 0
BBX 15 16 0 -2
BITMAP
0100
0100
FFFE
0000
1FF0
2008
1FF0
0000
7FFC
8002
BFFA
0100
0100
0100
0100
0E00
ENDCHAR
STARTCHAR U+4EAE
ENCODING 20142
SWIDTH 1000 0
DWIDTH 16 0
BBX 15 16 0 -2
BITMAP
0100
0100
FFFE
0000
1FF0
2008
1FF0
0000
7FFC
8002
8782
0840
0842
0842
1042
E03C
ENDCHAR
STARTCHAR U+4EB0
ENCODING 20144
SWIDTH 1000 0
DWIDTH 16 0
BBX 15 16 0 -2
BITMAP
0100
0100
FFFE
0000
0FE0
1010
1010
1FF0
1010
1010
0FE0
0100
0920
1110
2108
C606
ENDCHAR
STARTCHAR U+4EB2
ENCODING 20146
SWIDTH 1000 0
DWIDTH 16 0
BBX 15 16 0 -2
BITMAP
0100
0100
7FFC
0820
0420
0440
FFFE
0100
0100
7FFC
0100
0920
1110
2108
C106
0E00
ENDCHAR
STARTCHAR U+4EB3
ENCODING 20147
SWIDTH 1000 0
DWIDTH 16 0
BBX 15 16 0 -2
BITMAP
0100
0100
FFFE
0000
1FF0
2008
1FF0
0000
7FFC
8062
9F82
0200
7FF8
0204
0204
01F8
ENDCHAR
STARTCHAR U+4EB6
ENCODING 20150
SWIDTH 1000 0
DWIDTH 16 0
BBX 15 16 0 -2
BITMAP
0100
FFFE
0000
1FF0
2828
27C8
2008
1FF0
0000
0FE0
1010
1FF0
1010
0FE0
0000
FFFE
ENDCHAR
STARTCHAR U+4EBA
ENCODING 20154
SWIDTH 1000 0
DWIDTH 16 0
BBX 15 16 0 -2
BITMAP
0100
0100
0100
0100
0100
0100
0280
0280
0280
0440
0440
0820
0820
1010
2008
C006
ENDCHAR
STARTCHAR U+4EBB
ENCODING 20155
SWIDTH 1000 0
DWIDTH 16 0
BBX 5 16 5 -2
BITMAP
08
08
10
10
20
20
60
A0
20
20
20
20
20
20
20
20
ENDCHAR
STARTCHAR U+4EBF
ENCODING 20159
SWIDTH 1000 0
DWIDTH 16 0
BBX 15 16 0 -2
BITMAP
0800
0FF0
1008
1008
2010
2020
6040
A080
2100
2200
2200
2400
2402
2402
2202
21FC
ENDCHAR
STARTCHAR U+4EC0
ENCODING 20160
SWIDTH 1000 0
DWIDTH 16 0
BBX 15 16 0 -2
BITMAP
0840
0840
1040
1040
2040
2040
6FFE
A040
2040
2040
2040
2040
2040
2040
2040
2040
ENDCHAR
STARTCHAR U+4EC1
ENCODING 20161
SWIDTH 1000 0
DWIDTH 16 0
BBX 15 16 0 -2
BITMAP
0800
0800
17FC
1000
2000
2000
6000
A000
2000
2000
2000
2000
2000
2000
2FFE
2000
ENDCHAR
STARTCHAR U+4EC2
ENCODING 20162
SWIDTH 1000 0
DWIDTH 16 0
BBX 15 16 0 -2
BITMAP
0840
0840
0840
17FC
1042
1042
3042
5042
9082
1082
1082
1102
1104
1204
14C8
1830
ENDCHAR
STARTCHAR U+4EC3
ENCODING 20163
SWIDTH 1000 0
DWIDTH 16 0
BBX 15 16 0 -2
BITMAP
0800
0BFE
0810
1010
1010
1010
3010
5010
9010
1010
1010
1010
1010
1010
1110
10E0
ENDCHAR
STARTCHAR U+4EC4
ENCODING 20164
SWIDTH 1000 0
DWIDTH 16 0
BBX 15 15 0 -2
BITMAP
1FFE
2000
2080
2080
2080
2080
2080
2140
2140
2140
2220
4220
4410
8808
3006
ENDCHAR
ENDFONT
